<svg width="213" height="214" viewBox="0 0 213 214" fill="none" xmlns="http://www.w3.org/2000/svg">
<g filter="url(#filter0_d_47_16)">
<mask id="path-1-inside-1_47_16" fill="white">
<path d="M30.7311 9.83006C31.745 4.40107 36.968 0.821913 42.3969 1.83579L286.182 47.3635C291.611 48.3773 295.19 53.6003 294.176 59.0293L268.281 197.69C267.267 203.119 262.044 206.698 256.615 205.684L12.8301 160.156C7.40108 159.143 3.82193 153.92 4.8358 148.491L30.7311 9.83006Z"/>
</mask>
<path d="M30.7311 9.83006C31.745 4.40107 36.968 0.821913 42.3969 1.83579L286.182 47.3635C291.611 48.3773 295.19 53.6003 294.176 59.0293L268.281 197.69C267.267 203.119 262.044 206.698 256.615 205.684L12.8301 160.156C7.40108 159.143 3.82193 153.92 4.8358 148.491L30.7311 9.83006Z" fill="white"/>
<path d="M30.7311 9.83005C33.2658 -3.74242 46.3232 -12.6903 59.8957 -10.1556L274.191 29.8647C287.763 32.3994 296.711 45.4568 294.176 59.0293L293.259 63.9443C293.259 63.9443 288.857 63.1224 283.428 62.1085L39.6433 16.5809C34.2143 15.567 29.8132 14.7451 29.8132 14.7451L30.7311 9.83005ZM266.445 207.52L3.00001 158.321L266.445 207.52ZM3.00001 158.321L32.5669 0L3.00001 158.321ZM296.012 49.1993L266.445 207.52L296.012 49.1993Z" fill="#D11AFF" mask="url(#path-1-inside-1_47_16)"/>
<path d="M41.2482 32.0962C41.6581 32.1762 42.0541 32.331 42.436 32.5608C42.8179 32.7906 43.1451 33.1147 43.4176 33.5331C43.6908 33.9483 43.8731 34.4796 43.9645 35.1272C44.056 35.7748 44.016 36.558 43.8444 37.4768C43.6783 38.3662 43.446 39.1405 43.1476 39.7996C42.8531 40.456 42.5037 40.9909 42.0994 41.4043C41.6984 41.8183 41.2503 42.1055 40.755 42.2659C40.263 42.4269 39.7352 42.4548 39.1716 42.3495C38.6112 42.2448 38.1318 42.0407 37.7333 41.737C37.3387 41.4306 37.0384 41.0526 36.8325 40.6028C36.6304 40.1503 36.5395 39.6529 36.5599 39.1104L37.7523 39.3331C37.7741 39.8126 37.9166 40.232 38.1799 40.5914C38.4471 40.9481 38.8446 41.1758 39.3724 41.2743C40.1445 41.4185 40.8168 41.1951 41.3891 40.604C41.9646 40.0136 42.3674 39.1026 42.5974 37.871L42.5192 37.8564C42.2856 38.096 42.0249 38.2918 41.7369 38.4437C41.4489 38.5956 41.1417 38.6967 40.8154 38.747C40.4891 38.7973 40.1532 38.7902 39.8079 38.7257C39.2344 38.6187 38.7347 38.3787 38.3087 38.0058C37.8866 37.6302 37.5787 37.1664 37.3851 36.6144C37.1954 36.0597 37.1607 35.4598 37.2812 34.8147C37.3956 34.2022 37.6371 33.6674 38.0057 33.2103C38.3781 32.7505 38.8419 32.4156 39.397 32.2057C39.9553 31.9964 40.5724 31.9599 41.2482 32.0962ZM41.0475 33.1714C40.6369 33.0947 40.248 33.1283 39.8806 33.2721C39.517 33.4133 39.2069 33.6386 38.9502 33.948C38.6973 34.2548 38.532 34.6168 38.4541 35.0338C38.3762 35.4508 38.3966 35.8474 38.5151 36.2236C38.6375 36.5971 38.8395 36.9147 39.1211 37.1763C39.4065 37.4353 39.7545 37.6031 40.165 37.6798C40.4746 37.7376 40.7741 37.7312 41.0638 37.6605C41.3541 37.5866 41.6184 37.4623 41.8567 37.2877C42.0988 37.1103 42.3022 36.8971 42.4667 36.648C42.6319 36.3956 42.7421 36.1212 42.7975 35.8247C42.8705 35.4337 42.8445 35.0496 42.7194 34.6722C42.5976 34.2954 42.3919 33.9704 42.1024 33.6972C41.8161 33.4245 41.4645 33.2493 41.0475 33.1714ZM45.8542 42.1308C45.6131 42.0858 45.4224 41.9608 45.2819 41.7559C45.1415 41.551 45.0938 41.328 45.1388 41.0869C45.1839 40.8458 45.3088 40.655 45.5138 40.5146C45.7187 40.3741 45.9417 40.3264 46.1828 40.3715C46.4239 40.4165 46.6147 40.5415 46.7551 40.7464C46.8955 40.9513 46.9432 41.1743 46.8982 41.4154C46.8684 41.5751 46.8003 41.7141 46.6939 41.8324C46.5907 41.9514 46.4648 42.0392 46.316 42.0957C46.171 42.1495 46.0171 42.1612 45.8542 42.1308ZM46.7998 37.0678C46.5587 37.0228 46.3679 36.8978 46.2275 36.6929C46.0871 36.4879 46.0393 36.2649 46.0844 36.0238C46.1294 35.7827 46.2544 35.592 46.4593 35.4515C46.6642 35.3111 46.8872 35.2634 47.1283 35.3084C47.3694 35.3535 47.5602 35.4784 47.7006 35.6834C47.8411 35.8883 47.8888 36.1113 47.8437 36.3524C47.8139 36.512 47.7458 36.651 47.6394 36.7694C47.5363 36.8884 47.4103 36.9761 47.2615 37.0326C47.1166 37.0865 46.9627 37.0982 46.7998 37.0678ZM51.784 44.7049C51.0476 44.5674 50.4579 44.2499 50.0147 43.7524C49.5721 43.2517 49.2855 42.5929 49.1548 41.7762C49.0247 40.9561 49.0613 40.002 49.2645 38.9138C49.4665 37.8322 49.7758 36.9341 50.1925 36.2195C50.613 35.5023 51.12 34.9901 51.7135 34.6829C52.3108 34.373 52.9744 34.2861 53.7042 34.4224C54.434 34.5587 55.0199 34.8789 55.4619 35.3829C55.9077 35.8842 56.1957 36.5449 56.3258 37.3649C56.4597 38.1823 56.4257 39.1318 56.2237 40.2135C56.0205 41.3017 55.7102 42.2047 55.293 42.9225C54.8763 43.637 54.3712 44.1479 53.7777 44.4552C53.1849 44.7592 52.5203 44.8424 51.784 44.7049ZM51.9847 43.6297C52.7145 43.766 53.3472 43.52 53.8826 42.8917C54.418 42.2634 54.8074 41.2977 55.0508 39.9945C55.2127 39.1278 55.2576 38.3725 55.1857 37.7286C55.117 37.0852 54.9398 36.5717 54.6541 36.1879C54.3716 35.8047 53.9893 35.5681 53.5071 35.4781C52.7838 35.343 52.1519 35.5942 51.6114 36.2316C51.0715 36.8658 50.6802 37.8329 50.4374 39.1329C50.2755 39.9995 50.2292 40.7529 50.2985 41.393C50.3678 42.033 50.544 42.543 50.8271 42.923C51.1134 43.3035 51.4993 43.5391 51.9847 43.6297ZM60.3852 46.3112C59.6489 46.1737 59.0592 45.8562 58.616 45.3587C58.1734 44.858 57.8867 44.1992 57.7561 43.3825C57.626 42.5625 57.6625 41.6084 57.8658 40.5202C58.0678 39.4385 58.3771 38.5404 58.7938 37.8258C59.2143 37.1087 59.7213 36.5964 60.3148 36.2892C60.9121 35.9793 61.5757 35.8925 62.3055 36.0288C63.0353 36.1651 63.6212 36.4852 64.0632 36.9892C64.509 37.4906 64.797 38.1512 64.9271 38.9713C65.061 39.7886 65.027 40.7381 64.825 41.8198C64.6218 42.908 64.3115 43.811 63.8943 44.5288C63.4776 45.2433 62.9725 45.7542 62.379 46.0615C61.7862 46.3655 61.1216 46.4487 60.3852 46.3112ZM60.586 45.2361C61.3158 45.3723 61.9485 45.1263 62.4839 44.4981C63.0193 43.8698 63.4087 42.904 63.6521 41.6008C63.8139 40.7341 63.8589 39.9788 63.787 39.3349C63.7183 38.6916 63.5411 38.178 63.2554 37.7942C62.9729 37.411 62.5906 37.1744 62.1084 37.0844C61.3851 36.9493 60.7532 37.2005 60.2127 37.8379C59.6728 38.4722 59.2814 39.4392 59.0387 40.7392C58.8768 41.6058 58.8305 42.3592 58.8998 42.9993C58.9691 43.6394 59.1453 44.1494 59.4284 44.5293C59.7147 44.9098 60.1006 45.1454 60.586 45.2361ZM74.9733 43.1587L74.7725 44.2339L70.3936 43.4161L70.5944 42.3409L74.9733 43.1587ZM85.2066 40.4472L83.3374 50.456L82.1254 50.2296L83.7573 41.4915L83.6986 41.4806L80.9521 42.6467L81.1821 41.4152L83.9946 40.2209L85.2066 40.4472ZM91.6038 41.6419L89.7346 51.6507L88.5226 51.4243L90.1545 42.6862L90.0958 42.6753L87.3493 43.8414L87.5793 42.6099L90.3918 41.4156L91.6038 41.6419ZM93.7124 51.0685C93.4713 51.0234 93.2805 50.8985 93.1401 50.6935C92.9996 50.4886 92.9519 50.2656 92.997 50.0245C93.042 49.7834 93.167 49.5927 93.3719 49.4522C93.5768 49.3118 93.7998 49.2641 94.0409 49.3091C94.282 49.3541 94.4728 49.4791 94.6132 49.684C94.7536 49.889 94.8013 50.112 94.7563 50.3531C94.7265 50.5127 94.6584 50.6517 94.552 50.7701C94.4489 50.8891 94.3229 50.9768 94.1741 51.0333C94.0292 51.0872 93.8753 51.0989 93.7124 51.0685ZM94.6579 46.0054C94.4168 45.9604 94.226 45.8354 94.0856 45.6305C93.9452 45.4256 93.8975 45.2026 93.9425 44.9615C93.9875 44.7204 94.1125 44.5296 94.3174 44.3892C94.5224 44.2488 94.7454 44.2011 94.9865 44.2461C95.2276 44.2911 95.4183 44.4161 95.5588 44.621C95.6992 44.8259 95.7469 45.0489 95.7019 45.29C95.672 45.4497 95.6039 45.5887 95.4975 45.7071C95.3944 45.826 95.2684 45.9138 95.1196 45.9703C94.9747 46.0241 94.8208 46.0359 94.6579 46.0054ZM99.6421 53.6426C98.9058 53.505 98.316 53.1875 97.8728 52.6901C97.4302 52.1893 97.1436 51.5306 97.0129 50.7138C96.8828 49.8938 96.9194 48.9397 97.1226 47.8515C97.3246 46.7698 97.6339 45.8717 98.0506 45.1572C98.4711 44.44 98.9781 43.9278 99.5716 43.6205C100.169 43.3106 100.833 43.2238 101.562 43.3601C102.292 43.4964 102.878 43.8165 103.32 44.3205C103.766 44.8219 104.054 45.4826 104.184 46.3026C104.318 47.12 104.284 48.0695 104.082 49.1512C103.879 50.2394 103.568 51.1423 103.151 51.8601C102.734 52.5747 102.229 53.0856 101.636 53.3928C101.043 53.6968 100.378 53.7801 99.6421 53.6426ZM99.8429 52.5674C100.573 52.7037 101.205 52.4577 101.741 51.8294C102.276 51.2011 102.666 50.2353 102.909 48.9321C103.071 48.0655 103.116 47.3102 103.044 46.6662C102.975 46.0229 102.798 45.5093 102.512 45.1256C102.23 44.7424 101.847 44.5058 101.365 44.4157C100.642 44.2806 100.01 44.5318 99.4695 45.1693C98.9296 45.8035 98.5383 46.7706 98.2955 48.0705C98.1337 48.9372 98.0874 49.6905 98.1567 50.3306C98.2259 50.9707 98.4021 51.4807 98.6852 51.8606C98.9715 52.2411 99.3574 52.4767 99.8429 52.5674ZM108.243 55.2489C107.507 55.1114 106.917 54.7939 106.474 54.2964C106.032 53.7956 105.745 53.1369 105.614 52.3201C105.484 51.5001 105.521 50.546 105.724 49.4578C105.926 48.3761 106.235 47.478 106.652 46.7635C107.072 46.0463 107.579 45.5341 108.173 45.2268C108.77 44.9169 109.434 44.8301 110.164 44.9664C110.893 45.1027 111.479 45.4229 111.921 45.9269C112.367 46.4282 112.655 47.0889 112.785 47.9089C112.919 48.7263 112.885 49.6758 112.683 50.7575C112.48 51.8457 112.17 52.7487 111.752 53.4665C111.336 54.181 110.831 54.6919 110.237 54.9991C109.644 55.3031 108.98 55.3864 108.243 55.2489ZM108.444 54.1737C109.174 54.31 109.807 54.064 110.342 53.4357C110.877 52.8074 111.267 51.8417 111.51 50.5384C111.672 49.6718 111.717 48.9165 111.645 48.2726C111.576 47.6292 111.399 47.1157 111.114 46.7319C110.831 46.3487 110.449 46.1121 109.967 46.022C109.243 45.887 108.611 46.1381 108.071 46.7756C107.531 47.4098 107.14 48.3769 106.897 49.6769C106.735 50.5435 106.689 51.2969 106.758 51.9369C106.827 52.577 107.003 53.087 107.286 53.4669C107.573 53.8475 107.959 54.0831 108.444 54.1737ZM56.0944 75.9679C56.0576 75.6489 55.9796 75.3549 55.8602 75.086C55.7453 74.8141 55.5903 74.5713 55.3951 74.3576C55.2037 74.1446 54.9708 73.9681 54.6963 73.8283C54.4226 73.6847 54.1144 73.5809 53.7719 73.5169C53.1575 73.4022 52.5813 73.4545 52.0432 73.6738C51.5052 73.8932 51.0424 74.2768 50.6549 74.8249C50.2719 75.3699 50.0003 76.0706 49.8404 76.927C49.6791 77.7908 49.6783 78.5479 49.8382 79.1981C49.9981 79.8484 50.2908 80.3751 50.7165 80.7782C51.1428 81.1777 51.6762 81.4372 52.3166 81.5568C52.8975 81.6653 53.421 81.6475 53.8872 81.5033C54.3572 81.3599 54.7458 81.1049 55.0531 80.7385C55.3612 80.3683 55.567 79.9058 55.6706 79.351L56.1262 79.5112L53.0208 78.9313L53.3233 77.3115L57.9647 78.1783L57.7081 79.5523C57.5252 80.5316 57.1585 81.3397 56.6079 81.9768C56.0574 82.6138 55.3811 83.0578 54.5789 83.3087C53.7775 83.556 52.9039 83.5913 51.9581 83.4146C50.9044 83.2178 50.0232 82.8086 49.3147 82.1869C48.6106 81.5622 48.1169 80.7706 47.8335 79.8121C47.5545 78.8506 47.5276 77.7667 47.7529 76.5602C47.9254 75.6368 48.2097 74.8364 48.606 74.159C49.0059 73.4823 49.4897 72.9349 50.0571 72.5168C50.6253 72.095 51.2524 71.8114 51.9385 71.6659C52.6253 71.5167 53.3429 71.512 54.0913 71.6518C54.7243 71.77 55.2971 71.9733 55.8097 72.2617C56.3229 72.5464 56.7602 72.8978 57.1214 73.3159C57.4863 73.7347 57.7631 74.2025 57.9517 74.7194C58.1403 75.2363 58.2249 75.7839 58.2056 76.3621L56.0944 75.9679ZM62.4717 85.3896C61.6339 85.2332 60.9422 84.9133 60.3967 84.4299C59.8512 83.9465 59.4709 83.3418 59.2558 82.6158C59.0445 81.8904 59.0215 81.0846 59.187 80.1984C59.3525 79.3122 59.6651 78.5672 60.1247 77.9632C60.588 77.36 61.1612 76.9315 61.8445 76.6776C62.5277 76.4237 63.2882 76.375 64.126 76.5314C64.9638 76.6879 65.6554 77.0078 66.201 77.4912C66.7465 77.9745 67.1246 78.5807 67.3352 79.3098C67.5496 80.0396 67.574 80.8476 67.4085 81.7338C67.243 82.62 66.929 83.3628 66.4664 83.9624C66.0075 84.5626 65.4364 84.9896 64.7532 85.2435C64.07 85.4974 63.3095 85.5461 62.4717 85.3896ZM62.7853 83.772C63.2396 83.8568 63.6427 83.803 63.9946 83.6106C64.3472 83.4144 64.6376 83.118 64.8659 82.7213C65.0978 82.3253 65.2624 81.8667 65.3598 81.3454C65.4578 80.8204 65.4702 80.3314 65.3968 79.8784C65.3278 79.4224 65.1643 79.0393 64.9063 78.7291C64.6482 78.4188 64.2921 78.2213 63.8378 78.1365C63.3724 78.0496 62.9615 78.1038 62.6051 78.2993C62.2525 78.4955 61.9599 78.7934 61.7273 79.1931C61.499 79.5898 61.3359 80.0506 61.2379 80.5756C61.1405 81.0969 61.1267 81.5837 61.1963 82.036C61.2697 82.489 61.4354 82.8706 61.6935 83.1808C61.9559 83.488 62.3199 83.6851 62.7853 83.772ZM78.1171 79.2599L77.8251 80.8238L72.8933 79.9028L73.1853 78.3389L78.1171 79.2599ZM74.7868 76.5109L76.8086 76.8885L75.3045 84.9424C75.2538 85.2142 75.2558 85.4304 75.3106 85.5909C75.3698 85.7484 75.4634 85.8661 75.5915 85.9439C75.7195 86.0218 75.8673 86.0764 76.0349 86.1077C76.1615 86.1313 76.2786 86.1436 76.3864 86.1444C76.4978 86.146 76.5829 86.1445 76.6415 86.14L76.687 87.7843C76.5721 87.8014 76.4099 87.8135 76.2005 87.8206C75.9948 87.8284 75.7479 87.8093 75.4598 87.7632C74.9506 87.6835 74.5087 87.522 74.1342 87.2786C73.7603 87.0316 73.4876 86.707 73.316 86.3051C73.1482 85.9038 73.1162 85.4354 73.2201 84.9L74.7868 76.5109ZM81.8246 89.0039C80.9868 88.8474 80.2951 88.5275 79.7496 88.0441C79.2041 87.5608 78.8238 86.956 78.6087 86.23C78.3974 85.5046 78.3744 84.6988 78.5399 83.8126C78.7054 82.9264 79.018 82.1814 79.4776 81.5775C79.9409 80.9742 80.5142 80.5457 81.1974 80.2918C81.8806 80.0379 82.6411 79.9892 83.4789 80.1456C84.3167 80.3021 85.0083 80.622 85.5539 81.1054C86.0994 81.5887 86.4775 82.195 86.6881 82.9241C86.9025 83.6538 86.9269 84.4618 86.7614 85.348C86.5959 86.2342 86.2819 86.9771 85.8193 87.5766C85.3604 88.1768 84.7893 88.6038 84.1061 88.8577C83.4229 89.1116 82.6624 89.1603 81.8246 89.0039ZM82.1382 87.3862C82.5925 87.471 82.9956 87.4172 83.3475 87.2248C83.7001 87.0286 83.9905 86.7322 84.2188 86.3355C84.4507 85.9396 84.6153 85.4809 84.7127 84.9596C84.8107 84.4346 84.8231 83.9456 84.7497 83.4926C84.6807 83.0366 84.5172 82.6535 84.2592 82.3433C84.0011 82.0331 83.645 81.8355 83.1907 81.7507C82.7253 81.6638 82.3144 81.718 81.958 81.9135C81.6054 82.1097 81.3128 82.4076 81.0802 82.8073C80.852 83.204 80.6888 83.6648 80.5908 84.1899C80.4934 84.7111 80.4796 85.1979 80.5492 85.6502C80.6226 86.1032 80.7884 86.4848 81.0464 86.795C81.3089 87.1022 81.6728 87.2993 82.1382 87.3862ZM99.5432 85.608L97.6625 85.4649C97.6451 85.2689 97.5866 85.0769 97.4868 84.8887C97.3908 84.7012 97.2442 84.5371 97.0471 84.3962C96.8499 84.2553 96.5949 84.1557 96.2821 84.0973C95.8614 84.0187 95.4906 84.0439 95.1698 84.1728C94.8527 84.3024 94.669 84.5128 94.6184 84.8039C94.5681 85.0527 94.6215 85.2726 94.7784 85.4638C94.9391 85.6556 95.2279 85.8425 95.6448 86.0244L97.0497 86.6105C97.8287 86.9371 98.3801 87.3271 98.7039 87.7806C99.0314 88.2348 99.1396 88.7695 99.0286 89.3845C98.9241 89.9237 98.6768 90.3708 98.2868 90.7257C97.9013 91.0776 97.4114 91.3175 96.8172 91.4454C96.2231 91.5734 95.5685 91.5706 94.8536 91.4371C93.8036 91.241 92.9994 90.8634 92.441 90.3044C91.8833 89.7417 91.6167 89.0542 91.6412 88.2419L93.6483 88.4202C93.6653 88.8241 93.8007 89.1519 94.0542 89.4035C94.3078 89.6551 94.6673 89.8243 95.1328 89.9112C95.6131 90.0009 96.0169 89.9742 96.3442 89.8311C96.6752 89.6887 96.8678 89.4723 96.9221 89.1819C96.968 88.9361 96.9109 88.7155 96.7509 88.5199C96.5946 88.325 96.3272 88.1479 95.9485 87.9885L94.5425 87.4081C93.7516 87.0831 93.1967 86.6808 92.8778 86.2013C92.5596 85.718 92.4608 85.1639 92.5813 84.539C92.6763 84.0096 92.9052 83.5784 93.268 83.2454C93.6351 82.9094 94.0992 82.6839 94.6601 82.569C95.2255 82.4511 95.8507 82.4561 96.5358 82.5841C97.5412 82.7718 98.2924 83.1337 98.7896 83.6697C99.2905 84.2063 99.5417 84.8525 99.5432 85.608ZM106.358 89.6782L107.286 84.7073L109.308 85.0849L107.706 93.6639L105.745 93.2977L106.03 91.773L105.941 91.7563C105.657 92.2004 105.266 92.5338 104.766 92.7564C104.269 92.9797 103.699 93.0312 103.055 92.9109C102.493 92.8059 102.019 92.5883 101.633 92.2582C101.253 91.925 100.986 91.4956 100.834 90.9701C100.682 90.4408 100.67 89.8337 100.798 89.1485L101.818 83.6862L103.84 84.0637L102.878 89.2133C102.777 89.757 102.845 90.2167 103.083 90.5926C103.321 90.9684 103.682 91.2016 104.166 91.2919C104.464 91.3476 104.766 91.3289 105.073 91.2358C105.379 91.1427 105.648 90.9695 105.881 90.7162C106.117 90.4598 106.276 90.1138 106.358 89.6782ZM109.184 97.2692L111.387 85.4732L113.375 85.8445L113.111 87.2632L113.228 87.2851C113.371 87.096 113.559 86.9019 113.793 86.7028C114.028 86.5 114.322 86.345 114.678 86.238C115.034 86.1272 115.463 86.1187 115.966 86.2126C116.628 86.3364 117.194 86.6174 117.663 87.0557C118.137 87.491 118.469 88.0673 118.658 88.7848C118.853 89.4992 118.861 90.3331 118.683 91.2863C118.507 92.2283 118.203 93 117.77 93.6014C117.338 94.2027 116.824 94.6268 116.227 94.8736C115.629 95.1205 114.994 95.181 114.32 95.0551C113.828 94.9633 113.436 94.8053 113.143 94.5809C112.849 94.3566 112.626 94.1106 112.471 93.8429C112.321 93.5721 112.212 93.3224 112.143 93.0937L112.059 93.0781L111.206 97.6468L109.184 97.2692ZM112.569 90.1329C112.465 90.6878 112.453 91.1883 112.531 91.6345C112.613 92.0814 112.782 92.45 113.036 92.7402C113.294 93.0274 113.637 93.211 114.066 93.291C114.512 93.3744 114.909 93.3251 115.255 93.1432C115.602 92.9574 115.89 92.6703 116.121 92.2818C116.356 91.8903 116.524 91.4264 116.624 90.8902C116.723 90.3578 116.735 89.8706 116.66 89.4288C116.584 88.987 116.418 88.6206 116.16 88.3297C115.902 88.0388 115.548 87.8513 115.097 87.7671C114.665 87.6865 114.277 87.7315 113.933 87.9024C113.589 88.0732 113.301 88.3488 113.068 88.7291C112.839 89.1102 112.672 89.5781 112.569 90.1329ZM123.382 96.7648C122.522 96.6041 121.812 96.2867 121.253 95.8124C120.699 95.3351 120.316 94.7356 120.104 94.014C119.892 93.2886 119.87 92.4772 120.038 91.5799C120.203 90.6974 120.515 89.9542 120.975 89.3503C121.439 88.7433 122.009 88.3104 122.685 88.0514C123.363 87.7886 124.111 87.7338 124.93 87.8867C125.459 87.9855 125.942 88.1643 126.379 88.4232C126.82 88.6791 127.189 89.0176 127.484 89.4388C127.783 89.8607 127.985 90.3648 128.091 90.951C128.198 91.5336 128.182 92.201 128.041 92.9531L127.926 93.5731L120.894 92.2599L121.148 90.8971L126.242 91.8483C126.311 91.4604 126.291 91.1003 126.184 90.7681C126.077 90.4322 125.893 90.1493 125.631 89.9193C125.373 89.6901 125.051 89.5393 124.664 89.467C124.25 89.3898 123.869 89.4225 123.518 89.5652C123.169 89.7041 122.876 89.9192 122.64 90.2105C122.409 90.4987 122.256 90.8343 122.181 91.2171L121.959 92.4067C121.865 92.9057 121.877 93.3509 121.992 93.7425C122.109 94.1303 122.313 94.4497 122.605 94.7008C122.898 94.9482 123.264 95.1129 123.704 95.1949C123.998 95.2499 124.272 95.2586 124.525 95.2212C124.78 95.1801 125.01 95.0939 125.215 94.9628C125.421 94.8316 125.591 94.6534 125.725 94.4281L127.574 94.9929C127.361 95.4696 127.053 95.8628 126.648 96.1726C126.248 96.4793 125.77 96.6867 125.214 96.7949C124.659 96.8993 124.048 96.8892 123.382 96.7648ZM128.938 97.6291L130.54 89.0501L132.501 89.4162L132.234 90.8461L132.323 90.8627C132.572 90.3967 132.911 90.0651 133.341 89.868C133.775 89.6678 134.238 89.6136 134.73 89.7054C134.842 89.7262 134.965 89.7551 135.101 89.792C135.241 89.8259 135.356 89.8608 135.446 89.8968L135.098 91.7567C135.018 91.7109 134.887 91.6595 134.705 91.6024C134.527 91.5422 134.353 91.4962 134.182 91.4642C133.813 91.3953 133.467 91.4135 133.143 91.5187C132.823 91.6208 132.553 91.7959 132.334 92.0439C132.114 92.2918 131.97 92.5983 131.902 92.9632L130.96 98.0067L128.938 97.6291ZM135.174 98.7936L136.776 90.2147L138.709 90.5756L138.437 92.0333L138.537 92.0521C138.808 91.594 139.175 91.2658 139.64 91.0674C140.105 90.8653 140.625 90.8178 141.198 90.9249C141.779 91.0334 142.242 91.2663 142.588 91.6237C142.938 91.9781 143.15 92.4126 143.223 92.9273L143.312 92.9439C143.591 92.5028 143.983 92.1828 144.486 91.984C144.994 91.7821 145.559 91.7392 146.18 91.8553C146.97 92.0028 147.567 92.3725 147.973 92.9647C148.379 93.5568 148.492 94.3313 148.314 95.2883L147.238 101.047L145.211 100.668L146.228 95.2224C146.327 94.6899 146.258 94.2744 146.021 93.9758C145.785 93.6735 145.462 93.4841 145.052 93.4076C144.565 93.3165 144.154 93.3979 143.822 93.6518C143.494 93.9026 143.284 94.27 143.194 94.7541L142.195 100.105L140.212 99.7345L141.245 94.2051C141.327 93.762 141.259 93.3832 141.041 93.0688C140.826 92.755 140.504 92.5582 140.076 92.4782C139.785 92.424 139.507 92.4491 139.241 92.5535C138.976 92.6542 138.747 92.8254 138.556 93.0671C138.365 93.305 138.236 93.6009 138.17 93.9546L137.196 99.1712L135.174 98.7936ZM151.726 102.064C151.182 101.962 150.711 101.774 150.311 101.499C149.916 101.221 149.628 100.867 149.446 100.436C149.268 100.006 149.232 99.5096 149.337 98.9474C149.427 98.4633 149.591 98.0797 149.829 97.7966C150.067 97.5135 150.358 97.3059 150.703 97.1737C151.047 97.0415 151.422 96.9631 151.828 96.9387C152.237 96.9111 152.655 96.914 153.08 96.9472C153.593 96.9889 154.009 97.0185 154.329 97.036C154.651 97.0497 154.89 97.0251 155.048 96.9622C155.211 96.8962 155.31 96.7664 155.347 96.5728L155.353 96.5393C155.431 96.1185 155.367 95.7694 155.161 95.492C154.955 95.2145 154.617 95.032 154.148 94.9444C153.653 94.8519 153.24 94.8865 152.909 95.0482C152.582 95.2106 152.341 95.4295 152.185 95.7049L150.347 95.0843C150.594 94.5908 150.921 94.201 151.329 93.915C151.737 93.6253 152.206 93.4391 152.733 93.3566C153.262 93.2703 153.826 93.2832 154.426 93.3952C154.839 93.4723 155.241 93.5976 155.633 93.7709C156.024 93.9442 156.369 94.1742 156.666 94.4609C156.964 94.7438 157.179 95.0944 157.313 95.5124C157.451 95.9311 157.466 96.4254 157.36 96.995L156.288 102.737L154.344 102.374L154.564 101.195L154.497 101.183C154.33 101.398 154.115 101.589 153.853 101.756C153.595 101.92 153.286 102.034 152.928 102.098C152.573 102.159 152.173 102.147 151.726 102.064ZM152.528 100.676C152.934 100.752 153.301 100.738 153.629 100.633C153.957 100.525 154.227 100.352 154.437 100.114C154.651 99.8762 154.787 99.5992 154.846 99.2827L155.035 98.2717C154.962 98.312 154.845 98.3403 154.684 98.3565C154.527 98.3733 154.352 98.3811 154.159 98.3799C153.967 98.3786 153.777 98.374 153.59 98.366C153.402 98.358 153.24 98.3507 153.102 98.3443C152.793 98.329 152.511 98.3456 152.255 98.3942C151.999 98.4427 151.787 98.5379 151.618 98.6798C151.45 98.8179 151.341 99.0173 151.292 99.2779C151.223 99.6503 151.306 99.9568 151.543 100.197C151.779 100.438 152.108 100.598 152.528 100.676ZM158.321 103.116L159.923 94.5374L161.883 94.9035L161.616 96.3334L161.706 96.35C161.955 95.884 162.294 95.5524 162.724 95.3553C163.158 95.1551 163.621 95.1009 164.113 95.1927C164.224 95.2135 164.348 95.2424 164.484 95.2793C164.624 95.3132 164.739 95.3481 164.828 95.3841L164.481 97.244C164.401 97.1982 164.27 97.1468 164.088 97.0897C163.91 97.0295 163.736 96.9835 163.564 96.9515C163.196 96.8826 162.849 96.9008 162.525 97.006C162.206 97.1081 161.936 97.2832 161.716 97.5312C161.497 97.7791 161.353 98.0856 161.285 98.4505L160.343 103.494L158.321 103.116ZM166.903 101.933L167.353 99.4913L167.677 99.5518L171.403 96.6814L173.766 97.1226L169.185 100.637L168.766 100.559L166.903 101.933ZM164.557 104.281L166.693 92.8423L168.715 93.2199L166.579 104.659L164.557 104.281ZM169.941 105.286L167.877 100.861L169.506 99.6911L172.359 105.738L169.941 105.286ZM176.925 106.764C176.065 106.603 175.355 106.286 174.796 105.812C174.242 105.334 173.859 104.735 173.647 104.013C173.435 103.288 173.414 102.477 173.581 101.579C173.746 100.697 174.058 99.9535 174.518 99.3496C174.982 98.7427 175.552 98.3097 176.228 98.0507C176.906 97.788 177.654 97.7331 178.473 97.8861C179.002 97.9848 179.485 98.1636 179.922 98.4225C180.363 98.6784 180.732 99.0169 181.027 99.4381C181.326 99.86 181.528 100.364 181.635 100.95C181.742 101.533 181.725 102.2 181.584 102.952L181.469 103.572L174.437 102.259L174.691 100.896L179.785 101.848C179.854 101.46 179.834 101.1 179.727 100.767C179.62 100.432 179.436 100.149 179.174 99.9187C178.916 99.6894 178.594 99.5387 178.207 99.4663C177.793 99.3891 177.412 99.4219 177.061 99.5645C176.712 99.7035 176.419 99.9186 176.184 100.21C175.952 100.498 175.799 100.834 175.724 101.216L175.502 102.406C175.409 102.905 175.42 103.35 175.535 103.742C175.652 104.13 175.856 104.449 176.148 104.7C176.441 104.948 176.807 105.112 177.247 105.194C177.541 105.249 177.815 105.258 178.068 105.221C178.323 105.179 178.553 105.093 178.758 104.962C178.964 104.831 179.134 104.653 179.269 104.427L181.117 104.992C180.904 105.469 180.596 105.862 180.191 106.172C179.791 106.479 179.313 106.686 178.757 106.794C178.202 106.899 177.591 106.889 176.925 106.764ZM188.367 99.8495L188.075 101.413L183.143 100.492L183.435 98.9285L188.367 99.8495ZM185.037 97.1005L187.059 97.4781L185.555 105.532C185.504 105.804 185.506 106.02 185.561 106.18C185.62 106.338 185.714 106.456 185.842 106.534C185.97 106.611 186.117 106.666 186.285 106.697C186.412 106.721 186.529 106.733 186.636 106.734C186.748 106.736 186.833 106.734 186.892 106.73L186.937 108.374C186.822 108.391 186.66 108.403 186.451 108.41C186.245 108.418 185.998 108.399 185.71 108.353C185.201 108.273 184.759 108.112 184.384 107.868C184.01 107.621 183.738 107.297 183.566 106.895C183.398 106.493 183.366 106.025 183.47 105.49L185.037 97.1005ZM40.8281 118.814L42.8308 108.09L46.7579 108.824C47.5189 108.966 48.1255 109.209 48.5778 109.554C49.0307 109.895 49.3413 110.301 49.5096 110.773C49.6785 111.242 49.7135 111.742 49.6144 112.272C49.5309 112.719 49.3785 113.081 49.1571 113.357C48.9363 113.631 48.6707 113.834 48.3604 113.967C48.0542 114.098 47.7292 114.175 47.3855 114.197L47.3659 114.302C47.7187 114.386 48.0445 114.566 48.3434 114.842C48.6464 115.115 48.8734 115.467 49.0244 115.896C49.1755 116.325 49.1992 116.817 49.0955 117.372C48.9932 117.92 48.7721 118.388 48.4323 118.776C48.0966 119.162 47.6379 119.432 47.0562 119.587C46.4752 119.738 45.7693 119.737 44.9385 119.582L40.8281 118.814ZM42.7052 117.728L45.0405 118.165C45.8155 118.309 46.3986 118.263 46.7898 118.025C47.1809 117.788 47.4186 117.444 47.5027 116.993C47.5659 116.655 47.5384 116.328 47.4202 116.013C47.3019 115.699 47.0996 115.428 46.8132 115.201C46.5304 114.975 46.1725 114.821 45.7396 114.74L43.3467 114.294L42.7052 117.728ZM43.5824 113.032L45.7501 113.436C46.1132 113.504 46.4526 113.495 46.7684 113.41C47.0877 113.325 47.3564 113.173 47.5744 112.953C47.7965 112.731 47.9398 112.447 48.0044 112.102C48.0872 111.658 48.0012 111.258 47.7466 110.899C47.492 110.541 47.0436 110.302 46.4012 110.182L44.1916 109.77L43.5824 113.032ZM56.0678 118.208L56.9469 113.501L58.5178 113.794L57.0157 121.837L55.4763 121.55L55.7364 120.157L55.6526 120.141C55.3874 120.536 55.0239 120.838 54.562 121.048C54.1043 121.255 53.5735 121.303 52.9696 121.19C52.4529 121.093 52.0168 120.894 51.6612 120.593C51.3098 120.289 51.0627 119.891 50.9199 119.398C50.7806 118.906 50.7729 118.328 50.8967 117.665L51.8521 112.549L53.4177 112.842L52.4975 117.769C52.3952 118.317 52.4655 118.782 52.7086 119.163C52.9517 119.545 53.3158 119.781 53.8011 119.871C54.0943 119.926 54.3994 119.907 54.7166 119.815C55.0372 119.723 55.3212 119.546 55.5686 119.285C55.8195 119.025 55.9859 118.666 56.0678 118.208ZM59.5458 125.431C59.3119 125.387 59.1025 125.328 58.9177 125.254C58.7322 125.183 58.5963 125.118 58.5098 125.058L59.1264 123.846C59.3983 123.976 59.647 124.057 59.8723 124.088C60.0977 124.119 60.3106 124.073 60.511 123.947C60.7148 123.823 60.9163 123.595 61.1155 123.264L61.409 122.766L59.9878 114.069L61.6634 114.382L62.5346 121.004L62.6184 121.019L65.8209 115.158L67.5017 115.472L62.4847 123.969C62.2529 124.359 61.9913 124.677 61.6998 124.923C61.4077 125.172 61.0838 125.339 60.7283 125.424C60.3728 125.509 59.9786 125.512 59.5458 125.431ZM71.3733 124.518L72.8753 116.476L74.441 116.768L72.939 124.811L71.3733 124.518ZM73.8978 115.382C73.6255 115.331 73.4086 115.197 73.247 114.979C73.0895 114.758 73.0346 114.52 73.0822 114.265C73.1304 114.007 73.2675 113.805 73.4934 113.659C73.7234 113.511 73.9746 113.462 74.2469 113.513C74.5191 113.564 74.734 113.7 74.8915 113.921C75.053 114.139 75.1097 114.377 75.0615 114.635C75.0139 114.89 74.8751 115.092 74.645 115.24C74.4191 115.386 74.17 115.433 73.8978 115.382ZM77.5026 120.721L76.6108 125.496L75.0452 125.204L76.5472 117.161L78.05 117.442L77.8055 118.751L77.905 118.77C78.1696 118.378 78.5232 118.09 78.9659 117.906C79.4121 117.722 79.9371 117.686 80.541 117.799C81.0891 117.901 81.5476 118.106 81.9164 118.413C82.286 118.717 82.5421 119.115 82.685 119.608C82.8278 120.101 82.8372 120.679 82.7134 121.342L81.758 126.458L80.1924 126.165L81.1125 121.238C81.2214 120.655 81.1546 120.171 80.9122 119.786C80.6705 119.398 80.2843 119.154 79.7537 119.055C79.3906 118.987 79.0531 119.006 78.741 119.11C78.4324 119.215 78.1677 119.404 77.9469 119.677C77.7303 119.947 77.5822 120.295 77.5026 120.721ZM86.6352 130.663C85.9964 130.544 85.4623 130.357 85.0328 130.104C84.6068 129.851 84.2747 129.559 84.0364 129.23C83.7982 128.9 83.6382 128.557 83.5563 128.202L85.0057 127.899C85.0712 128.07 85.1666 128.256 85.2917 128.456C85.4197 128.661 85.6084 128.849 85.8579 129.022C86.1109 129.196 86.4538 129.323 86.8866 129.404C87.48 129.515 87.9976 129.462 88.4391 129.244C88.8801 129.03 89.1592 128.609 89.2766 127.981L89.5719 126.4L89.4724 126.381C89.3462 126.535 89.1745 126.699 88.9574 126.876C88.7437 127.052 88.469 127.189 88.1331 127.285C87.7972 127.381 87.3832 127.384 86.891 127.292C86.2557 127.173 85.7109 126.918 85.2566 126.526C84.8065 126.131 84.4876 125.615 84.2997 124.976C84.116 124.335 84.104 123.587 84.2637 122.732C84.4235 121.876 84.7052 121.17 85.109 120.613C85.5164 120.057 86.0052 119.665 86.5754 119.435C87.1464 119.202 87.7547 119.146 88.4005 119.267C88.8997 119.36 89.2873 119.519 89.5632 119.744C89.8397 119.965 90.043 120.202 90.1729 120.454C90.3064 120.706 90.4046 120.925 90.4676 121.11L90.5828 121.132L90.8263 119.828L92.3605 120.114L90.8252 128.335C90.6961 129.026 90.4296 129.564 90.0257 129.947C89.6217 130.33 89.1258 130.577 88.538 130.688C87.9537 130.799 87.3194 130.791 86.6352 130.663ZM87.4791 126.058C87.9294 126.142 88.3294 126.108 88.6792 125.957C89.0332 125.802 89.3273 125.543 89.5615 125.179C89.7999 124.811 89.9709 124.35 90.0746 123.795C90.1756 123.254 90.1843 122.762 90.1007 122.321C90.017 121.879 89.8414 121.514 89.5737 121.225C89.3067 120.933 88.9446 120.745 88.4873 120.659C88.016 120.571 87.6005 120.62 87.2407 120.806C86.8815 120.988 86.5829 121.272 86.3447 121.657C86.1101 122.043 85.9448 122.493 85.849 123.006C85.7505 123.533 85.7444 124.011 85.8307 124.438C85.917 124.866 86.0963 125.221 86.3688 125.503C86.6447 125.786 87.0148 125.971 87.4791 126.058ZM92.9582 128.549L94.4602 120.507L95.9734 120.789L95.7348 122.067L95.8186 122.082C96.0461 121.677 96.3679 121.385 96.7842 121.206C97.2047 121.025 97.6506 120.978 98.1218 121.066C98.2196 121.084 98.3341 121.109 98.4654 121.141C98.6003 121.173 98.7051 121.202 98.78 121.227L98.5003 122.724C98.4407 122.695 98.3326 122.655 98.1759 122.604C98.0199 122.55 97.8616 122.507 97.701 122.477C97.331 122.408 96.9865 122.425 96.6674 122.528C96.3525 122.628 96.0855 122.801 95.8664 123.045C95.648 123.286 95.5062 123.581 95.441 123.93L94.5238 128.842L92.9582 128.549ZM101.765 130.362C100.973 130.214 100.322 129.917 99.8127 129.472C99.3076 129.023 98.9574 128.461 98.7621 127.785C98.571 127.107 98.5533 126.35 98.7091 125.516C98.863 124.692 99.1521 123.995 99.5767 123.424C100.005 122.853 100.529 122.444 101.15 122.195C101.774 121.947 102.46 121.892 103.207 122.032C103.661 122.116 104.087 122.274 104.485 122.503C104.882 122.733 105.221 123.04 105.499 123.424C105.778 123.809 105.967 124.276 106.067 124.825C106.167 125.372 106.149 126.009 106.013 126.739L105.909 127.294L99.5158 126.1L99.7348 124.927L104.594 125.835C104.671 125.423 104.655 125.042 104.547 124.693C104.439 124.341 104.251 124.044 103.982 123.802C103.716 123.561 103.381 123.403 102.976 123.327C102.536 123.245 102.132 123.281 101.763 123.437C101.399 123.589 101.096 123.821 100.853 124.134C100.615 124.443 100.458 124.798 100.383 125.2L100.212 126.116C100.111 126.654 100.12 127.129 100.238 127.541C100.36 127.954 100.573 128.292 100.878 128.555C101.184 128.814 101.565 128.986 102.022 129.072C102.319 129.127 102.598 129.136 102.858 129.098C103.118 129.056 103.353 128.966 103.563 128.828C103.773 128.691 103.949 128.505 104.09 128.271L105.522 128.815C105.322 129.229 105.038 129.572 104.669 129.842C104.305 130.11 103.875 130.292 103.381 130.387C102.89 130.48 102.352 130.472 101.765 130.362ZM109.965 131.888C109.315 131.767 108.767 131.493 108.319 131.066C107.876 130.636 107.567 130.085 107.392 129.413C107.222 128.739 107.218 127.967 107.381 127.097C107.543 126.228 107.827 125.512 108.232 124.948C108.64 124.385 109.13 123.987 109.701 123.754C110.272 123.521 110.88 123.465 111.526 123.585C112.025 123.679 112.411 123.837 112.683 124.062C112.96 124.283 113.162 124.519 113.288 124.771C113.418 125.022 113.514 125.241 113.577 125.426L113.672 125.444L114.416 121.459L115.981 121.751L113.979 132.475L112.45 132.19L112.684 130.938L112.553 130.914C112.426 131.067 112.254 131.237 112.035 131.424C111.819 131.611 111.542 131.758 111.205 131.865C110.867 131.972 110.453 131.979 109.965 131.888ZM110.56 130.617C111.01 130.701 111.413 130.654 111.768 130.474C112.127 130.292 112.426 130.003 112.667 129.607C112.91 129.212 113.085 128.732 113.19 128.166C113.295 127.608 113.306 127.104 113.223 126.655C113.141 126.206 112.966 125.836 112.699 125.544C112.432 125.252 112.07 125.063 111.613 124.978C111.142 124.89 110.726 124.939 110.366 125.124C110.006 125.31 109.707 125.599 109.467 125.992C109.231 126.385 109.064 126.846 108.965 127.377C108.864 127.915 108.854 128.413 108.935 128.872C109.015 129.332 109.189 129.716 109.456 130.026C109.728 130.334 110.095 130.531 110.56 130.617ZM116.213 132.892L117.715 124.85L119.281 125.142L117.779 133.185L116.213 132.892ZM118.738 123.756C118.465 123.705 118.249 123.571 118.087 123.353C117.93 123.132 117.875 122.894 117.922 122.639C117.97 122.381 118.107 122.179 118.333 122.033C118.563 121.885 118.815 121.836 119.087 121.887C119.359 121.938 119.574 122.074 119.731 122.295C119.893 122.513 119.95 122.751 119.901 123.009C119.854 123.264 119.715 123.466 119.485 123.614C119.259 123.76 119.01 123.807 118.738 123.756ZM123.321 134.388C122.529 134.24 121.878 133.943 121.369 133.497C120.864 133.049 120.513 132.487 120.318 131.811C120.127 131.132 120.109 130.376 120.265 129.542C120.419 128.718 120.708 128.02 121.133 127.449C121.561 126.879 122.085 126.469 122.706 126.221C123.33 125.972 124.016 125.918 124.763 126.057C125.217 126.142 125.643 126.299 126.041 126.529C126.438 126.759 126.777 127.066 127.055 127.45C127.334 127.834 127.523 128.301 127.623 128.851C127.723 129.397 127.705 130.035 127.569 130.765L127.465 131.32L121.072 130.126L121.291 128.953L126.15 129.86C126.227 129.448 126.211 129.068 126.103 128.719C125.995 128.367 125.807 128.069 125.538 127.828C125.272 127.587 124.937 127.428 124.532 127.353C124.092 127.271 123.688 127.307 123.32 127.462C122.955 127.615 122.652 127.847 122.409 128.159C122.171 128.469 122.014 128.824 121.939 129.226L121.768 130.142C121.667 130.68 121.676 131.154 121.794 131.567C121.916 131.979 122.129 132.317 122.434 132.58C122.74 132.84 123.121 133.012 123.578 133.097C123.875 133.153 124.154 133.161 124.414 133.123C124.674 133.082 124.91 132.992 125.119 132.854C125.329 132.716 125.505 132.531 125.646 132.297L127.078 132.841C126.878 133.255 126.594 133.597 126.225 133.868C125.861 134.136 125.431 134.318 124.937 134.413C124.446 134.506 123.908 134.497 123.321 134.388ZM130.997 130.711L130.105 135.487L128.539 135.194L130.041 127.151L131.544 127.432L131.3 128.741L131.399 128.76C131.664 128.368 132.017 128.08 132.46 127.896C132.906 127.712 133.431 127.676 134.035 127.789C134.583 127.891 135.042 128.096 135.411 128.403C135.78 128.707 136.036 129.106 136.179 129.598C136.322 130.091 136.331 130.669 136.207 131.332L135.252 136.448L133.686 136.156L134.607 131.228C134.716 130.645 134.649 130.161 134.406 129.777C134.165 129.388 133.778 129.144 133.248 129.045C132.885 128.978 132.547 128.996 132.235 129.1C131.926 129.205 131.662 129.394 131.441 129.667C131.224 129.937 131.076 130.285 130.997 130.711ZM142.608 129.498L142.373 130.755L137.98 129.935L138.215 128.678L142.608 129.498ZM139.753 126.971L141.319 127.263L139.898 134.872C139.841 135.175 139.844 135.412 139.906 135.583C139.969 135.75 140.066 135.875 140.199 135.957C140.336 136.037 140.49 136.093 140.661 136.125C140.786 136.148 140.898 136.16 140.996 136.16C141.093 136.161 141.169 136.16 141.223 136.16L141.264 137.506C141.167 137.524 141.032 137.534 140.857 137.538C140.683 137.545 140.469 137.527 140.217 137.484C139.804 137.414 139.434 137.269 139.106 137.048C138.779 136.828 138.535 136.537 138.375 136.175C138.216 135.813 138.181 135.389 138.271 134.904L139.753 126.971ZM149.871 132.887L148.405 132.873C148.379 132.68 148.317 132.49 148.219 132.302C148.124 132.114 147.978 131.948 147.781 131.803C147.584 131.658 147.323 131.555 146.999 131.494C146.555 131.411 146.167 131.442 145.833 131.585C145.499 131.725 145.304 131.951 145.246 132.261C145.196 132.53 145.255 132.765 145.423 132.966C145.591 133.168 145.887 133.362 146.311 133.55L147.534 134.081C148.242 134.391 148.745 134.757 149.041 135.181C149.338 135.605 149.433 136.101 149.326 136.67C149.237 137.152 149.017 137.555 148.667 137.88C148.322 138.202 147.881 138.423 147.346 138.544C146.814 138.665 146.223 138.665 145.574 138.543C144.673 138.375 143.974 138.046 143.477 137.556C142.98 137.062 142.734 136.447 142.738 135.711L144.294 135.763C144.314 136.175 144.452 136.51 144.708 136.767C144.964 137.021 145.328 137.192 145.799 137.28C146.312 137.375 146.742 137.346 147.089 137.19C147.437 137.031 147.639 136.796 147.697 136.485C147.744 136.234 147.69 136.005 147.533 135.799C147.38 135.593 147.12 135.411 146.752 135.252L145.446 134.699C144.728 134.388 144.223 134.012 143.934 133.572C143.647 133.132 143.558 132.625 143.665 132.053C143.753 131.578 143.963 131.187 144.295 130.881C144.627 130.574 145.045 130.365 145.55 130.254C146.056 130.139 146.611 130.137 147.215 130.25C148.084 130.413 148.733 130.729 149.162 131.199C149.591 131.666 149.827 132.228 149.871 132.887ZM159.846 132.718L159.611 133.974L155.066 133.125L155.301 131.869L159.846 132.718ZM155.045 140.144L156.721 131.169C156.815 130.667 157.003 130.27 157.284 129.98C157.567 129.686 157.905 129.49 158.299 129.394C158.693 129.294 159.103 129.284 159.529 129.364C159.843 129.422 160.107 129.499 160.321 129.593C160.535 129.684 160.692 129.76 160.793 129.822L160.19 131.021C160.12 130.986 160.031 130.944 159.921 130.895C159.811 130.842 159.675 130.8 159.51 130.769C159.13 130.698 158.84 130.742 158.641 130.899C158.445 131.058 158.314 131.315 158.247 131.671L156.61 140.437L155.045 140.144ZM163 141.798C162.246 141.657 161.62 141.361 161.122 140.911C160.625 140.46 160.279 139.895 160.084 139.216C159.89 138.537 159.87 137.781 160.025 136.951C160.181 136.116 160.472 135.416 160.9 134.849C161.327 134.282 161.854 133.878 162.481 133.638C163.107 133.397 163.798 133.347 164.552 133.488C165.306 133.629 165.931 133.925 166.429 134.375C166.926 134.826 167.272 135.392 167.466 136.075C167.66 136.758 167.679 137.517 167.523 138.351C167.368 139.182 167.077 139.879 166.65 140.442C166.224 141.005 165.697 141.407 165.071 141.648C164.444 141.889 163.754 141.939 163 141.798ZM163.25 140.485C163.739 140.576 164.168 140.522 164.538 140.324C164.907 140.126 165.208 139.826 165.442 139.425C165.68 139.025 165.846 138.567 165.943 138.05C166.039 137.537 166.048 137.051 165.971 136.593C165.899 136.131 165.726 135.739 165.454 135.418C165.182 135.096 164.801 134.889 164.312 134.798C163.82 134.706 163.387 134.761 163.014 134.962C162.644 135.164 162.34 135.466 162.102 135.87C161.868 136.271 161.703 136.728 161.607 137.241C161.511 137.757 161.499 138.245 161.573 138.703C161.65 139.161 161.825 139.55 162.097 139.868C162.374 140.187 162.758 140.393 163.25 140.485ZM168.527 142.662L170.029 134.619L171.542 134.902L171.303 136.179L171.387 136.195C171.615 135.79 171.936 135.498 172.353 135.319C172.773 135.137 173.219 135.09 173.69 135.178C173.788 135.197 173.903 135.222 174.034 135.253C174.169 135.286 174.274 135.314 174.348 135.339L174.069 136.837C174.009 136.808 173.901 136.768 173.744 136.717C173.588 136.662 173.43 136.62 173.27 136.59C172.9 136.521 172.555 136.538 172.236 136.641C171.921 136.741 171.654 136.913 171.435 137.158C171.217 137.399 171.075 137.694 171.01 138.043L170.092 142.954L168.527 142.662ZM181.445 145.243C180.667 145.097 180.03 144.796 179.533 144.338C179.041 143.878 178.704 143.307 178.52 142.626C178.337 141.945 178.32 141.202 178.471 140.395C178.623 139.579 178.912 138.886 179.335 138.319C179.76 137.748 180.284 137.338 180.909 137.09C181.533 136.842 182.224 136.788 182.982 136.93C183.592 137.044 184.116 137.259 184.552 137.575C184.988 137.888 185.315 138.274 185.533 138.734C185.754 139.194 185.842 139.7 185.797 140.252L184.273 139.967C184.26 139.575 184.128 139.214 183.879 138.886C183.633 138.558 183.261 138.348 182.761 138.254C182.325 138.173 181.921 138.217 181.55 138.386C181.183 138.552 180.869 138.829 180.609 139.218C180.349 139.603 180.166 140.082 180.059 140.654C179.949 141.241 179.944 141.763 180.042 142.222C180.141 142.682 180.331 143.058 180.612 143.353C180.896 143.648 181.26 143.837 181.703 143.92C182 143.975 182.279 143.971 182.54 143.908C182.805 143.842 183.039 143.721 183.242 143.546C183.448 143.371 183.611 143.145 183.731 142.868L185.255 143.153C185.102 143.662 184.846 144.095 184.487 144.451C184.128 144.806 183.689 145.057 183.171 145.202C182.656 145.348 182.081 145.361 181.445 145.243ZM188.911 141.527L188.02 146.302L186.454 146.01L188.457 135.286L190.001 135.575L189.256 139.565L189.356 139.583C189.625 139.186 189.977 138.896 190.412 138.713C190.847 138.531 191.377 138.498 192.002 138.615C192.554 138.718 193.014 138.921 193.384 139.225C193.757 139.529 194.015 139.928 194.158 140.421C194.305 140.91 194.315 141.49 194.19 142.161L193.235 147.276L191.669 146.984L192.589 142.057C192.7 141.467 192.633 140.981 192.39 140.6C192.148 140.215 191.756 139.972 191.215 139.871C190.845 139.802 190.499 139.818 190.176 139.921C189.857 140.024 189.585 140.211 189.361 140.484C189.141 140.753 188.991 141.101 188.911 141.527ZM198.76 148.476C197.968 148.328 197.317 148.031 196.808 147.586C196.303 147.138 195.952 146.575 195.757 145.9C195.566 145.221 195.548 144.464 195.704 143.63C195.858 142.806 196.147 142.109 196.572 141.538C197 140.968 197.524 140.558 198.145 140.309C198.769 140.061 199.455 140.006 200.202 140.146C200.656 140.231 201.082 140.388 201.48 140.617C201.877 140.847 202.216 141.154 202.494 141.538C202.773 141.923 202.962 142.39 203.062 142.94C203.162 143.486 203.144 144.124 203.008 144.853L202.904 145.408L196.511 144.214L196.73 143.041L201.589 143.949C201.666 143.537 201.65 143.156 201.542 142.807C201.434 142.455 201.246 142.158 200.977 141.916C200.711 141.675 200.376 141.517 199.971 141.441C199.531 141.359 199.127 141.396 198.758 141.551C198.394 141.703 198.091 141.935 197.848 142.248C197.61 142.557 197.453 142.913 197.378 143.314L197.207 144.23C197.106 144.768 197.115 145.243 197.233 145.655C197.355 146.068 197.568 146.406 197.873 146.669C198.179 146.928 198.56 147.1 199.017 147.186C199.314 147.241 199.592 147.25 199.852 147.212C200.113 147.17 200.348 147.08 200.558 146.943C200.768 146.805 200.944 146.619 201.085 146.385L202.517 146.929C202.317 147.343 202.033 147.686 201.664 147.956C201.3 148.224 200.87 148.406 200.376 148.502C199.885 148.594 199.347 148.586 198.76 148.476ZM207.414 150.092C206.622 149.944 205.971 149.648 205.462 149.202C204.957 148.754 204.606 148.192 204.411 147.516C204.22 146.837 204.202 146.081 204.358 145.246C204.512 144.422 204.801 143.725 205.226 143.154C205.654 142.584 206.178 142.174 206.799 141.925C207.423 141.677 208.109 141.623 208.856 141.762C209.31 141.847 209.736 142.004 210.134 142.234C210.531 142.463 210.87 142.77 211.148 143.155C211.427 143.539 211.616 144.006 211.716 144.556C211.816 145.102 211.798 145.74 211.662 146.469L211.558 147.024L205.165 145.83L205.384 144.657L210.243 145.565C210.32 145.153 210.304 144.773 210.196 144.424C210.088 144.071 209.9 143.774 209.631 143.532C209.365 143.291 209.03 143.133 208.625 143.057C208.185 142.975 207.781 143.012 207.413 143.167C207.048 143.319 206.745 143.551 206.502 143.864C206.264 144.173 206.107 144.529 206.032 144.93L205.861 145.847C205.76 146.384 205.769 146.859 205.887 147.271C206.009 147.684 206.222 148.022 206.527 148.285C206.833 148.544 207.214 148.717 207.671 148.802C207.968 148.857 208.247 148.866 208.507 148.828C208.767 148.786 209.003 148.697 209.212 148.559C209.422 148.421 209.598 148.235 209.739 148.001L211.171 148.545C210.971 148.959 210.687 149.302 210.318 149.573C209.954 149.841 209.524 150.022 209.03 150.118C208.539 150.21 208.001 150.202 207.414 150.092ZM219.794 145.945L218.328 145.932C218.303 145.739 218.241 145.549 218.143 145.36C218.048 145.173 217.902 145.006 217.705 144.861C217.508 144.716 217.247 144.613 216.922 144.553C216.479 144.47 216.09 144.5 215.757 144.644C215.423 144.784 215.228 145.009 215.17 145.32C215.12 145.589 215.179 145.824 215.347 146.025C215.515 146.226 215.811 146.421 216.235 146.608L217.458 147.14C218.166 147.449 218.668 147.816 218.965 148.24C219.262 148.663 219.357 149.16 219.25 149.729C219.16 150.211 218.941 150.614 218.591 150.939C218.245 151.261 217.805 151.482 217.269 151.602C216.737 151.723 216.147 151.723 215.498 151.602C214.597 151.434 213.898 151.105 213.401 150.614C212.904 150.121 212.658 149.506 212.662 148.769L214.218 148.822C214.238 149.234 214.376 149.568 214.632 149.825C214.888 150.079 215.252 150.25 215.723 150.338C216.236 150.434 216.666 150.404 217.013 150.249C217.361 150.089 217.563 149.855 217.621 149.544C217.668 149.293 217.613 149.064 217.457 148.858C217.304 148.652 217.043 148.47 216.676 148.311L215.37 147.758C214.652 147.447 214.147 147.071 213.858 146.63C213.571 146.19 213.482 145.684 213.588 145.111C213.677 144.637 213.887 144.246 214.219 143.939C214.551 143.633 214.969 143.424 215.474 143.312C215.98 143.197 216.535 143.196 217.138 143.309C218.008 143.471 218.657 143.787 219.085 144.258C219.515 144.724 219.751 145.287 219.794 145.945ZM223.974 153.185C223.181 153.037 222.53 152.74 222.021 152.295C221.516 151.846 221.166 151.284 220.971 150.608C220.779 149.93 220.762 149.173 220.918 148.339C221.071 147.515 221.361 146.818 221.785 146.247C222.213 145.676 222.738 145.267 223.358 145.018C223.983 144.769 224.669 144.715 225.416 144.855C225.869 144.939 226.295 145.097 226.693 145.326C227.091 145.556 227.429 145.863 227.708 146.247C227.986 146.632 228.176 147.099 228.275 147.648C228.375 148.194 228.357 148.832 228.221 149.562L228.118 150.117L221.724 148.923L221.943 147.75L226.802 148.657C226.879 148.246 226.864 147.865 226.755 147.516C226.648 147.164 226.46 146.867 226.19 146.625C225.925 146.384 225.589 146.225 225.185 146.15C224.745 146.068 224.34 146.104 223.972 146.259C223.608 146.412 223.304 146.644 223.061 146.956C222.823 147.266 222.666 147.621 222.591 148.023L222.42 148.939C222.32 149.477 222.329 149.952 222.447 150.364C222.568 150.777 222.782 151.114 223.087 151.377C223.392 151.637 223.774 151.809 224.231 151.895C224.528 151.95 224.806 151.959 225.066 151.92C225.327 151.879 225.562 151.789 225.772 151.651C225.982 151.513 226.157 151.328 226.299 151.094L227.731 151.638C227.53 152.052 227.246 152.394 226.878 152.665C226.513 152.933 226.084 153.115 225.589 153.21C225.099 153.303 224.56 153.294 223.974 153.185ZM232.549 154.786C231.771 154.641 231.133 154.34 230.637 153.882C230.145 153.422 229.807 152.851 229.624 152.17C229.44 151.489 229.424 150.746 229.575 149.939C229.727 149.122 230.015 148.43 230.439 147.863C230.864 147.292 231.388 146.882 232.013 146.634C232.637 146.386 233.328 146.332 234.085 146.474C234.696 146.588 235.22 146.803 235.655 147.119C236.092 147.432 236.419 147.818 236.637 148.278C236.858 148.738 236.946 149.244 236.901 149.796L235.377 149.511C235.363 149.118 235.232 148.758 234.983 148.429C234.737 148.102 234.364 147.891 233.865 147.798C233.429 147.717 233.025 147.76 232.654 147.93C232.287 148.096 231.973 148.373 231.713 148.762C231.453 149.147 231.27 149.625 231.163 150.198C231.053 150.784 231.048 151.307 231.146 151.766C231.245 152.225 231.434 152.602 231.715 152.897C232 153.192 232.364 153.381 232.807 153.464C233.104 153.519 233.383 153.515 233.644 153.452C233.909 153.386 234.143 153.265 234.345 153.09C234.551 152.915 234.715 152.689 234.835 152.412L236.359 152.696C236.206 153.206 235.95 153.639 235.591 153.994C235.232 154.35 234.793 154.6 234.275 154.746C233.76 154.891 233.185 154.905 232.549 154.786ZM239.865 156.169C239.355 156.074 238.912 155.893 238.536 155.628C238.16 155.359 237.885 155.021 237.712 154.613C237.542 154.205 237.507 153.738 237.605 153.211C237.69 152.757 237.847 152.4 238.076 152.139C238.306 151.879 238.585 151.69 238.913 151.575C239.242 151.459 239.598 151.392 239.98 151.373C240.363 151.354 240.749 151.358 241.138 151.383C241.63 151.418 242.03 151.445 242.336 151.466C242.644 151.484 242.873 151.464 243.025 151.405C243.177 151.347 243.27 151.224 243.306 151.035L243.313 150.998C243.398 150.541 243.335 150.163 243.124 149.863C242.916 149.564 242.559 149.367 242.052 149.273C241.525 149.174 241.088 149.214 240.741 149.391C240.398 149.565 240.142 149.783 239.974 150.044L238.565 149.434C238.831 148.978 239.159 148.631 239.551 148.394C239.946 148.153 240.376 148.006 240.841 147.952C241.307 147.895 241.783 147.911 242.268 148.002C242.589 148.062 242.923 148.164 243.268 148.308C243.617 148.449 243.93 148.648 244.207 148.906C244.488 149.164 244.695 149.497 244.828 149.905C244.962 150.309 244.974 150.805 244.865 151.391L243.867 156.732L242.338 156.447L242.544 155.347L242.481 155.335C242.342 155.519 242.153 155.689 241.914 155.847C241.675 156.005 241.385 156.119 241.043 156.188C240.701 156.258 240.308 156.252 239.865 156.169ZM240.44 154.976C240.873 155.057 241.259 155.04 241.598 154.927C241.941 154.814 242.218 154.634 242.43 154.388C242.646 154.14 242.784 153.857 242.844 153.539L243.037 152.502C242.971 152.548 242.853 152.58 242.683 152.599C242.518 152.615 242.33 152.621 242.121 152.618C241.913 152.612 241.71 152.605 241.513 152.597C241.316 152.585 241.152 152.576 241.02 152.57C240.709 152.551 240.419 152.564 240.151 152.608C239.886 152.652 239.663 152.746 239.481 152.889C239.303 153.029 239.188 153.239 239.135 153.518C239.063 153.906 239.151 154.226 239.401 154.478C239.65 154.727 239.997 154.893 240.44 154.976ZM247.902 154.662L248.249 152.749L248.521 152.8L252.361 149.995L254.236 150.345L249.857 153.537L249.611 153.491L247.902 154.662ZM245.953 157.122L247.955 146.398L249.521 146.69L247.518 157.414L245.953 157.122ZM251.032 158.07L248.866 153.71L250.149 152.817L252.953 158.429L251.032 158.07ZM257.265 159.402C256.473 159.254 255.822 158.957 255.313 158.512C254.808 158.064 254.457 157.501 254.262 156.826C254.071 156.147 254.053 155.39 254.209 154.556C254.363 153.732 254.652 153.035 255.077 152.464C255.505 151.894 256.029 151.484 256.65 151.235C257.274 150.987 257.96 150.932 258.707 151.072C259.161 151.157 259.587 151.314 259.985 151.543C260.382 151.773 260.721 152.08 260.999 152.464C261.278 152.849 261.467 153.316 261.567 153.866C261.667 154.412 261.649 155.05 261.513 155.779L261.409 156.334L255.016 155.14L255.235 153.967L260.094 154.875C260.171 154.463 260.155 154.082 260.047 153.733C259.94 153.381 259.751 153.084 259.482 152.842C259.216 152.601 258.881 152.443 258.476 152.367C258.036 152.285 257.632 152.322 257.264 152.477C256.899 152.629 256.596 152.861 256.353 153.174C256.115 153.483 255.958 153.839 255.883 154.24L255.712 155.156C255.611 155.694 255.62 156.169 255.738 156.581C255.86 156.994 256.073 157.332 256.378 157.595C256.684 157.854 257.065 158.026 257.522 158.112C257.819 158.167 258.098 158.176 258.358 158.138C258.618 158.096 258.854 158.006 259.064 157.869C259.273 157.731 259.449 157.545 259.59 157.311L261.022 157.855C260.822 158.269 260.538 158.612 260.169 158.882C259.805 159.15 259.375 159.332 258.881 159.428C258.39 159.52 257.852 159.512 257.265 159.402Z" fill="black"/>
</g>
<defs>
<filter id="filter0_d_47_16" x="0.664062" y="1.66405" width="297.684" height="212.192" filterUnits="userSpaceOnUse" color-interpolation-filters="sRGB">
<feFlood flood-opacity="0" result="BackgroundImageFix"/>
<feColorMatrix in="SourceAlpha" type="matrix" values="0 0 0 0 0 0 0 0 0 0 0 0 0 0 0 0 0 0 127 0" result="hardAlpha"/>
<feOffset dy="4"/>
<feGaussianBlur stdDeviation="2"/>
<feComposite in2="hardAlpha" operator="out"/>
<feColorMatrix type="matrix" values="0 0 0 0 0 0 0 0 0 0 0 0 0 0 0 0 0 0 0.25 0"/>
<feBlend mode="normal" in2="BackgroundImageFix" result="effect1_dropShadow_47_16"/>
<feBlend mode="normal" in="SourceGraphic" in2="effect1_dropShadow_47_16" result="shape"/>
</filter>
</defs>
</svg>
