<svg width="211" height="295" viewBox="0 0 211 295" fill="none" xmlns="http://www.w3.org/2000/svg">
<g filter="url(#filter0_d_72_2)">
<mask id="path-1-inside-1_72_2" fill="white">
<path d="M-242.601 155.421C-244.478 150.227 -241.789 144.494 -236.596 142.617L148.544 3.39944C153.738 1.52197 159.471 4.21051 161.348 9.40444L206.321 133.82C208.199 139.014 205.51 144.747 200.316 146.624L-184.824 285.842C-190.018 287.719 -195.75 285.031 -197.628 279.837L-242.601 155.421Z"/>
</mask>
<path d="M-242.601 155.421C-244.478 150.227 -241.789 144.494 -236.596 142.617L148.544 3.39944C153.738 1.52197 159.471 4.21051 161.348 9.40444L206.321 133.82C208.199 139.014 205.51 144.747 200.316 146.624L-184.824 285.842C-190.018 287.719 -195.75 285.031 -197.628 279.837L-242.601 155.421Z" fill="white"/>
<path d="M-242.601 155.421C-247.294 142.436 -240.573 128.105 -227.588 123.411L129.338 -5.60806C142.323 -10.3017 156.654 -3.5804 161.348 9.40444L163.048 14.1067C163.048 14.1067 158.837 15.6287 153.643 17.5061L-231.496 156.724C-236.69 158.601 -240.901 160.123 -240.901 160.123L-242.601 155.421ZM209.721 143.225L-194.228 289.241L209.721 143.225ZM-194.228 289.241L-246 146.016L-194.228 289.241ZM157.949 -1.03117e-05L209.721 143.225L157.949 -1.03117e-05Z" fill="#FF002E" mask="url(#path-1-inside-1_72_2)"/>
<path d="M-213.362 175.675C-214.067 175.93 -214.736 175.955 -215.37 175.751C-216.006 175.544 -216.587 175.121 -217.113 174.483C-217.641 173.842 -218.093 173.001 -218.469 171.96C-218.843 170.925 -219.032 169.994 -219.035 169.167C-219.036 168.336 -218.858 167.637 -218.503 167.071C-218.145 166.502 -217.617 166.09 -216.918 165.838C-216.22 165.586 -215.553 165.565 -214.916 165.775C-214.278 165.981 -213.695 166.405 -213.167 167.046C-212.637 167.683 -212.186 168.518 -211.811 169.553C-211.435 170.594 -211.245 171.53 -211.241 172.36C-211.238 173.187 -211.414 173.884 -211.77 174.45C-212.127 175.012 -212.658 175.421 -213.362 175.675ZM-213.734 174.647C-213.036 174.394 -212.615 173.862 -212.472 173.049C-212.329 172.236 -212.483 171.206 -212.934 169.959C-213.233 169.13 -213.577 168.456 -213.966 167.937C-214.351 167.417 -214.764 167.065 -215.205 166.879C-215.642 166.691 -216.092 166.681 -216.553 166.848C-217.245 167.098 -217.663 167.635 -217.806 168.458C-217.95 169.279 -217.797 170.311 -217.347 171.554C-217.048 172.383 -216.706 173.056 -216.322 173.573C-215.937 174.09 -215.527 174.44 -215.09 174.624C-214.651 174.807 -214.199 174.815 -213.734 174.647ZM-208.764 162.891C-208.37 162.752 -207.951 162.685 -207.505 162.689C-207.059 162.694 -206.613 162.807 -206.166 163.03C-205.72 163.249 -205.294 163.615 -204.887 164.127C-204.479 164.639 -204.117 165.334 -203.799 166.213C-203.492 167.064 -203.3 167.849 -203.223 168.569C-203.144 169.284 -203.174 169.922 -203.313 170.483C-203.449 171.043 -203.69 171.518 -204.035 171.907C-204.378 172.295 -204.819 172.587 -205.358 172.782C-205.894 172.976 -206.411 173.043 -206.908 172.983C-207.404 172.919 -207.854 172.745 -208.26 172.462C-208.663 172.174 -208.994 171.791 -209.251 171.313L-208.11 170.901C-207.848 171.303 -207.513 171.593 -207.104 171.769C-206.693 171.941 -206.235 171.936 -205.73 171.753C-204.991 171.486 -204.525 170.953 -204.331 170.153C-204.134 169.353 -204.249 168.363 -204.674 167.185L-204.749 167.212C-204.829 167.537 -204.955 167.838 -205.126 168.115C-205.297 168.392 -205.511 168.634 -205.767 168.843C-206.023 169.052 -206.316 169.216 -206.646 169.336C-207.195 169.534 -207.747 169.58 -208.303 169.475C-208.858 169.365 -209.358 169.121 -209.805 168.743C-210.249 168.361 -210.583 167.862 -210.806 167.245C-211.018 166.659 -211.081 166.075 -210.995 165.494C-210.907 164.909 -210.677 164.385 -210.305 163.923C-209.929 163.46 -209.416 163.116 -208.764 162.891ZM-208.392 163.919C-208.785 164.061 -209.104 164.287 -209.347 164.597C-209.589 164.903 -209.742 165.255 -209.807 165.652C-209.869 166.044 -209.828 166.44 -209.684 166.839C-209.54 167.238 -209.321 167.57 -209.029 167.834C-208.734 168.094 -208.399 168.265 -208.023 168.348C-207.646 168.426 -207.261 168.395 -206.868 168.253C-206.572 168.146 -206.317 167.988 -206.103 167.781C-205.89 167.57 -205.726 167.329 -205.609 167.057C-205.49 166.782 -205.423 166.495 -205.407 166.197C-205.393 165.896 -205.437 165.603 -205.539 165.319C-205.674 164.945 -205.891 164.627 -206.191 164.366C-206.487 164.102 -206.829 163.927 -207.217 163.838C-207.602 163.748 -207.993 163.775 -208.392 163.919ZM-199.708 169.207C-199.939 169.29 -200.166 169.279 -200.391 169.173C-200.616 169.068 -200.77 168.9 -200.854 168.669C-200.937 168.438 -200.926 168.211 -200.821 167.986C-200.715 167.761 -200.547 167.607 -200.316 167.523C-200.086 167.44 -199.858 167.451 -199.633 167.556C-199.408 167.662 -199.254 167.83 -199.171 168.061C-199.115 168.213 -199.104 168.368 -199.135 168.524C-199.164 168.679 -199.228 168.818 -199.328 168.942C-199.425 169.062 -199.552 169.15 -199.708 169.207ZM-201.459 164.363C-201.69 164.446 -201.917 164.435 -202.142 164.33C-202.367 164.224 -202.521 164.056 -202.605 163.825C-202.688 163.595 -202.677 163.367 -202.572 163.142C-202.466 162.917 -202.298 162.763 -202.067 162.679C-201.837 162.596 -201.609 162.607 -201.384 162.713C-201.159 162.818 -201.005 162.986 -200.922 163.217C-200.866 163.37 -200.855 163.524 -200.886 163.68C-200.915 163.835 -200.979 163.974 -201.079 164.098C-201.176 164.218 -201.303 164.306 -201.459 164.363ZM-193.292 168.42C-193.996 168.675 -194.665 168.7 -195.3 168.496C-195.935 168.288 -196.516 167.866 -197.043 167.228C-197.57 166.587 -198.022 165.746 -198.399 164.705C-198.773 163.67 -198.961 162.739 -198.964 161.912C-198.965 161.081 -198.788 160.382 -198.432 159.816C-198.074 159.246 -197.546 158.835 -196.848 158.583C-196.149 158.331 -195.482 158.31 -194.846 158.52C-194.207 158.726 -193.624 159.15 -193.096 159.791C-192.567 160.428 -192.115 161.263 -191.741 162.298C-191.364 163.339 -191.174 164.275 -191.17 165.105C-191.167 165.932 -191.344 166.629 -191.699 167.194C-192.057 167.757 -192.587 168.166 -193.292 168.42ZM-193.663 167.392C-192.965 167.139 -192.545 166.607 -192.401 165.794C-192.258 164.981 -192.412 163.951 -192.863 162.704C-193.163 161.875 -193.507 161.201 -193.895 160.682C-194.28 160.162 -194.693 159.81 -195.134 159.623C-195.572 159.436 -196.021 159.426 -196.483 159.593C-197.175 159.843 -197.592 160.38 -197.735 161.203C-197.879 162.024 -197.726 163.056 -197.276 164.299C-196.977 165.128 -196.635 165.801 -196.251 166.318C-195.867 166.835 -195.456 167.185 -195.02 167.369C-194.58 167.552 -194.128 167.56 -193.663 167.392ZM-185.063 165.446C-185.767 165.7 -186.437 165.726 -187.071 165.521C-187.706 165.314 -188.287 164.891 -188.814 164.253C-189.341 163.613 -189.793 162.771 -190.17 161.73C-190.544 160.696 -190.732 159.765 -190.735 158.937C-190.736 158.106 -190.559 157.408 -190.203 156.842C-189.845 156.272 -189.317 155.861 -188.619 155.608C-187.92 155.356 -187.253 155.335 -186.617 155.546C-185.978 155.752 -185.395 156.175 -184.867 156.816C-184.338 157.453 -183.886 158.289 -183.512 159.324C-183.135 160.365 -182.945 161.301 -182.941 162.131C-182.938 162.958 -183.115 163.654 -183.471 164.22C-183.828 164.782 -184.358 165.191 -185.063 165.446ZM-185.435 164.417C-184.736 164.165 -184.316 163.632 -184.173 162.819C-184.029 162.006 -184.183 160.976 -184.634 159.729C-184.934 158.9 -185.278 158.226 -185.666 157.708C-186.051 157.188 -186.464 156.835 -186.905 156.649C-187.343 156.462 -187.792 156.452 -188.254 156.618C-188.946 156.868 -189.363 157.405 -189.506 158.229C-189.65 159.049 -189.497 160.081 -189.048 161.325C-188.748 162.154 -188.406 162.827 -188.022 163.343C-187.638 163.86 -187.227 164.211 -186.791 164.395C-186.351 164.577 -185.899 164.585 -185.435 164.417ZM-174.085 155.335L-173.713 156.363L-177.902 157.878L-178.274 156.849L-174.085 155.335ZM-166.637 147.811L-163.176 157.386L-164.336 157.805L-167.357 149.446L-167.414 149.466L-169.19 151.863L-169.616 150.685L-167.797 148.23L-166.637 147.811ZM-160.422 156.391L-160.726 155.549L-158.816 150.947C-158.592 150.408 -158.414 149.945 -158.282 149.559C-158.151 149.17 -158.076 148.822 -158.057 148.515C-158.035 148.204 -158.077 147.903 -158.183 147.61C-158.305 147.273 -158.491 147.011 -158.742 146.823C-158.99 146.634 -159.277 146.523 -159.603 146.489C-159.929 146.456 -160.265 146.501 -160.611 146.626C-160.979 146.759 -161.272 146.952 -161.491 147.204C-161.708 147.451 -161.843 147.738 -161.894 148.063C-161.943 148.387 -161.901 148.731 -161.769 149.096L-162.873 149.495C-163.075 148.934 -163.124 148.395 -163.019 147.877C-162.913 147.36 -162.68 146.902 -162.32 146.504C-161.957 146.105 -161.496 145.805 -160.939 145.603C-160.377 145.4 -159.837 145.339 -159.319 145.419C-158.8 145.499 -158.344 145.696 -157.953 146.009C-157.561 146.322 -157.276 146.725 -157.098 147.217C-156.971 147.57 -156.911 147.937 -156.917 148.32C-156.921 148.699 -157.004 149.15 -157.167 149.674C-157.328 150.194 -157.577 150.848 -157.912 151.635L-159.231 154.713L-159.204 154.788L-154.753 153.179L-154.381 154.207L-160.422 156.391ZM-152.07 151.987C-152.301 152.07 -152.529 152.059 -152.754 151.954C-152.979 151.848 -153.133 151.68 -153.216 151.449C-153.3 151.219 -153.289 150.991 -153.183 150.766C-153.078 150.541 -152.91 150.387 -152.679 150.304C-152.448 150.22 -152.22 150.231 -151.995 150.337C-151.771 150.442 -151.616 150.61 -151.533 150.841C-151.478 150.994 -151.466 151.148 -151.498 151.304C-151.526 151.459 -151.591 151.598 -151.69 151.723C-151.788 151.842 -151.915 151.93 -152.07 151.987ZM-153.821 147.143C-154.052 147.226 -154.28 147.215 -154.505 147.11C-154.73 147.004 -154.884 146.836 -154.967 146.606C-155.051 146.375 -155.039 146.147 -154.934 145.922C-154.828 145.697 -154.66 145.543 -154.43 145.46C-154.199 145.376 -153.971 145.387 -153.746 145.493C-153.521 145.598 -153.367 145.767 -153.284 145.997C-153.229 146.15 -153.217 146.304 -153.249 146.46C-153.277 146.615 -153.341 146.755 -153.441 146.879C-153.539 146.999 -153.665 147.087 -153.821 147.143ZM-145.654 151.201C-146.359 151.455 -147.028 151.48 -147.662 151.276C-148.297 151.069 -148.878 150.646 -149.405 150.008C-149.933 149.367 -150.385 148.526 -150.761 147.485C-151.135 146.45 -151.324 145.519 -151.327 144.692C-151.327 143.861 -151.15 143.162 -150.794 142.597C-150.436 142.027 -149.908 141.616 -149.21 141.363C-148.512 141.111 -147.844 141.09 -147.208 141.3C-146.57 141.507 -145.986 141.93 -145.459 142.571C-144.929 143.208 -144.477 144.044 -144.103 145.079C-143.727 146.12 -143.537 147.055 -143.532 147.886C-143.53 148.713 -143.706 149.409 -144.062 149.975C-144.419 150.537 -144.95 150.946 -145.654 151.201ZM-146.026 150.172C-145.328 149.92 -144.907 149.387 -144.764 148.574C-144.621 147.761 -144.775 146.731 -145.225 145.484C-145.525 144.655 -145.869 143.981 -146.257 143.463C-146.643 142.943 -147.056 142.59 -147.496 142.404C-147.934 142.217 -148.384 142.206 -148.845 142.373C-149.537 142.623 -149.954 143.16 -150.097 143.984C-150.241 144.804 -150.088 145.836 -149.639 147.08C-149.339 147.909 -148.997 148.582 -148.613 149.098C-148.229 149.615 -147.819 149.965 -147.382 150.149C-146.942 150.332 -146.49 150.34 -146.026 150.172ZM-137.425 148.226C-138.13 148.481 -138.799 148.506 -139.433 148.302C-140.068 148.094 -140.649 147.672 -141.176 147.034C-141.704 146.393 -142.156 145.552 -142.532 144.511C-142.906 143.476 -143.095 142.545 -143.098 141.718C-143.099 140.886 -142.921 140.188 -142.565 139.622C-142.207 139.052 -141.679 138.641 -140.981 138.389C-140.283 138.136 -139.616 138.115 -138.979 138.326C-138.341 138.532 -137.758 138.956 -137.23 139.597C-136.7 140.233 -136.248 141.069 -135.874 142.104C-135.498 143.145 -135.308 144.081 -135.304 144.911C-135.301 145.738 -135.477 146.435 -135.833 147C-136.19 147.563 -136.721 147.971 -137.425 148.226ZM-137.797 147.197C-137.099 146.945 -136.678 146.412 -136.535 145.599C-136.392 144.786 -136.546 143.756 -136.996 142.51C-137.296 141.681 -137.64 141.007 -138.028 140.488C-138.414 139.968 -138.827 139.615 -139.268 139.429C-139.705 139.242 -140.155 139.232 -140.616 139.399C-141.308 139.649 -141.725 140.186 -141.868 141.009C-142.012 141.829 -141.86 142.861 -141.41 144.105C-141.11 144.934 -140.768 145.607 -140.384 146.124C-140 146.64 -139.59 146.991 -139.153 147.175C-138.714 147.358 -138.261 147.365 -137.797 147.197ZM-179.853 195.622L-181.851 196.345C-182.027 196.038 -182.237 195.785 -182.481 195.588C-182.727 195.387 -182.997 195.238 -183.289 195.143C-183.581 195.047 -183.89 195.007 -184.214 195.024C-184.536 195.035 -184.864 195.102 -185.199 195.223C-185.794 195.438 -186.267 195.778 -186.619 196.243C-186.971 196.705 -187.174 197.27 -187.227 197.937C-187.281 198.601 -187.159 199.345 -186.862 200.168C-186.559 201.005 -186.174 201.663 -185.707 202.143C-185.237 202.617 -184.721 202.918 -184.16 203.046C-183.596 203.168 -183.018 203.122 -182.427 202.909C-182.099 202.79 -181.808 202.637 -181.554 202.448C-181.298 202.255 -181.087 202.031 -180.921 201.778C-180.751 201.523 -180.633 201.243 -180.566 200.937C-180.496 200.63 -180.488 200.305 -180.544 199.962L-178.541 199.251C-178.428 199.798 -178.414 200.344 -178.498 200.89C-178.579 201.435 -178.756 201.954 -179.029 202.448C-179.303 202.937 -179.672 203.377 -180.136 203.766C-180.6 204.151 -181.159 204.462 -181.811 204.698C-182.772 205.045 -183.711 205.133 -184.628 204.961C-185.544 204.788 -186.371 204.36 -187.11 203.677C-187.848 202.993 -188.43 202.064 -188.855 200.888C-189.281 199.709 -189.426 198.622 -189.291 197.626C-189.156 196.627 -188.792 195.768 -188.198 195.05C-187.604 194.332 -186.829 193.8 -185.874 193.455C-185.265 193.235 -184.668 193.116 -184.083 193.097C-183.497 193.079 -182.94 193.162 -182.41 193.345C-181.882 193.524 -181.4 193.805 -180.964 194.187C-180.525 194.564 -180.155 195.043 -179.853 195.622ZM-171.864 201.114C-172.665 201.404 -173.424 201.479 -174.139 201.339C-174.854 201.198 -175.489 200.87 -176.042 200.353C-176.592 199.835 -177.02 199.152 -177.326 198.304C-177.633 197.456 -177.741 196.655 -177.651 195.902C-177.557 195.147 -177.28 194.487 -176.82 193.922C-176.36 193.357 -175.729 192.929 -174.927 192.64C-174.126 192.35 -173.367 192.275 -172.652 192.415C-171.937 192.556 -171.304 192.887 -170.753 193.408C-170.198 193.929 -169.767 194.613 -169.461 195.461C-169.154 196.309 -169.049 197.108 -169.144 197.859C-169.235 198.609 -169.511 199.267 -169.971 199.832C-170.431 200.397 -171.062 200.825 -171.864 201.114ZM-172.413 199.561C-171.979 199.404 -171.659 199.153 -171.453 198.809C-171.248 198.461 -171.148 198.058 -171.152 197.601C-171.153 197.142 -171.244 196.663 -171.424 196.164C-171.605 195.662 -171.843 195.234 -172.135 194.881C-172.426 194.523 -172.761 194.275 -173.141 194.139C-173.521 194.002 -173.928 194.012 -174.362 194.169C-174.808 194.33 -175.134 194.585 -175.342 194.934C-175.547 195.282 -175.648 195.687 -175.646 196.15C-175.642 196.607 -175.549 197.087 -175.367 197.59C-175.187 198.088 -174.952 198.515 -174.663 198.87C-174.37 199.223 -174.034 199.468 -173.654 199.605C-173.272 199.736 -172.859 199.722 -172.413 199.561ZM-166.347 198.939L-169.314 190.731L-167.465 190.063L-166.961 191.458L-166.865 191.423C-166.864 190.891 -166.713 190.422 -166.413 190.015C-166.114 189.605 -165.691 189.301 -165.142 189.103C-164.586 188.902 -164.069 188.868 -163.59 189.001C-163.109 189.129 -162.706 189.396 -162.382 189.802L-162.296 189.772C-162.279 189.25 -162.104 188.776 -161.771 188.349C-161.436 187.918 -160.971 187.595 -160.376 187.38C-159.621 187.107 -158.918 187.123 -158.268 187.427C-157.618 187.732 -157.128 188.342 -156.797 189.258L-154.805 194.767L-156.745 195.468L-158.628 190.258C-158.812 189.749 -159.082 189.425 -159.438 189.288C-159.795 189.147 -160.17 189.148 -160.561 189.289C-161.028 189.458 -161.34 189.736 -161.498 190.124C-161.654 190.506 -161.648 190.929 -161.481 191.392L-159.631 196.511L-161.528 197.197L-163.44 191.907C-163.593 191.483 -163.844 191.191 -164.191 191.031C-164.536 190.869 -164.913 190.862 -165.322 191.01C-165.6 191.111 -165.827 191.274 -166.004 191.498C-166.182 191.72 -166.292 191.983 -166.335 192.289C-166.379 192.59 -166.339 192.911 -166.217 193.249L-164.413 198.24L-166.347 198.939ZM-151.731 197.135L-155.81 185.85L-153.908 185.162L-153.417 186.52L-153.305 186.479C-153.277 186.244 -153.213 185.981 -153.113 185.691C-153.013 185.397 -152.838 185.114 -152.586 184.842C-152.335 184.566 -151.969 184.341 -151.488 184.167C-150.854 183.938 -150.224 183.893 -149.597 184.033C-148.968 184.168 -148.39 184.497 -147.863 185.02C-147.334 185.537 -146.904 186.252 -146.575 187.164C-146.249 188.065 -146.12 188.884 -146.188 189.622C-146.255 190.359 -146.484 190.986 -146.874 191.501C-147.263 192.016 -147.781 192.391 -148.425 192.624C-148.896 192.794 -149.314 192.856 -149.681 192.812C-150.047 192.767 -150.365 192.668 -150.633 192.516C-150.9 192.358 -151.121 192.198 -151.296 192.036L-151.376 192.065L-149.796 196.436L-151.731 197.135ZM-152.43 189.268C-152.238 189.799 -151.995 190.237 -151.701 190.582C-151.404 190.925 -151.072 191.158 -150.706 191.279C-150.337 191.396 -149.948 191.38 -149.539 191.232C-149.111 191.077 -148.794 190.834 -148.588 190.502C-148.383 190.166 -148.28 189.772 -148.278 189.32C-148.274 188.864 -148.365 188.379 -148.55 187.866C-148.734 187.356 -148.971 186.93 -149.26 186.588C-149.549 186.245 -149.878 186.014 -150.248 185.894C-150.618 185.774 -151.018 185.791 -151.449 185.947C-151.862 186.097 -152.174 186.332 -152.384 186.654C-152.594 186.975 -152.703 187.359 -152.711 187.805C-152.715 188.25 -152.621 188.737 -152.43 189.268ZM-145.46 179.016L-141.504 189.959L-143.439 190.658L-147.394 179.715L-145.46 179.016ZM-135.824 188.087C-136.647 188.384 -137.419 188.47 -138.141 188.344C-138.861 188.214 -139.495 187.891 -140.044 187.377C-140.594 186.859 -141.024 186.17 -141.334 185.312C-141.639 184.467 -141.747 183.669 -141.657 182.915C-141.564 182.157 -141.292 181.494 -140.84 180.928C-140.389 180.359 -139.772 179.932 -138.989 179.649C-138.483 179.466 -137.976 179.375 -137.468 179.377C-136.957 179.374 -136.468 179.479 -136 179.692C-135.529 179.905 -135.099 180.236 -134.71 180.688C-134.323 181.136 -133.999 181.72 -133.739 182.439L-133.524 183.032L-140.252 185.464L-140.723 184.16L-135.85 182.399C-135.987 182.03 -136.186 181.729 -136.448 181.497C-136.71 181.262 -137.012 181.111 -137.354 181.046C-137.692 180.979 -138.047 181.012 -138.417 181.146C-138.813 181.289 -139.125 181.511 -139.355 181.811C-139.586 182.108 -139.729 182.442 -139.784 182.812C-139.838 183.178 -139.8 183.545 -139.671 183.913L-139.259 185.051C-139.087 185.528 -138.851 185.907 -138.553 186.185C-138.256 186.461 -137.918 186.633 -137.539 186.701C-137.161 186.766 -136.762 186.722 -136.342 186.57C-136.06 186.469 -135.82 186.337 -135.62 186.177C-135.422 186.012 -135.267 185.821 -135.156 185.604C-135.046 185.387 -134.989 185.147 -134.988 184.885L-133.108 184.435C-133.049 184.953 -133.116 185.449 -133.308 185.921C-133.498 186.388 -133.804 186.809 -134.229 187.184C-134.654 187.555 -135.186 187.856 -135.824 188.087ZM-129.464 176.327L-128.923 177.823L-133.641 179.528L-134.182 178.032L-129.464 176.327ZM-133.728 175.645L-131.794 174.946L-129.009 182.651C-128.915 182.911 -128.803 183.096 -128.675 183.207C-128.544 183.313 -128.404 183.367 -128.254 183.369C-128.104 183.371 -127.949 183.343 -127.789 183.285C-127.667 183.241 -127.56 183.193 -127.467 183.139C-127.37 183.084 -127.297 183.039 -127.249 183.006L-126.377 184.4C-126.467 184.473 -126.601 184.566 -126.778 184.678C-126.951 184.789 -127.174 184.898 -127.445 185.004C-127.925 185.193 -128.387 185.278 -128.834 185.258C-129.281 185.234 -129.681 185.093 -130.032 184.833C-130.38 184.572 -130.645 184.185 -130.827 183.671L-133.728 175.645ZM-121.276 182.828C-122.099 183.126 -122.872 183.212 -123.594 183.086C-124.313 182.955 -124.948 182.633 -125.496 182.118C-126.046 181.6 -126.476 180.912 -126.786 180.053C-127.092 179.209 -127.199 178.41 -127.109 177.656C-127.017 176.898 -126.744 176.236 -126.293 175.67C-125.842 175.1 -125.225 174.674 -124.441 174.39C-123.935 174.207 -123.428 174.117 -122.92 174.118C-122.41 174.115 -121.921 174.22 -121.453 174.434C-120.981 174.646 -120.551 174.978 -120.163 175.429C-119.775 175.877 -119.451 176.461 -119.191 177.181L-118.977 177.774L-125.704 180.206L-126.175 178.902L-121.302 177.14C-121.44 176.771 -121.639 176.471 -121.9 176.239C-122.162 176.003 -122.464 175.853 -122.806 175.787C-123.145 175.72 -123.499 175.754 -123.87 175.887C-124.265 176.03 -124.578 176.252 -124.807 176.553C-125.038 176.85 -125.182 177.183 -125.237 177.554C-125.29 177.919 -125.252 178.286 -125.123 178.654L-124.712 179.793C-124.539 180.27 -124.304 180.648 -124.006 180.927C-123.709 181.202 -123.371 181.374 -122.992 181.442C-122.614 181.507 -122.215 181.464 -121.794 181.312C-121.513 181.21 -121.272 181.079 -121.073 180.918C-120.874 180.754 -120.72 180.563 -120.609 180.346C-120.498 180.128 -120.442 179.888 -120.44 179.626L-118.561 179.176C-118.502 179.695 -118.569 180.19 -118.76 180.662C-118.95 181.129 -119.257 181.551 -119.681 181.925C-120.107 182.297 -120.639 182.598 -121.276 182.828ZM-112.23 179.377L-116.186 168.434L-109.069 165.861L-108.468 167.523L-113.603 169.379L-112.529 172.35L-107.763 170.627L-107.162 172.289L-111.928 174.012L-110.849 176.999L-105.671 175.127L-105.07 176.789L-112.23 179.377ZM-102.98 170.596L-101.242 175.405L-103.176 176.104L-106.143 167.897L-104.294 167.228L-103.79 168.623L-103.693 168.588C-103.671 168.06 -103.502 167.587 -103.186 167.166C-102.867 166.745 -102.402 166.424 -101.789 166.202C-101.223 165.997 -100.685 165.94 -100.177 166.03C-99.666 166.119 -99.2114 166.352 -98.8138 166.728C-98.4126 167.102 -98.0953 167.618 -97.8619 168.275L-95.9729 173.501L-97.9072 174.2L-99.688 169.273C-99.8864 168.724 -100.184 168.347 -100.581 168.14C-100.974 167.932 -101.421 167.918 -101.919 168.098C-102.258 168.22 -102.532 168.404 -102.741 168.649C-102.948 168.889 -103.077 169.175 -103.126 169.507C-103.171 169.837 -103.123 170.2 -102.98 170.596ZM-89.2627 174.748C-89.9574 174.999 -90.5882 175.121 -91.1551 175.112C-91.7208 175.107 -92.2117 175.003 -92.6278 174.799C-93.0439 174.595 -93.3797 174.323 -93.635 173.985L-92.0456 172.933C-91.9093 173.065 -91.738 173.182 -91.5317 173.285C-91.3242 173.391 -91.0753 173.45 -90.785 173.462C-90.4899 173.476 -90.1482 173.413 -89.7599 173.273C-89.2113 173.074 -88.8054 172.777 -88.5422 172.379C-88.2777 171.986 -88.2549 171.486 -88.4738 170.88L-89.0358 169.325L-89.132 169.36C-89.1597 169.596 -89.2317 169.853 -89.3481 170.133C-89.4609 170.412 -89.6483 170.679 -89.9103 170.934C-90.1687 171.189 -90.533 171.401 -91.0032 171.571C-91.6337 171.799 -92.2589 171.858 -92.8788 171.748C-93.4964 171.633 -94.0634 171.334 -94.58 170.852C-95.0942 170.366 -95.513 169.675 -95.8362 168.781C-96.162 167.88 -96.2873 167.065 -96.2121 166.337C-96.1346 165.604 -95.8974 164.985 -95.5003 164.479C-95.1045 163.969 -94.5913 163.6 -93.9608 163.372C-93.4799 163.199 -93.0549 163.138 -92.6857 163.189C-92.3143 163.236 -91.9948 163.34 -91.7271 163.501C-91.4607 163.659 -91.2434 163.82 -91.0751 163.985L-90.9683 163.946L-91.4589 162.589L-89.5512 161.899L-86.5362 170.24C-86.2825 170.942 -86.24 171.583 -86.4088 172.164C-86.5775 172.745 -86.911 173.254 -87.4093 173.692C-87.9075 174.13 -88.5253 174.482 -89.2627 174.748ZM-91.0121 169.859C-90.6024 169.711 -90.2894 169.485 -90.0729 169.181C-89.8565 168.877 -89.7411 168.511 -89.7267 168.083C-89.7123 167.655 -89.7997 167.179 -89.989 166.655C-90.1757 166.139 -90.414 165.713 -90.704 165.379C-90.9904 165.044 -91.3165 164.821 -91.6823 164.712C-92.0459 164.597 -92.436 164.616 -92.8528 164.766C-93.2838 164.922 -93.6031 165.164 -93.8105 165.493C-94.0179 165.822 -94.1238 166.209 -94.1282 166.653C-94.1339 167.094 -94.0473 167.562 -93.8683 168.058C-93.6868 168.56 -93.4547 168.973 -93.1722 169.298C-92.8873 169.618 -92.5627 169.831 -92.1981 169.937C-91.8313 170.038 -91.436 170.012 -91.0121 169.859ZM-84.5165 169.359L-88.4723 158.416L-84.3685 156.933C-83.5278 156.629 -82.7697 156.52 -82.0941 156.606C-81.415 156.691 -80.8341 156.944 -80.3514 157.366C-79.8665 157.782 -79.4978 158.34 -79.2454 159.038C-78.9917 159.74 -78.9212 160.403 -79.0337 161.028C-79.1439 161.648 -79.4367 162.203 -79.9121 162.693C-80.3887 163.179 -81.0474 163.574 -81.8881 163.878L-84.811 164.935L-85.4059 163.289L-82.7502 162.329C-82.2586 162.151 -81.8805 161.938 -81.616 161.689C-81.3527 161.437 -81.1939 161.152 -81.1396 160.834C-81.083 160.512 -81.1249 160.156 -81.2652 159.768C-81.4056 159.38 -81.6019 159.076 -81.8543 158.857C-82.1079 158.635 -82.4172 158.509 -82.7822 158.48C-83.1484 158.447 -83.5792 158.52 -84.0743 158.699L-85.8911 159.356L-82.5341 168.643L-84.5165 169.359ZM-80.6556 162.357L-76.1541 166.337L-78.3662 167.136L-82.8197 163.139L-80.6556 162.357ZM-70.8554 164.59C-71.6248 164.869 -72.3565 164.984 -73.0502 164.937C-73.7404 164.888 -74.3432 164.691 -74.8588 164.346C-75.3743 164.001 -75.7541 163.524 -75.9982 162.915L-73.9891 162.189C-73.8644 162.478 -73.6731 162.701 -73.4152 162.857C-73.1585 163.01 -72.8604 163.094 -72.521 163.108C-72.1815 163.122 -71.8284 163.063 -71.4614 162.931C-71.0696 162.789 -70.7467 162.596 -70.4929 162.351C-70.2403 162.102 -70.0729 161.824 -69.9908 161.517C-69.9086 161.209 -69.9273 160.896 -70.0468 160.576C-70.1629 160.244 -70.354 159.983 -70.62 159.793C-70.886 159.603 -71.2104 159.497 -71.5932 159.474C-71.9724 159.45 -72.3936 159.522 -72.8567 159.689L-73.8238 160.039L-74.3762 158.51L-73.4091 158.161C-73.0279 158.023 -72.7187 157.837 -72.4813 157.602C-72.2404 157.366 -72.0812 157.099 -72.0036 156.801C-71.9273 156.499 -71.9482 156.191 -72.0664 155.875C-72.1748 155.564 -72.3415 155.32 -72.5664 155.144C-72.7891 154.962 -73.0518 154.854 -73.3546 154.818C-73.6539 154.781 -73.9745 154.825 -74.3165 154.948C-74.6514 155.07 -74.9394 155.242 -75.1806 155.466C-75.4218 155.69 -75.5891 155.946 -75.6826 156.234C-75.7773 156.518 -75.7746 156.815 -75.6746 157.125L-77.5822 157.815C-77.7894 157.197 -77.8075 156.595 -77.6365 156.01C-77.4632 155.419 -77.1386 154.891 -76.6626 154.425C-76.1879 153.955 -75.5961 153.592 -74.8872 153.336C-74.157 153.072 -73.4733 152.98 -72.8362 153.06C-72.1969 153.135 -71.6463 153.349 -71.1846 153.702C-70.7228 154.054 -70.3915 154.508 -70.1906 155.064C-69.9643 155.679 -69.9592 156.261 -70.1755 156.811C-70.3882 157.359 -70.767 157.804 -71.312 158.146L-71.2811 158.231C-70.473 158.06 -69.7804 158.132 -69.2034 158.447C-68.624 158.757 -68.2125 159.255 -67.9689 159.94C-67.7474 160.553 -67.7236 161.165 -67.8976 161.775C-68.0693 162.381 -68.4102 162.931 -68.9202 163.426C-69.4266 163.919 -70.0717 164.307 -70.8554 164.59ZM-65.9674 160.359L-66.5372 158.782L-64.5457 149.767L-63.2312 149.292L-62.42 151.536L-63.2215 151.826L-64.5569 157.909L-64.526 157.995L-58.0444 155.652L-57.4553 157.282L-65.9674 160.359ZM-60.0129 160.502L-60.9207 157.991L-61.1543 157.277L-63.9472 149.551L-62.077 148.875L-58.1213 159.818L-60.0129 160.502ZM-51.1748 157.307L-55.1305 146.364L-51.0268 144.88C-50.1861 144.577 -49.428 144.468 -48.7524 144.554C-48.0733 144.639 -47.4924 144.892 -47.0097 145.313C-46.5247 145.73 -46.1561 146.288 -45.9037 146.986C-45.65 147.688 -45.5794 148.351 -45.692 148.976C-45.8022 149.595 -46.095 150.15 -46.5704 150.64C-47.047 151.127 -47.7057 151.522 -48.5464 151.826L-51.4693 152.882L-52.0642 151.237L-49.4085 150.277C-48.9169 150.099 -48.5388 149.886 -48.2743 149.637C-48.011 149.385 -47.8522 149.1 -47.7979 148.782C-47.7413 148.46 -47.7831 148.104 -47.9235 147.716C-48.0639 147.328 -48.2602 147.024 -48.5125 146.805C-48.7661 146.583 -49.0755 146.457 -49.4404 146.428C-49.8067 146.395 -50.2374 146.468 -50.7326 146.647L-52.5494 147.304L-49.1924 156.591L-51.1748 157.307ZM-47.3139 150.305L-42.8123 154.284L-45.0245 155.084L-49.478 151.087L-47.3139 150.305ZM-37.8999 152.69C-38.7228 152.987 -39.4953 153.073 -40.2173 152.948C-40.9371 152.817 -41.5713 152.495 -42.1198 151.98C-42.6696 151.462 -43.0997 150.773 -43.41 149.915C-43.7152 149.071 -43.8228 148.272 -43.7326 147.518C-43.6403 146.76 -43.3681 146.098 -42.9162 145.531C-42.4656 144.962 -41.8485 144.535 -41.0648 144.252C-40.5589 144.069 -40.052 143.979 -39.5439 143.98C-39.0335 143.977 -38.5444 144.082 -38.0765 144.296C-37.6051 144.508 -37.175 144.84 -36.7862 145.291C-36.3987 145.739 -36.0749 146.323 -35.8148 147.043L-35.6004 147.636L-42.3278 150.067L-42.7991 148.764L-37.9259 147.002C-38.0634 146.633 -38.2626 146.332 -38.5237 146.101C-38.786 145.865 -39.0881 145.714 -39.4301 145.649C-39.7685 145.582 -40.1229 145.615 -40.4934 145.749C-40.8888 145.892 -41.2013 146.114 -41.431 146.414C-41.662 146.711 -41.8052 147.045 -41.8606 147.415C-41.9137 147.781 -41.8758 148.148 -41.7467 148.516L-41.3353 149.654C-41.1627 150.132 -40.9274 150.51 -40.6292 150.789C-40.3323 151.064 -39.9943 151.236 -39.6152 151.304C-39.2373 151.369 -38.8382 151.325 -38.4178 151.173C-38.1364 151.072 -37.8959 150.94 -37.6962 150.78C-37.4979 150.615 -37.3433 150.425 -37.2325 150.207C-37.1217 149.99 -37.0655 149.75 -37.0637 149.488L-35.1842 149.038C-35.1256 149.556 -35.1923 150.052 -35.3841 150.524C-35.5737 150.991 -35.8806 151.412 -36.305 151.787C-36.7306 152.159 -37.2622 152.459 -37.8999 152.69ZM-30.2501 149.931C-30.7702 150.119 -31.2722 150.196 -31.7559 150.161C-32.2374 150.122 -32.6656 149.962 -33.0404 149.683C-33.4117 149.402 -33.6946 148.993 -33.889 148.455C-34.0564 147.992 -34.1094 147.578 -34.0478 147.213C-33.9863 146.849 -33.8405 146.522 -33.6105 146.234C-33.3805 145.945 -33.097 145.688 -32.76 145.461C-32.4207 145.23 -32.0593 145.02 -31.6758 144.834C-31.2129 144.61 -30.839 144.424 -30.5539 144.277C-30.2701 144.126 -30.076 143.983 -29.9715 143.849C-29.8648 143.71 -29.8449 143.547 -29.9119 143.362L-29.9235 143.33C-30.069 142.928 -30.301 142.659 -30.6195 142.524C-30.938 142.39 -31.3217 142.404 -31.7705 142.566C-32.2443 142.737 -32.5828 142.976 -32.786 143.283C-32.9856 143.589 -33.0826 143.9 -33.0771 144.216L-34.9758 144.613C-35.0136 144.062 -34.9292 143.561 -34.7225 143.107C-34.5171 142.65 -34.2078 142.253 -33.7945 141.914C-33.3825 141.572 -32.8898 141.297 -32.3162 141.09C-31.9208 140.947 -31.5104 140.851 -31.0851 140.802C-30.6598 140.753 -30.2464 140.776 -29.845 140.873C-29.4448 140.966 -29.0811 141.159 -28.7539 141.451C-28.423 141.743 -28.1591 142.161 -27.9621 142.706L-25.9765 148.199L-27.836 148.871L-28.2436 147.743L-28.3077 147.767C-28.3428 148.037 -28.4312 148.311 -28.5728 148.587C-28.7122 148.859 -28.9203 149.114 -29.1971 149.351C-29.4717 149.583 -29.8227 149.776 -30.2501 149.931ZM-30.2616 148.328C-29.8734 148.188 -29.5644 147.989 -29.3348 147.733C-29.1065 147.473 -28.9621 147.188 -28.9016 146.876C-28.8376 146.563 -28.8603 146.255 -28.9697 145.952L-29.3193 144.985C-29.3619 145.056 -29.4484 145.14 -29.579 145.236C-29.7061 145.33 -29.8529 145.425 -30.0194 145.522C-30.1859 145.618 -30.3519 145.71 -30.5175 145.798C-30.683 145.886 -30.8267 145.962 -30.9485 146.027C-31.2229 146.17 -31.458 146.328 -31.6538 146.499C-31.8496 146.671 -31.9844 146.86 -32.0582 147.068C-32.1334 147.273 -32.1259 147.499 -32.0358 147.749C-31.907 148.105 -31.6798 148.327 -31.354 148.415C-31.0283 148.502 -30.6642 148.473 -30.2616 148.328ZM-20.9336 146.539C-21.5783 146.772 -22.2153 146.815 -22.8445 146.668C-23.4736 146.521 -24.05 146.185 -24.5736 145.662C-25.0972 145.138 -25.5219 144.426 -25.8477 143.524C-26.1773 142.612 -26.3058 141.789 -26.2332 141.054C-26.1583 140.314 -25.9224 139.691 -25.5253 139.185C-25.1295 138.675 -24.6163 138.306 -23.9858 138.078C-23.5049 137.905 -23.0799 137.844 -22.7107 137.895C-22.3428 137.944 -22.0269 138.049 -21.7628 138.211C-21.5 138.37 -21.2827 138.531 -21.1108 138.695L-21.0307 138.666L-22.5102 134.573L-20.5705 133.871L-16.6148 144.815L-18.5171 145.502L-18.9845 144.209L-19.102 144.252C-19.1297 144.487 -19.1973 144.751 -19.305 145.044C-19.414 145.333 -19.5951 145.612 -19.8483 145.881C-20.1016 146.15 -20.4634 146.369 -20.9336 146.539ZM-20.9675 144.757C-20.5579 144.609 -20.2487 144.372 -20.04 144.047C-19.8326 143.718 -19.7262 143.327 -19.7208 142.874C-19.7154 142.421 -19.8086 141.929 -20.0005 141.399C-20.1923 140.868 -20.4339 140.434 -20.7251 140.096C-21.0128 139.757 -21.3402 139.531 -21.7073 139.418C-22.0709 139.303 -22.461 139.322 -22.8778 139.472C-23.3088 139.628 -23.6281 139.87 -23.8355 140.199C-24.0429 140.528 -24.1482 140.916 -24.1513 141.364C-24.1544 141.813 -24.0639 142.291 -23.8798 142.801C-23.6944 143.314 -23.4559 143.745 -23.1643 144.095C-22.8705 144.44 -22.5374 144.676 -22.1652 144.803C-21.7907 144.926 -21.3915 144.91 -20.9675 144.757ZM-14.5536 144.07L-17.5204 135.862L-15.586 135.163L-12.6192 143.37L-14.5536 144.07ZM-16.9689 134.346C-17.2753 134.456 -17.5756 134.45 -17.8698 134.327C-18.1654 134.2 -18.3653 133.993 -18.4696 133.704C-18.5752 133.412 -18.5543 133.124 -18.4068 132.842C-18.2606 132.555 -18.0344 132.357 -17.728 132.246C-17.4181 132.134 -17.1171 132.142 -16.8251 132.27C-16.5309 132.393 -16.331 132.601 -16.2254 132.893C-16.1211 133.181 -16.142 133.469 -16.2882 133.755C-16.4321 134.037 -16.659 134.234 -16.9689 134.346ZM-10.4342 137.143L-8.69582 141.952L-10.6301 142.651L-13.5969 134.444L-11.7481 133.776L-11.244 135.17L-11.1478 135.136C-11.1251 134.608 -10.9561 134.134 -10.6407 133.714C-10.3218 133.292 -9.85597 132.971 -9.24326 132.749C-8.67685 132.545 -8.1397 132.487 -7.63178 132.578C-7.12031 132.667 -6.66574 132.899 -6.26808 133.275C-5.86686 133.65 -5.54957 134.165 -5.3162 134.822L-3.42718 140.048L-5.36151 140.747L-7.14236 135.82C-7.34066 135.272 -7.63832 134.894 -8.03533 134.687C-8.42878 134.479 -8.87486 134.465 -9.37358 134.645C-9.712 134.768 -9.98597 134.951 -10.1955 135.196C-10.4028 135.436 -10.531 135.722 -10.5801 136.054C-10.6258 136.385 -10.5771 136.748 -10.4342 137.143ZM3.28297 141.296C2.58833 141.547 1.95752 141.668 1.39055 141.659C0.824873 141.654 0.333978 141.55 -0.0821321 141.346C-0.498242 141.142 -0.833965 140.871 -1.0893 140.532L0.50007 139.48C0.636386 139.612 0.807681 139.729 1.01395 139.832C1.22152 139.938 1.47043 139.997 1.76069 140.009C2.05581 140.023 2.39751 139.96 2.7858 139.82C3.3344 139.622 3.7403 139.324 4.00352 138.927C4.26802 138.533 4.29082 138.033 4.07192 137.428L3.50985 135.873L3.41367 135.908C3.38603 136.143 3.31402 136.401 3.19763 136.68C3.0848 136.959 2.8974 137.226 2.63542 137.482C2.37701 137.736 2.01269 137.949 1.54247 138.118C0.911942 138.346 0.286756 138.405 -0.333091 138.295C-0.950663 138.18 -1.51772 137.881 -2.03427 137.4C-2.54855 136.913 -2.96729 136.222 -3.29049 135.328C-3.61627 134.427 -3.74157 133.612 -3.6664 132.884C-3.58894 132.151 -3.35168 131.532 -2.9546 131.026C-2.55881 130.516 -2.04565 130.148 -1.41512 129.92C-0.934211 129.746 -0.50918 129.685 -0.140028 129.737C0.231399 129.784 0.550937 129.888 0.818588 130.049C1.08495 130.206 1.30228 130.367 1.47057 130.532L1.57744 130.493L1.08683 129.136L2.99444 128.447L6.00953 136.788C6.2632 137.489 6.30566 138.131 6.13691 138.711C5.96817 139.292 5.63467 139.801 5.13643 140.239C4.63819 140.677 4.02037 141.029 3.28297 141.296ZM1.53361 136.406C1.94327 136.258 2.25632 136.032 2.47276 135.728C2.68919 135.424 2.80462 135.058 2.81903 134.63C2.83344 134.202 2.746 133.726 2.55671 133.203C2.37 132.686 2.13166 132.261 1.84168 131.926C1.55527 131.591 1.22917 131.368 0.86336 131.259C0.499829 131.145 0.109669 131.163 -0.307119 131.314C-0.738157 131.469 -1.05739 131.712 -1.26481 132.04C-1.47223 132.369 -1.57815 132.756 -1.58256 133.2C-1.58826 133.642 -1.50161 134.11 -1.32262 134.605C-1.14106 135.107 -0.909009 135.521 -0.626462 135.845C-0.34164 136.165 -0.0169698 136.378 0.347548 136.484C0.714342 136.585 1.10969 136.559 1.53361 136.406ZM13.1669 134.049L11.0509 134.814L10.9478 122.478L13.3951 121.594L21.2087 131.143L19.0927 131.907L13.0254 124.265L12.9399 124.296L13.1669 134.049ZM11.6853 129.734L17.4562 127.648L18.0318 129.24L12.2609 131.326L11.6853 129.734ZM26.7367 122.317L25.0429 123.147C24.9287 122.987 24.7809 122.851 24.5995 122.739C24.4218 122.626 24.2122 122.559 23.9708 122.538C23.7294 122.516 23.4591 122.56 23.1599 122.668C22.7573 122.813 22.4505 123.023 22.2393 123.297C22.0316 123.569 21.9798 123.843 22.0838 124.12C22.1665 124.36 22.324 124.523 22.5562 124.608C22.7919 124.692 23.1356 124.707 23.5871 124.652L25.0953 124.445C25.9324 124.332 26.6054 124.389 27.1144 124.616C27.6269 124.841 27.9911 125.247 28.2072 125.834C28.3903 126.352 28.4037 126.862 28.2474 127.366C28.0934 127.865 27.7927 128.32 27.3453 128.731C26.8979 129.142 26.3323 129.472 25.6483 129.719C24.6437 130.082 23.7591 130.164 22.9945 129.965C22.2285 129.763 21.6503 129.305 21.2597 128.593L23.0803 127.729C23.2997 128.069 23.5825 128.283 23.9286 128.371C24.2747 128.459 24.6704 128.423 25.1157 128.262C25.5752 128.096 25.9098 127.868 26.1194 127.579C26.3326 127.289 26.3889 127.004 26.2885 126.727C26.2035 126.491 26.0425 126.33 25.8054 126.243C25.572 126.154 25.2516 126.137 24.8444 126.191L23.3382 126.403C22.4917 126.524 21.8094 126.459 21.2915 126.207C20.7722 125.952 20.4062 125.524 20.1935 124.924C20.007 124.42 19.9858 123.932 20.1298 123.461C20.276 122.985 20.5617 122.556 20.9871 122.172C21.4147 121.784 21.9562 121.472 22.6117 121.235C23.5735 120.887 24.4045 120.818 25.1047 121.028C25.8085 121.237 26.3525 121.667 26.7367 122.317ZM34.995 119.332L33.3012 120.162C33.1869 120.002 33.0392 119.866 32.8578 119.754C32.68 119.641 32.4705 119.574 32.2291 119.553C31.9877 119.531 31.7174 119.574 31.4182 119.683C31.0156 119.828 30.7088 120.038 30.4976 120.311C30.2899 120.584 30.2381 120.858 30.3421 121.135C30.4248 121.375 30.5823 121.537 30.8145 121.623C31.0502 121.707 31.3939 121.721 31.8454 121.667L33.3536 121.46C34.1907 121.347 34.8637 121.404 35.3726 121.63C35.8852 121.856 36.2494 122.262 36.4654 122.849C36.6486 123.366 36.662 123.877 36.5057 124.381C36.3517 124.879 36.051 125.334 35.6036 125.746C35.1562 126.157 34.5906 126.487 33.9066 126.734C32.902 127.097 32.0174 127.179 31.2528 126.98C30.4868 126.778 29.9086 126.32 29.518 125.608L31.3386 124.744C31.558 125.084 31.8408 125.298 32.1869 125.386C32.533 125.474 32.9287 125.438 33.3739 125.277C33.8335 125.111 34.1681 124.883 34.3777 124.594C34.5908 124.304 34.6472 124.019 34.5468 123.741C34.4618 123.506 34.3008 123.345 34.0637 123.258C33.8302 123.169 33.5099 123.152 33.1027 123.206L31.5965 123.418C30.75 123.539 30.0677 123.474 29.5498 123.222C29.0305 122.966 28.6645 122.539 28.4517 121.939C28.2653 121.434 28.2441 120.947 28.388 120.476C28.5343 120 28.82 119.571 29.2453 119.187C29.6729 118.799 30.2145 118.486 30.8699 118.25C31.8318 117.902 32.6628 117.833 33.363 118.043C34.0668 118.252 34.6108 118.682 34.995 119.332ZM38.949 124.73L35.9822 116.522L37.9165 115.823L40.8833 124.031L38.949 124.73ZM36.5336 115.006C36.2272 115.117 35.9269 115.111 35.6327 114.987C35.3371 114.861 35.1372 114.653 35.0329 114.364C34.9273 114.072 34.9483 113.785 35.0957 113.502C35.2419 113.215 35.4682 113.017 35.7745 112.906C36.0844 112.794 36.3854 112.802 36.6774 112.93C36.9716 113.053 37.1716 113.261 37.2771 113.553C37.3814 113.842 37.3605 114.129 37.2143 114.416C37.0704 114.697 36.8435 114.894 36.5336 115.006ZM47.6162 125.27C46.9215 125.521 46.2907 125.643 45.7237 125.634C45.158 125.629 44.6672 125.525 44.251 125.321C43.8349 125.117 43.4992 124.845 43.2439 124.507L44.8332 123.455C44.9696 123.587 45.1409 123.704 45.3471 123.807C45.5547 123.913 45.8036 123.972 46.0939 123.984C46.389 123.998 46.7307 123.935 47.119 123.795C47.6676 123.596 48.0735 123.299 48.3367 122.901C48.6012 122.508 48.624 122.008 48.4051 121.402L47.843 119.848L47.7468 119.882C47.7192 120.118 47.6472 120.375 47.5308 120.655C47.418 120.934 47.2306 121.201 46.9686 121.457C46.7102 121.711 46.3459 121.923 45.8756 122.093C45.2451 122.321 44.6199 122.38 44.0001 122.27C43.3825 122.155 42.8155 121.856 42.2989 121.374C41.7846 120.888 41.3659 120.197 41.0427 119.303C40.7169 118.402 40.5916 117.587 40.6668 116.859C40.7442 116.126 40.9815 115.507 41.3786 115.001C41.7744 114.491 42.2875 114.122 42.9181 113.894C43.399 113.721 43.824 113.66 44.1931 113.711C44.5646 113.758 44.8841 113.862 45.1518 114.024C45.4181 114.181 45.6355 114.342 45.8037 114.507L45.9106 114.468L45.42 113.111L47.3276 112.421L50.3427 120.762C50.5964 121.464 50.6388 122.105 50.4701 122.686C50.3013 123.267 49.9678 123.776 49.4696 124.214C48.9714 124.652 48.3535 125.004 47.6162 125.27ZM45.8668 120.381C46.2764 120.233 46.5895 120.007 46.8059 119.703C47.0224 119.399 47.1378 119.033 47.1522 118.605C47.1666 118.177 47.0792 117.701 46.8899 117.177C46.7032 116.661 46.4648 116.235 46.1749 115.901C45.8885 115.566 45.5623 115.343 45.1965 115.234C44.833 115.119 44.4428 115.138 44.0261 115.288C43.595 115.444 43.2758 115.686 43.0684 116.015C42.8609 116.344 42.755 116.731 42.7506 117.175C42.7449 117.616 42.8316 118.084 43.0106 118.58C43.1921 119.082 43.4242 119.495 43.7067 119.82C43.9915 120.14 44.3162 120.353 44.6807 120.459C45.0475 120.56 45.4429 120.534 45.8668 120.381ZM52.4728 114.404L54.2112 119.213L52.2768 119.912L49.31 111.705L51.1589 111.036L51.663 112.431L51.7592 112.396C51.7819 111.869 51.9509 111.395 52.2663 110.975C52.5852 110.553 53.051 110.232 53.6637 110.01C54.2301 109.805 54.7673 109.748 55.2752 109.839C55.7867 109.928 56.2412 110.16 56.6389 110.536C57.0401 110.91 57.3574 111.426 57.5908 112.083L59.4798 117.309L57.5455 118.008L55.7646 113.081C55.5663 112.533 55.2687 112.155 54.8716 111.948C54.4782 111.74 54.0321 111.726 53.5334 111.906C53.195 112.028 52.921 112.212 52.7115 112.457C52.5042 112.697 52.376 112.983 52.3268 113.315C52.2812 113.646 52.3299 114.009 52.4728 114.404ZM61.4462 116.598L58.4794 108.39L60.3282 107.722L60.8323 109.117L60.9285 109.082C60.9295 108.55 61.0801 108.081 61.3802 107.674C61.6791 107.264 62.1028 106.96 62.6514 106.761C63.2071 106.561 63.7245 106.527 64.2035 106.66C64.6848 106.788 65.0875 107.055 65.4117 107.461L65.4972 107.43C65.514 106.909 65.689 106.435 66.0222 106.008C66.3576 105.577 66.8228 105.254 67.4177 105.039C68.1729 104.766 68.8755 104.781 69.5254 105.086C70.1753 105.391 70.6657 106.001 70.9966 106.917L72.988 112.426L71.0483 113.127L69.1651 107.917C68.981 107.408 68.711 107.084 68.3553 106.947C67.9983 106.806 67.6239 106.807 67.232 106.948C66.7654 107.117 66.453 107.395 66.295 107.782C66.1393 108.165 66.1451 108.588 66.3125 109.051L68.1629 114.17L66.266 114.856L64.3538 109.566C64.2005 109.142 63.95 108.85 63.602 108.689C63.2577 108.528 62.8807 108.521 62.471 108.669C62.1932 108.77 61.966 108.932 61.7895 109.157C61.6118 109.379 61.5015 109.642 61.4589 109.947C61.4149 110.249 61.4541 110.569 61.5765 110.908L63.3805 115.899L61.4462 116.598ZM78.6419 110.563C77.819 110.861 77.0465 110.947 76.3244 110.821C75.6046 110.691 74.9704 110.368 74.4219 109.853C73.8721 109.335 73.442 108.647 73.1317 107.788C72.8265 106.944 72.719 106.145 72.8091 105.392C72.9015 104.633 73.1736 103.971 73.6255 103.405C74.0761 102.835 74.6933 102.409 75.477 102.125C75.9828 101.942 76.4898 101.852 76.9979 101.853C77.5082 101.85 77.9973 101.955 78.4652 102.169C78.9366 102.381 79.3667 102.713 79.7555 103.165C80.143 103.613 80.4668 104.196 80.7269 104.916L80.9413 105.509L74.2139 107.941L73.7426 106.637L78.6158 104.875C78.4784 104.506 78.2791 104.206 78.0181 103.974C77.7557 103.738 77.4536 103.588 77.1117 103.522C76.7733 103.455 76.4188 103.489 76.0484 103.623C75.653 103.765 75.3404 103.987 75.1107 104.288C74.8797 104.585 74.7365 104.918 74.6811 105.289C74.628 105.654 74.666 106.021 74.795 106.39L75.2064 107.528C75.379 108.005 75.6143 108.383 75.9125 108.662C76.2094 108.937 76.5474 109.109 76.9266 109.178C77.3044 109.242 77.7035 109.199 78.1239 109.047C78.4053 108.945 78.6459 108.814 78.8455 108.653C79.0439 108.489 79.1985 108.298 79.3092 108.081C79.42 107.863 79.4763 107.624 79.4781 107.361L81.3576 106.911C81.4161 107.43 81.3495 107.925 81.1576 108.397C80.9681 108.865 80.6611 109.286 80.2368 109.661C79.8111 110.032 79.2795 110.333 78.6419 110.563ZM84.0659 102.984L85.8042 107.793L83.8699 108.492L80.9031 100.285L82.7519 99.6164L83.2561 101.011L83.3523 100.976C83.3749 100.449 83.544 99.9746 83.8593 99.5545C84.1783 99.1331 84.6441 98.8117 85.2568 98.5902C85.8232 98.3854 86.3604 98.3282 86.8683 98.4185C87.3797 98.5075 87.8343 98.7399 88.232 99.1158C88.6332 99.4903 88.9505 100.006 89.1839 100.663L91.0729 105.889L89.1385 106.588L87.3577 101.661C87.1594 101.113 86.8617 100.735 86.4647 100.528C86.0713 100.32 85.6252 100.306 85.1265 100.486C84.7881 100.608 84.5141 100.792 84.3046 101.037C84.0973 101.277 83.9691 101.563 83.9199 101.895C83.8743 102.226 83.9229 102.589 84.0659 102.984ZM94.1709 95.4888L94.7117 96.985L89.9934 98.6905L89.4526 97.1943L94.1709 95.4888ZM89.9067 94.8069L91.841 94.1077L94.6263 101.813C94.7203 102.073 94.8315 102.258 94.9601 102.369C95.091 102.475 95.2313 102.529 95.3812 102.531C95.531 102.533 95.6861 102.505 95.8464 102.447C95.9675 102.403 96.0747 102.355 96.168 102.301C96.2649 102.246 96.3375 102.201 96.3857 102.168L97.2583 103.562C97.1679 103.635 97.0342 103.728 96.8573 103.84C96.684 103.951 96.4614 104.06 96.1897 104.166C95.7104 104.355 95.2476 104.44 94.8014 104.42C94.3538 104.397 93.9543 104.255 93.6027 103.995C93.2546 103.735 92.9897 103.347 92.8078 102.833L89.9067 94.8069ZM-173.406 240.833L-177.114 230.574L-170.752 228.274L-170.27 229.607L-175.085 231.347L-173.955 234.473L-169.596 232.898L-169.116 234.225L-173.475 235.8L-171.858 240.274L-173.406 240.833ZM-165.26 237.889L-168.042 230.195L-166.544 229.653L-163.762 237.348L-165.26 237.889ZM-167.714 228.734C-167.975 228.828 -168.23 228.822 -168.48 228.716C-168.727 228.605 -168.895 228.428 -168.983 228.184C-169.073 227.937 -169.057 227.694 -168.936 227.454C-168.813 227.209 -168.621 227.04 -168.361 226.945C-168.1 226.851 -167.846 226.86 -167.599 226.97C-167.349 227.076 -167.179 227.253 -167.09 227.5C-167.002 227.744 -167.019 227.988 -167.142 228.233C-167.263 228.473 -167.454 228.64 -167.714 228.734ZM-161.901 231.509L-160.249 236.078L-161.747 236.619L-164.529 228.925L-163.091 228.405L-162.638 229.657L-162.543 229.623C-162.513 229.152 -162.354 228.724 -162.066 228.341C-161.775 227.956 -161.34 227.659 -160.763 227.45C-160.238 227.261 -159.739 227.205 -159.266 227.283C-158.793 227.357 -158.37 227.571 -157.998 227.923C-157.625 228.276 -157.324 228.769 -157.094 229.404L-155.325 234.298L-156.823 234.839L-158.527 230.125C-158.729 229.568 -159.031 229.184 -159.435 228.975C-159.841 228.763 -160.297 228.749 -160.805 228.932C-161.152 229.058 -161.434 229.245 -161.65 229.493C-161.863 229.74 -161.995 230.037 -162.047 230.384C-162.097 230.727 -162.048 231.102 -161.901 231.509ZM-153.316 233.572L-156.098 225.877L-154.6 225.336L-151.819 233.03L-153.316 233.572ZM-155.77 224.416C-156.031 224.511 -156.286 224.505 -156.536 224.399C-156.784 224.288 -156.951 224.111 -157.04 223.867C-157.129 223.62 -157.113 223.376 -156.992 223.136C-156.869 222.892 -156.677 222.722 -156.417 222.628C-156.156 222.534 -155.902 222.542 -155.655 222.653C-155.405 222.759 -155.235 222.935 -155.146 223.183C-155.058 223.426 -155.075 223.671 -155.198 223.915C-155.319 224.155 -155.51 224.322 -155.77 224.416ZM-146.14 224.402L-147.411 225.133C-147.53 224.98 -147.68 224.847 -147.86 224.735C-148.037 224.621 -148.247 224.552 -148.491 224.526C-148.734 224.501 -149.011 224.545 -149.321 224.657C-149.746 224.81 -150.065 225.033 -150.28 225.326C-150.497 225.616 -150.551 225.909 -150.444 226.207C-150.351 226.464 -150.181 226.636 -149.933 226.724C-149.686 226.813 -149.333 226.83 -148.872 226.777L-147.549 226.616C-146.781 226.523 -146.163 226.585 -145.692 226.8C-145.222 227.015 -144.888 227.395 -144.691 227.939C-144.525 228.4 -144.51 228.859 -144.647 229.316C-144.781 229.769 -145.049 230.183 -145.449 230.558C-145.847 230.932 -146.356 231.231 -146.977 231.456C-147.839 231.767 -148.608 231.838 -149.285 231.667C-149.964 231.493 -150.488 231.088 -150.858 230.451L-149.49 229.708C-149.263 230.052 -148.974 230.271 -148.624 230.363C-148.274 230.452 -147.874 230.415 -147.424 230.252C-146.933 230.075 -146.577 229.831 -146.357 229.521C-146.138 229.208 -146.082 228.902 -146.189 228.605C-146.276 228.365 -146.439 228.195 -146.679 228.097C-146.915 227.997 -147.232 227.972 -147.63 228.021L-149.035 228.207C-149.812 228.303 -150.438 228.234 -150.911 228.001C-151.381 227.767 -151.714 227.376 -151.912 226.828C-152.077 226.374 -152.093 225.931 -151.963 225.498C-151.832 225.066 -151.577 224.674 -151.199 224.321C-150.821 223.966 -150.343 223.684 -149.766 223.475C-148.934 223.174 -148.214 223.118 -147.606 223.306C-147 223.491 -146.511 223.856 -146.14 224.402ZM-142.394 224.458L-140.743 229.027L-142.24 229.568L-145.949 219.309L-144.471 218.774L-143.091 222.592L-142.996 222.557C-142.965 222.078 -142.809 221.649 -142.526 221.272C-142.244 220.894 -141.804 220.597 -141.206 220.381C-140.678 220.19 -140.178 220.132 -139.705 220.207C-139.23 220.28 -138.805 220.493 -138.432 220.845C-138.057 221.193 -137.754 221.688 -137.522 222.329L-135.753 227.223L-137.251 227.765L-138.955 223.051C-139.159 222.486 -139.462 222.101 -139.865 221.896C-140.269 221.687 -140.73 221.676 -141.248 221.863C-141.602 221.991 -141.892 222.181 -142.118 222.432C-142.341 222.683 -142.48 222.982 -142.535 223.331C-142.588 223.675 -142.541 224.051 -142.394 224.458ZM-123.882 215.104L-125.445 215.669C-125.626 215.357 -125.844 215.104 -126.1 214.909C-126.355 214.714 -126.633 214.571 -126.934 214.48C-127.235 214.389 -127.549 214.351 -127.876 214.367C-128.199 214.382 -128.524 214.449 -128.851 214.567C-129.442 214.781 -129.918 215.121 -130.278 215.587C-130.635 216.052 -130.845 216.62 -130.908 217.293C-130.967 217.964 -130.847 218.713 -130.548 219.542C-130.246 220.376 -129.858 221.033 -129.383 221.511C-128.905 221.987 -128.379 222.288 -127.805 222.413C-127.231 222.538 -126.652 222.495 -126.068 222.283C-125.744 222.166 -125.452 222.012 -125.193 221.82C-124.932 221.624 -124.714 221.396 -124.54 221.136C-124.365 220.877 -124.241 220.592 -124.168 220.283C-124.093 219.969 -124.083 219.636 -124.138 219.286L-122.573 218.726C-122.474 219.261 -122.468 219.783 -122.556 220.295C-122.641 220.801 -122.815 221.276 -123.078 221.718C-123.338 222.156 -123.677 222.545 -124.095 222.884C-124.512 223.224 -125.003 223.496 -125.567 223.7C-126.455 224.021 -127.323 224.096 -128.17 223.927C-129.018 223.754 -129.784 223.346 -130.47 222.702C-131.152 222.058 -131.691 221.19 -132.086 220.097C-132.482 219.002 -132.621 217.989 -132.504 217.06C-132.388 216.127 -132.059 215.324 -131.516 214.652C-130.975 213.977 -130.262 213.48 -129.377 213.16C-128.833 212.963 -128.297 212.858 -127.769 212.845C-127.239 212.827 -126.731 212.9 -126.245 213.064C-125.76 213.225 -125.317 213.476 -124.914 213.818C-124.512 214.156 -124.168 214.585 -123.882 215.104ZM-119.801 216.291L-118.15 220.86L-119.648 221.401L-123.356 211.142L-121.878 210.608L-120.499 214.425L-120.403 214.391C-120.373 213.911 -120.216 213.483 -119.934 213.105C-119.651 212.727 -119.211 212.43 -118.613 212.214C-118.085 212.023 -117.585 211.965 -117.113 212.04C-116.637 212.113 -116.212 212.326 -115.84 212.679C-115.465 213.026 -115.161 213.521 -114.93 214.162L-113.16 219.056L-114.658 219.598L-116.362 214.884C-116.566 214.32 -116.87 213.935 -117.272 213.729C-117.677 213.52 -118.137 213.509 -118.655 213.696C-119.009 213.824 -119.299 214.014 -119.525 214.266C-119.748 214.516 -119.887 214.816 -119.943 215.164C-119.996 215.508 -119.949 215.884 -119.801 216.291ZM-108.861 217.695C-109.348 217.871 -109.822 217.94 -110.281 217.902C-110.742 217.861 -111.15 217.709 -111.506 217.444C-111.858 217.179 -112.126 216.794 -112.308 216.29C-112.465 215.856 -112.511 215.469 -112.445 215.128C-112.38 214.787 -112.235 214.483 -112.01 214.217C-111.785 213.951 -111.512 213.712 -111.192 213.502C-110.872 213.292 -110.537 213.099 -110.189 212.924C-109.747 212.704 -109.389 212.526 -109.114 212.388C-108.84 212.248 -108.652 212.114 -108.551 211.987C-108.45 211.86 -108.432 211.706 -108.497 211.525L-108.509 211.49C-108.668 211.053 -108.914 210.759 -109.248 210.607C-109.578 210.455 -109.986 210.466 -110.47 210.641C-110.975 210.824 -111.331 211.079 -111.541 211.408C-111.749 211.732 -111.859 212.05 -111.871 212.36L-113.395 212.548C-113.397 212.02 -113.289 211.555 -113.073 211.152C-112.854 210.744 -112.557 210.399 -112.184 210.117C-111.811 209.831 -111.393 209.604 -110.928 209.436C-110.621 209.325 -110.282 209.244 -109.912 209.194C-109.539 209.138 -109.168 209.151 -108.799 209.233C-108.426 209.313 -108.079 209.496 -107.757 209.78C-107.437 210.06 -107.175 210.481 -106.972 211.042L-105.125 216.152L-106.588 216.681L-106.968 215.629L-107.028 215.65C-107.055 215.879 -107.132 216.122 -107.258 216.379C-107.384 216.636 -107.577 216.881 -107.836 217.115C-108.095 217.348 -108.437 217.542 -108.861 217.695ZM-108.97 216.375C-108.556 216.225 -108.231 216.015 -107.997 215.746C-107.758 215.474 -107.61 215.179 -107.552 214.86C-107.492 214.536 -107.516 214.222 -107.626 213.918L-107.985 212.926C-108.019 212.999 -108.104 213.086 -108.241 213.189C-108.376 213.287 -108.534 213.387 -108.715 213.491C-108.898 213.591 -109.077 213.687 -109.251 213.78C-109.426 213.87 -109.572 213.946 -109.69 214.007C-109.967 214.149 -110.21 214.307 -110.419 214.48C-110.625 214.653 -110.77 214.847 -110.855 215.062C-110.937 215.273 -110.93 215.512 -110.833 215.78C-110.699 216.15 -110.461 216.381 -110.118 216.473C-109.777 216.561 -109.394 216.528 -108.97 216.375ZM-102.087 218.316L-105.912 207.736L-104.449 207.207L-103.998 208.455L-103.873 208.41C-103.844 208.218 -103.786 207.987 -103.698 207.718C-103.61 207.448 -103.45 207.182 -103.216 206.92C-102.983 206.655 -102.628 206.436 -102.151 206.263C-101.529 206.039 -100.918 205.995 -100.317 206.133C-99.7162 206.271 -99.1702 206.585 -98.6794 207.076C-98.1852 207.566 -97.7878 208.226 -97.4872 209.058C-97.1866 209.89 -97.0675 210.653 -97.1298 211.347C-97.1933 212.039 -97.4092 212.632 -97.7776 213.128C-98.1471 213.62 -98.6425 213.979 -99.2637 214.203C-99.7312 214.372 -100.142 214.432 -100.496 214.382C-100.847 214.332 -101.143 214.231 -101.386 214.081C-101.629 213.931 -101.826 213.791 -101.975 213.659L-102.065 213.692L-100.589 217.775L-102.087 218.316ZM-103.053 211.053C-102.858 211.594 -102.608 212.04 -102.303 212.391C-101.999 212.741 -101.657 212.978 -101.276 213.101C-100.897 213.221 -100.492 213.203 -100.061 213.047C-99.6136 212.885 -99.2824 212.631 -99.0675 212.286C-98.8539 211.937 -98.7445 211.529 -98.7393 211.063C-98.7309 210.595 -98.8196 210.104 -99.0055 209.59C-99.189 209.082 -99.4306 208.654 -99.7303 208.306C-100.027 207.956 -100.369 207.719 -100.757 207.595C-101.142 207.47 -101.56 207.489 -102.011 207.652C-102.445 207.809 -102.772 208.053 -102.992 208.386C-103.208 208.717 -103.321 209.111 -103.33 209.567C-103.338 210.023 -103.246 210.519 -103.053 211.053ZM-93.6133 203.291L-93.1787 204.493L-97.3817 206.012L-97.8163 204.81L-93.6133 203.291ZM-97.3555 202.559L-95.8577 202.018L-93.2266 209.296C-93.1216 209.587 -92.9991 209.79 -92.8592 209.906C-92.7204 210.018 -92.5729 210.076 -92.4167 210.08C-92.2583 210.079 -92.0973 210.049 -91.9337 209.99C-91.8134 209.947 -91.7113 209.9 -91.6271 209.851C-91.543 209.802 -91.4777 209.763 -91.4312 209.735L-90.7134 210.874C-90.7882 210.939 -90.8997 211.017 -91.0479 211.109C-91.1949 211.203 -91.3881 211.296 -91.6273 211.386C-92.019 211.535 -92.4117 211.598 -92.8055 211.574C-93.1992 211.55 -93.5568 211.423 -93.8783 211.192C-94.1997 210.96 -94.4444 210.613 -94.6122 210.148L-97.3555 202.559ZM-85.8853 209.373C-86.6434 209.647 -87.3549 209.721 -88.0197 209.595C-88.6823 209.464 -89.2691 209.157 -89.78 208.674C-90.2888 208.185 -90.6874 207.542 -90.976 206.744C-91.2609 205.956 -91.365 205.208 -91.2884 204.501C-91.2085 203.792 -90.964 203.173 -90.5549 202.644C-90.1425 202.114 -89.5789 201.719 -88.8643 201.461C-88.4301 201.304 -87.9833 201.224 -87.524 201.22C-87.0647 201.216 -86.6175 201.309 -86.1825 201.5C-85.7475 201.69 -85.3477 201.996 -84.9832 202.42C-84.62 202.84 -84.3122 203.399 -84.0599 204.097L-83.8679 204.628L-89.9845 206.839L-90.3901 205.717L-85.7413 204.036C-85.8838 203.642 -86.0901 203.322 -86.3602 203.076C-86.6316 202.827 -86.9446 202.666 -87.2991 202.594C-87.6503 202.521 -88.0196 202.554 -88.407 202.695C-88.8278 202.847 -89.1577 203.083 -89.3968 203.403C-89.6337 203.719 -89.7776 204.074 -89.8284 204.466C-89.8771 204.853 -89.832 205.239 -89.6932 205.623L-89.3763 206.5C-89.1904 207.014 -88.9421 207.419 -88.6314 207.715C-88.3173 208.009 -87.9622 208.192 -87.5661 208.264C-87.1713 208.333 -86.7551 208.288 -86.3176 208.13C-86.0337 208.027 -85.7894 207.894 -85.5846 207.729C-85.381 207.561 -85.2236 207.365 -85.1124 207.139C-85.0012 206.914 -84.944 206.665 -84.9408 206.392L-83.4307 206.135C-83.3934 206.593 -83.4649 207.033 -83.6453 207.453C-83.8236 207.869 -84.1018 208.243 -84.4798 208.576C-84.8558 208.904 -85.3243 209.17 -85.8853 209.373ZM-80.9783 207.423L-83.7597 199.729L-82.312 199.206L-81.8701 200.428L-81.79 200.399C-81.7994 199.934 -81.67 199.519 -81.4017 199.154C-81.1313 198.784 -80.7706 198.518 -80.3198 198.355C-80.2263 198.321 -80.1148 198.285 -79.9855 198.246C-79.8529 198.205 -79.748 198.177 -79.6709 198.16L-79.153 199.593C-79.2191 199.598 -79.3327 199.618 -79.4935 199.654C-79.6556 199.686 -79.8134 199.73 -79.9671 199.785C-80.3211 199.913 -80.6095 200.103 -80.8324 200.353C-81.0531 200.599 -81.1959 200.883 -81.2609 201.205C-81.327 201.523 -81.2997 201.849 -81.179 202.183L-79.4805 206.882L-80.9783 207.423ZM-68.414 203.04C-69.0418 203.267 -69.6497 203.351 -70.2375 203.292C-70.8233 203.228 -71.3414 203.038 -71.792 202.721C-72.2425 202.404 -72.5762 201.977 -72.793 201.44L-71.2901 200.897C-71.0941 201.324 -70.7677 201.616 -70.3111 201.772C-69.8545 201.928 -69.379 201.917 -68.8848 201.738C-68.4907 201.595 -68.1743 201.379 -67.9356 201.089C-67.6947 200.794 -67.5454 200.455 -67.4876 200.072C-67.4265 199.687 -67.4702 199.29 -67.6187 198.879C-67.7696 198.461 -67.9944 198.122 -68.293 197.859C-68.5917 197.597 -68.9334 197.43 -69.3183 197.358C-69.6998 197.284 -70.0949 197.319 -70.5035 197.463C-70.8141 197.576 -71.1071 197.742 -71.3824 197.962C-71.6577 198.183 -71.8608 198.415 -71.9917 198.658L-73.4854 198.96L-74.7781 193.582L-69.1374 191.543L-68.6576 192.871L-73.0108 194.444L-72.2988 197.433L-72.2387 197.411C-72.1083 197.145 -71.9014 196.887 -71.6178 196.637C-71.331 196.386 -70.9972 196.192 -70.6164 196.054C-69.9919 195.828 -69.3822 195.776 -68.7871 195.897C-68.1888 196.017 -67.6564 196.283 -67.1899 196.696C-66.7213 197.104 -66.3686 197.641 -66.1317 198.307C-65.8882 198.971 -65.8242 199.618 -65.9397 200.249C-66.052 200.878 -66.321 201.44 -66.7467 201.934C-67.1702 202.423 -67.726 202.792 -68.414 203.04ZM-57.0491 198.966C-57.5367 199.143 -58.0101 199.212 -58.4694 199.174C-58.9299 199.133 -59.3381 198.98 -59.6941 198.716C-60.0467 198.451 -60.3142 198.066 -60.4965 197.562C-60.6534 197.128 -60.6991 196.74 -60.6335 196.399C-60.5679 196.058 -60.4228 195.755 -60.1981 195.488C-59.9734 195.222 -59.7008 194.984 -59.3803 194.774C-59.0598 194.563 -58.7254 194.371 -58.3771 194.196C-57.9355 193.976 -57.5772 193.797 -57.302 193.66C-57.0281 193.519 -56.8405 193.385 -56.7392 193.258C-56.6379 193.131 -56.6199 192.977 -56.6851 192.797L-56.6978 192.762C-56.8559 192.324 -57.102 192.03 -57.4361 191.879C-57.7668 191.727 -58.1742 191.738 -58.6585 191.913C-59.1628 192.095 -59.5198 192.351 -59.7294 192.68C-59.937 193.004 -60.0469 193.321 -60.0594 193.631L-61.5829 193.82C-61.5849 193.292 -61.4776 192.826 -61.2608 192.423C-61.0419 192.015 -60.7455 191.67 -60.3718 191.388C-59.9993 191.102 -59.581 190.876 -59.1167 190.708C-58.8095 190.597 -58.4706 190.516 -58.1001 190.465C-57.7274 190.41 -57.3564 190.423 -56.987 190.504C-56.6143 190.585 -56.2671 190.767 -55.9454 191.051C-55.625 191.332 -55.3633 191.753 -55.1605 192.314L-53.3135 197.423L-54.7763 197.952L-55.1565 196.9L-55.2167 196.922C-55.2435 197.151 -55.32 197.393 -55.446 197.651C-55.5721 197.908 -55.7648 198.153 -56.0241 198.386C-56.2833 198.62 -56.625 198.813 -57.0491 198.966ZM-57.1581 197.646C-56.744 197.497 -56.4196 197.287 -56.1848 197.017C-55.9467 196.746 -55.7986 196.451 -55.7403 196.131C-55.6799 195.807 -55.7047 195.493 -55.8145 195.19L-56.1731 194.198C-56.2072 194.27 -56.2926 194.358 -56.4293 194.46C-56.5639 194.558 -56.722 194.659 -56.9036 194.762C-57.0865 194.862 -57.2649 194.959 -57.4389 195.052C-57.6142 195.142 -57.7605 195.217 -57.8781 195.278C-58.1553 195.42 -58.3985 195.578 -58.6076 195.752C-58.8133 195.924 -58.9584 196.118 -59.0429 196.334C-59.1252 196.545 -59.118 196.784 -59.0215 197.051C-58.8875 197.422 -58.6491 197.653 -58.3065 197.744C-57.965 197.832 -57.5822 197.8 -57.1581 197.646ZM-51.4721 191.592L-49.8207 196.161L-51.3185 196.702L-54.0999 189.008L-52.6621 188.488L-52.2094 189.74L-52.1143 189.706C-52.0845 189.235 -51.9257 188.807 -51.6376 188.424C-51.3462 188.039 -50.9116 187.742 -50.3339 187.533C-49.8096 187.344 -49.3105 187.288 -48.8368 187.366C-48.3642 187.44 -47.9415 187.654 -47.5687 188.006C-47.1959 188.359 -46.8948 188.852 -46.6655 189.487L-44.8963 194.381L-46.3942 194.922L-48.0981 190.208C-48.2997 189.651 -48.6025 189.267 -49.0066 189.058C-49.4118 188.846 -49.8682 188.832 -50.3759 189.015C-50.7232 189.141 -51.0049 189.328 -51.2211 189.576C-51.434 189.823 -51.5664 190.12 -51.6183 190.467C-51.6681 190.81 -51.6194 191.185 -51.4721 191.592ZM-39.9528 192.764C-40.5739 192.988 -41.1857 193.03 -41.7879 192.889C-42.3881 192.743 -42.9336 192.425 -43.4244 191.934C-43.9132 191.439 -44.3078 190.775 -44.6084 189.944C-44.909 189.112 -45.0276 188.351 -44.964 187.659C-44.8972 186.967 -44.6767 186.376 -44.3026 185.885C-43.9285 185.395 -43.4325 185.038 -42.8147 184.815C-42.3371 184.643 -41.9241 184.584 -41.5756 184.639C-41.2249 184.69 -40.9314 184.791 -40.6951 184.944C-40.4554 185.095 -40.2615 185.235 -40.1134 185.362L-40.0232 185.33L-41.4012 181.518L-39.9034 180.976L-36.1949 191.235L-37.6576 191.764L-38.0904 190.567L-38.2157 190.612C-38.2467 190.808 -38.3093 191.043 -38.4036 191.315C-38.4945 191.585 -38.6586 191.852 -38.8957 192.115C-39.1329 192.379 -39.4852 192.595 -39.9528 192.764ZM-40.0839 191.367C-39.6531 191.211 -39.3301 190.966 -39.115 190.631C-38.8977 190.292 -38.7859 189.891 -38.7795 189.428C-38.7698 188.964 -38.8628 188.462 -39.0584 187.921C-39.2515 187.386 -39.4973 186.946 -39.7958 186.601C-40.0943 186.256 -40.4326 186.025 -40.8107 185.909C-41.1888 185.793 -41.5966 185.814 -42.0341 185.972C-42.485 186.135 -42.8184 186.387 -43.0345 186.73C-43.2506 187.072 -43.3624 187.473 -43.3699 187.933C-43.3741 188.391 -43.2845 188.874 -43.101 189.382C-42.9151 189.896 -42.6711 190.331 -42.369 190.686C-42.0669 191.041 -41.7221 191.285 -41.3346 191.417C-40.945 191.544 -40.5281 191.527 -40.0839 191.367ZM-26.6602 181.213L-27.9309 181.944C-28.0504 181.791 -28.2003 181.658 -28.3806 181.546C-28.5576 181.433 -28.7677 181.363 -29.011 181.338C-29.2543 181.312 -29.5312 181.356 -29.8418 181.468C-30.2659 181.621 -30.5855 181.845 -30.8006 182.138C-31.0168 182.427 -31.0713 182.721 -30.9638 183.018C-30.8709 183.275 -30.7008 183.448 -30.4537 183.536C-30.2066 183.624 -29.8529 183.642 -29.3926 183.588L-28.0688 183.427C-27.3017 183.335 -26.6829 183.396 -26.2124 183.611C-25.742 183.826 -25.4084 184.206 -25.2116 184.75C-25.045 185.211 -25.0301 185.67 -25.1669 186.128C-25.3015 186.58 -25.5692 186.994 -25.9698 187.369C-26.367 187.743 -26.8762 188.043 -27.4974 188.267C-28.359 188.579 -29.1284 188.649 -29.8056 188.478C-30.4839 188.305 -31.008 187.899 -31.3779 187.263L-30.0098 186.519C-29.7832 186.864 -29.4947 187.082 -29.1441 187.175C-28.7948 187.263 -28.3947 187.226 -27.9438 187.064C-27.4529 186.886 -27.0973 186.642 -26.8771 186.332C-26.658 186.019 -26.6022 185.714 -26.7097 185.417C-26.7966 185.176 -26.9598 185.007 -27.1993 184.908C-27.4354 184.809 -27.7523 184.783 -28.1498 184.833L-29.5555 185.018C-30.3327 185.114 -30.9578 185.045 -31.431 184.812C-31.9008 184.578 -32.2347 184.187 -32.4327 183.639C-32.5969 183.185 -32.6136 182.742 -32.4829 182.31C-32.3522 181.877 -32.0976 181.485 -31.7188 181.133C-31.3414 180.777 -30.8637 180.495 -30.286 180.286C-29.4544 179.986 -28.7346 179.929 -28.1267 180.118C-27.5199 180.302 -27.0311 180.667 -26.6602 181.213ZM-19.04 181.426L-20.6679 176.923L-19.165 176.38L-16.3837 184.074L-17.8565 184.607L-18.3381 183.274L-18.4183 183.303C-18.4468 183.778 -18.6069 184.223 -18.8987 184.638C-19.1883 185.048 -19.622 185.358 -20.1997 185.567C-20.694 185.746 -21.1707 185.795 -21.6299 185.716C-22.087 185.632 -22.5019 185.414 -22.8747 185.061C-23.2442 184.708 -23.5436 184.214 -23.773 183.579L-25.5421 178.685L-24.0443 178.143L-22.3403 182.857C-22.1508 183.382 -21.8546 183.747 -21.4518 183.952C-21.049 184.158 -20.6155 184.177 -20.1512 184.009C-19.8707 183.907 -19.6172 183.736 -19.3907 183.496C-19.1609 183.254 -19.0054 182.958 -18.9244 182.608C-18.84 182.257 -18.8785 181.863 -19.04 181.426ZM-14.3711 183.347L-17.1525 175.652L-15.7148 175.133L-15.2621 176.385L-15.1669 176.351C-15.1599 175.868 -15.0172 175.443 -14.7389 175.074C-14.4618 174.702 -14.0695 174.425 -13.5618 174.241C-13.0475 174.055 -12.5733 174.02 -12.139 174.135C-11.7014 174.248 -11.3231 174.485 -11.004 174.846L-10.9239 174.817C-10.8887 174.34 -10.7147 173.907 -10.4021 173.518C-10.0907 173.126 -9.65779 172.83 -9.10341 172.629C-8.40542 172.377 -7.75694 172.39 -7.15796 172.668C-6.55565 172.945 -6.09514 173.524 -5.77644 174.406L-3.91133 179.566L-5.40916 180.107L-7.22357 175.088C-7.41189 174.567 -7.69024 174.241 -8.05861 174.11C-8.42699 173.978 -8.80821 173.984 -9.20229 174.126C-9.68988 174.303 -10.0146 174.59 -10.1765 174.988C-10.3395 175.383 -10.3366 175.815 -10.1676 176.282L-8.39481 181.187L-9.88763 181.726L-11.7364 176.611C-11.8873 176.194 -12.1389 175.905 -12.4912 175.746C-12.8434 175.586 -13.2282 175.582 -13.6457 175.733C-13.9296 175.835 -14.1646 176.005 -14.3507 176.242C-14.5347 176.475 -14.6525 176.75 -14.7041 177.067C-14.7523 177.383 -14.7136 177.714 -14.5881 178.061L-12.8733 182.805L-14.3711 183.347ZM-1.90378 178.84L-4.68515 171.146L-3.24743 170.626L-2.79474 171.878L-2.69956 171.844C-2.69257 171.362 -2.54992 170.936 -2.27161 170.568C-1.9945 170.196 -1.60214 169.918 -1.09451 169.734C-0.580203 169.549 -0.105929 169.513 0.328312 169.628C0.765893 169.742 1.14423 169.979 1.46332 170.339L1.54347 170.31C1.57866 169.833 1.75258 169.4 2.06521 169.011C2.37664 168.619 2.80954 168.323 3.36392 168.123C4.06191 167.871 4.71039 167.883 5.30937 168.162C5.91168 168.439 6.37219 169.018 6.69089 169.9L8.556 175.059L7.05817 175.601L5.24376 170.581C5.05544 170.06 4.77709 169.734 4.40871 169.603C4.04034 169.472 3.65911 169.477 3.26504 169.62C2.77745 169.796 2.45272 170.083 2.29086 170.482C2.12778 170.877 2.13075 171.308 2.29976 171.776L4.07252 176.68L2.5797 177.22L0.730883 172.105C0.579984 171.687 0.328414 171.399 -0.023825 171.239C-0.376064 171.08 -0.760912 171.075 -1.17837 171.226C-1.46224 171.329 -1.69724 171.499 -1.88337 171.736C-2.06737 171.968 -2.18516 172.243 -2.23673 172.56C-2.28497 172.876 -2.24631 173.207 -2.12077 173.555L-0.405949 178.299L-1.90378 178.84ZM12.8643 173.694C12.3768 173.871 11.9033 173.94 11.4441 173.902C10.9836 173.861 10.5754 173.708 10.2194 173.444C9.86673 173.179 9.59927 172.794 9.41698 172.29C9.26005 171.856 9.21437 171.468 9.27995 171.127C9.34553 170.786 9.49067 170.483 9.71539 170.217C9.94011 169.95 10.2127 169.712 10.5332 169.502C10.8537 169.292 11.1881 169.099 11.5364 168.924C11.978 168.704 12.3363 168.525 12.6115 168.388C12.8854 168.248 13.073 168.114 13.1743 167.986C13.2755 167.859 13.2936 167.705 13.2284 167.525L13.2157 167.49C13.0576 167.052 12.8115 166.758 12.4774 166.607C12.1467 166.455 11.7392 166.466 11.255 166.641C10.7507 166.823 10.3937 167.079 10.184 167.408C9.97651 167.732 9.86653 168.049 9.8541 168.36L8.33055 168.548C8.32853 168.02 8.43591 167.554 8.6527 167.151C8.87162 166.744 9.16794 166.399 9.54165 166.116C9.91416 165.831 10.3325 165.604 10.7967 165.436C11.104 165.325 11.4429 165.244 11.8134 165.193C12.1861 165.138 12.5571 165.151 12.9265 165.233C13.2992 165.313 13.6464 165.495 13.9681 165.779C14.2885 166.06 14.5502 166.481 14.753 167.042L16.6 172.152L15.1372 172.68L14.7569 171.628L14.6968 171.65C14.67 171.879 14.5935 172.122 14.4674 172.379C14.3413 172.636 14.1487 172.881 13.8894 173.114C13.6302 173.348 13.2885 173.541 12.8643 173.694ZM12.7554 172.375C13.1695 172.225 13.4939 172.015 13.7287 171.745C13.9667 171.474 14.1149 171.179 14.1732 170.859C14.2335 170.536 14.2088 170.222 14.099 169.918L13.7404 168.926C13.7063 168.999 13.6209 169.086 13.4842 169.188C13.3496 169.286 13.1915 169.387 13.0098 169.49C12.827 169.59 12.6486 169.687 12.4745 169.78C12.2993 169.87 12.1529 169.945 12.0354 170.007C11.7581 170.148 11.515 170.306 11.3059 170.48C11.1002 170.652 10.9551 170.847 10.8706 171.062C10.7883 171.273 10.7954 171.512 10.892 171.779C11.026 172.15 11.2643 172.381 11.607 172.472C11.9484 172.56 12.3312 172.528 12.7554 172.375ZM18.595 171.43L15.8136 163.736L17.2614 163.213L17.7032 164.435L17.7833 164.406C17.7739 163.941 17.9033 163.526 18.1716 163.161C18.4421 162.791 18.8027 162.525 19.2536 162.362C19.3471 162.328 19.4585 162.292 19.5878 162.253C19.7205 162.212 19.8253 162.184 19.9024 162.167L20.4203 163.6C20.3542 163.605 20.2407 163.625 20.0798 163.661C19.9177 163.693 19.7599 163.737 19.6062 163.792C19.2522 163.92 18.9638 164.109 18.7409 164.36C18.5202 164.606 18.3774 164.89 18.3124 165.212C18.2463 165.53 18.2736 165.856 18.3943 166.19L20.0928 170.889L18.595 171.43ZM24.009 169.473L21.2276 161.779L22.7254 161.237L25.5068 168.932L24.009 169.473ZM21.5549 160.318C21.2944 160.412 21.0392 160.406 20.7894 160.3C20.5418 160.19 20.3739 160.013 20.2858 159.769C20.1964 159.522 20.2122 159.278 20.3331 159.038C20.4562 158.793 20.6479 158.624 20.9084 158.53C21.1689 158.436 21.423 158.444 21.6707 158.554C21.9205 158.661 22.09 158.837 22.1793 159.084C22.2675 159.328 22.25 159.572 22.127 159.817C22.0061 160.057 21.8154 160.224 21.5549 160.318ZM27.3616 168.262L26.9904 167.235L29.2442 160.433L29.2189 160.363L25.1863 161.821L24.7154 160.518L30.6166 158.385L31.0114 159.477L28.8942 166.156L28.9196 166.226L33.0674 164.726L33.5382 166.029L27.3616 168.262ZM38.4573 164.426C37.6992 164.7 36.9878 164.774 36.323 164.648C35.6603 164.518 35.0735 164.211 34.5626 163.727C34.0539 163.239 33.6552 162.596 33.3667 161.798C33.0818 161.009 32.9776 160.262 33.0542 159.554C33.1342 158.846 33.3787 158.227 33.7878 157.698C34.2002 157.167 34.7637 156.773 35.4784 156.514C35.9126 156.357 36.3593 156.277 36.8187 156.273C37.278 156.27 37.7252 156.363 38.1602 156.553C38.5952 156.743 38.9949 157.05 39.3594 157.473C39.7227 157.893 40.0305 158.452 40.2828 159.15L40.4747 159.681L34.3582 161.892L33.9525 160.77L38.6013 159.09C38.4589 158.696 38.2526 158.376 37.9824 158.13C37.7111 157.88 37.3981 157.72 37.0436 157.648C36.6924 157.575 36.3231 157.608 35.9357 157.748C35.5149 157.9 35.185 158.136 34.9459 158.457C34.7089 158.773 34.565 159.127 34.5142 159.519C34.4656 159.907 34.5106 160.293 34.6495 160.677L34.9663 161.553C35.1523 162.068 35.4006 162.473 35.7113 162.768C36.0253 163.062 36.3804 163.246 36.7765 163.318C37.1714 163.386 37.5876 163.342 38.0251 163.184C38.309 163.081 38.5533 162.947 38.7581 162.783C38.9617 162.615 39.1191 162.418 39.2302 162.193C39.3414 161.968 39.3986 161.719 39.4019 161.445L40.9119 161.188C40.9493 161.647 40.8777 162.086 40.6973 162.506C40.519 162.922 40.2409 163.296 39.8628 163.629C39.4869 163.958 39.0184 164.224 38.4573 164.426ZM47.5318 158.02L46.8609 156.195L47.1214 156.101L49.0101 151.736L50.8035 151.088L48.6469 156.059L48.4115 156.144L47.5318 158.02ZM47.0976 161.128L43.3891 150.868L44.887 150.327L48.5955 160.586L47.0976 161.128ZM51.9568 159.371L47.8797 156.71L48.5332 155.29L53.7953 158.706L51.9568 159.371ZM58.0055 157.36C57.2474 157.634 56.536 157.708 55.8712 157.582C55.2085 157.452 54.6217 157.145 54.1108 156.661C53.6021 156.173 53.2034 155.53 52.9149 154.731C52.63 153.943 52.5259 153.195 52.6025 152.488C52.6824 151.78 52.9269 151.161 53.336 150.631C53.7484 150.101 54.3119 149.707 55.0266 149.448C55.4608 149.291 55.9075 149.211 56.3669 149.207C56.8262 149.204 57.2734 149.297 57.7084 149.487C58.1434 149.677 58.5432 149.984 58.9076 150.407C59.2709 150.827 59.5787 151.386 59.831 152.084L60.0229 152.615L53.9064 154.826L53.5008 153.704L58.1495 152.024C58.0071 151.63 57.8008 151.309 57.5306 151.064C57.2593 150.814 56.9463 150.654 56.5918 150.582C56.2406 150.508 55.8713 150.542 55.4839 150.682C55.0631 150.834 54.7332 151.07 54.4941 151.391C54.2571 151.707 54.1133 152.061 54.0625 152.453C54.0138 152.841 54.0589 153.227 54.1977 153.611L54.5146 154.487C54.7005 155.002 54.9488 155.407 55.2595 155.702C55.5736 155.996 55.9286 156.179 56.3247 156.252C56.7196 156.32 57.1358 156.276 57.5733 156.117C57.8572 156.015 58.1015 155.881 58.3063 155.717C58.5099 155.549 58.6673 155.352 58.7785 155.127C58.8896 154.901 58.9468 154.652 58.9501 154.379L60.4601 154.122C60.4975 154.581 60.426 155.02 60.2455 155.44C60.0673 155.856 59.7891 156.23 59.411 156.563C59.0351 156.892 58.5666 157.157 58.0055 157.36ZM64.6819 158.034C64.4582 158.115 64.2478 158.17 64.0509 158.2C63.8551 158.233 63.7049 158.245 63.6002 158.238L63.5173 156.88C63.8177 156.855 64.073 156.798 64.2831 156.711C64.4932 156.624 64.6529 156.475 64.7622 156.266C64.8749 156.055 64.9331 155.757 64.9369 155.37L64.9375 154.792L59.3046 148.015L60.9076 147.436L65.0148 152.703L65.0949 152.674L64.8852 145.998L66.4932 145.417L66.4748 155.284C66.4727 155.738 66.4082 156.145 66.2813 156.504C66.1556 156.867 65.9612 157.175 65.6979 157.429C65.4347 157.682 65.0961 157.884 64.6819 158.034ZM75.4586 154.138L71.6342 143.558L73.0969 143.03L73.5478 144.277L73.6731 144.232C73.702 144.04 73.7602 143.809 73.8478 143.54C73.9354 143.27 74.0961 143.004 74.3299 142.742C74.5625 142.477 74.9176 142.258 75.3951 142.086C76.0163 141.861 76.6274 141.818 77.2285 141.955C77.8296 142.093 78.3755 142.407 78.8664 142.898C79.3606 143.388 79.758 144.048 80.0586 144.88C80.3592 145.712 80.4783 146.475 80.416 147.169C80.3525 147.861 80.1366 148.454 79.7682 148.95C79.3986 149.442 78.9033 149.801 78.2821 150.025C77.8145 150.194 77.4038 150.254 77.0498 150.204C76.6992 150.154 76.4024 150.053 76.1593 149.903C75.9163 149.753 75.7201 149.613 75.5708 149.482L75.4806 149.514L76.9564 153.597L75.4586 154.138ZM74.4926 146.875C74.6882 147.416 74.9381 147.862 75.2424 148.213C75.5466 148.563 75.889 148.8 76.2695 148.923C76.6488 149.043 77.0539 149.025 77.4847 148.869C77.9322 148.707 78.2634 148.453 78.4783 148.108C78.6919 147.759 78.8013 147.351 78.8064 146.885C78.8149 146.417 78.7262 145.926 78.5403 145.412C78.3568 144.904 78.1152 144.476 77.8155 144.128C77.5192 143.778 77.1768 143.541 76.7884 143.417C76.4033 143.292 75.9853 143.311 75.5345 143.474C75.1003 143.631 74.7734 143.875 74.5537 144.208C74.3374 144.539 74.2248 144.933 74.2161 145.389C74.2073 145.845 74.2995 146.341 74.4926 146.875ZM86.4193 147.089C85.6979 147.35 85.0086 147.412 84.3514 147.276C83.6942 147.14 83.1096 146.828 82.5975 146.341C82.0854 145.854 81.6857 145.213 81.3984 144.418C81.1098 143.62 81.0061 142.869 81.0873 142.163C81.1684 141.458 81.4181 140.843 81.8363 140.318C82.2544 139.793 82.8242 139.4 83.5456 139.139C84.2669 138.879 84.9562 138.816 85.6134 138.953C86.2706 139.089 86.8559 139.402 87.3692 139.893C87.8825 140.383 88.2834 141.027 88.5719 141.825C88.8592 142.62 88.9617 143.369 88.8794 144.07C88.797 144.772 88.5468 145.386 88.1286 145.911C87.7104 146.436 87.1406 146.829 86.4193 147.089ZM85.9698 145.83C86.4373 145.661 86.7801 145.398 86.998 145.039C87.2159 144.681 87.3241 144.27 87.3225 143.806C87.3243 143.341 87.2359 142.861 87.0573 142.367C86.8798 141.876 86.6417 141.453 86.3429 141.096C86.0463 140.735 85.6991 140.485 85.3013 140.346C84.9035 140.206 84.4708 140.221 84.0033 140.39C83.5324 140.56 83.1869 140.827 82.9669 141.189C82.7502 141.551 82.6415 141.966 82.6409 142.434C82.6425 142.898 82.7319 143.376 82.9094 143.867C83.0881 144.361 83.3251 144.787 83.6205 145.144C83.9193 145.501 84.267 145.747 84.6636 145.883C85.0635 146.018 85.4989 146 85.9698 145.83ZM91.6218 145.033L88.8405 137.339L90.3383 136.797L93.1197 144.492L91.6218 145.033ZM89.1677 135.878C88.9073 135.972 88.6521 135.966 88.4023 135.86C88.1547 135.75 87.9868 135.572 87.8986 135.329C87.8093 135.081 87.8251 134.838 87.946 134.598C88.069 134.353 88.2608 134.184 88.5213 134.09C88.7818 133.995 89.0359 134.004 89.2835 134.114C89.5333 134.22 89.7029 134.397 89.7922 134.644C89.8803 134.888 89.8629 135.132 89.7398 135.377C89.6189 135.617 89.4282 135.784 89.1677 135.878ZM94.9811 138.653L96.6326 143.222L95.1347 143.763L92.3534 136.069L93.7911 135.549L94.2438 136.802L94.339 136.767C94.3687 136.296 94.5276 135.868 94.8156 135.485C95.107 135.1 95.5416 134.803 96.1193 134.594C96.6437 134.405 97.1427 134.349 97.6165 134.427C98.089 134.502 98.5117 134.715 98.8845 135.067C99.2573 135.42 99.5584 135.913 99.7877 136.548L101.557 141.442L100.059 141.983L98.3551 137.269C98.1535 136.712 97.8507 136.328 97.4467 136.12C97.0414 135.907 96.585 135.893 96.0774 136.076C95.73 136.202 95.4483 136.389 95.2321 136.637C95.0193 136.884 94.8869 137.181 94.8349 137.528C94.7851 137.871 94.8339 138.246 94.9811 138.653ZM104.376 131.723L104.811 132.925L100.608 134.444L100.173 133.242L104.376 131.723ZM100.634 130.991L102.132 130.45L104.763 137.729C104.868 138.019 104.99 138.222 105.13 138.338C105.269 138.45 105.417 138.508 105.573 138.512C105.731 138.511 105.892 138.482 106.056 138.422C106.176 138.379 106.278 138.333 106.362 138.283C106.446 138.234 106.512 138.195 106.558 138.167L107.276 139.307C107.201 139.371 107.09 139.45 106.942 139.541C106.795 139.636 106.601 139.728 106.362 139.818C105.97 139.967 105.578 140.03 105.184 140.006C104.79 139.982 104.433 139.855 104.111 139.624C103.79 139.393 103.545 139.045 103.377 138.581L100.634 130.991ZM112.354 130.963L111.083 131.694C110.964 131.541 110.814 131.409 110.634 131.296C110.457 131.183 110.246 131.113 110.003 131.088C109.76 131.063 109.483 131.106 109.172 131.218C108.748 131.372 108.429 131.595 108.214 131.888C107.997 132.177 107.943 132.471 108.05 132.768C108.143 133.025 108.313 133.198 108.56 133.286C108.808 133.374 109.161 133.392 109.622 133.339L110.945 133.177C111.712 133.085 112.331 133.146 112.802 133.361C113.272 133.577 113.606 133.956 113.803 134.501C113.969 134.962 113.984 135.421 113.847 135.878C113.713 136.331 113.445 136.745 113.044 137.12C112.647 137.494 112.138 137.793 111.517 138.017C110.655 138.329 109.886 138.399 109.209 138.229C108.53 138.055 108.006 137.649 107.636 137.013L109.004 136.269C109.231 136.614 109.519 136.832 109.87 136.925C110.219 137.014 110.619 136.977 111.07 136.814C111.561 136.636 111.917 136.393 112.137 136.083C112.356 135.769 112.412 135.464 112.305 135.167C112.218 134.926 112.054 134.757 111.815 134.658C111.579 134.559 111.262 134.534 110.864 134.583L109.459 134.768C108.681 134.864 108.056 134.796 107.583 134.563C107.113 134.328 106.779 133.937 106.581 133.39C106.417 132.935 106.401 132.492 106.531 132.06C106.662 131.627 106.917 131.235 107.295 130.883C107.673 130.528 108.15 130.245 108.728 130.037C109.56 129.736 110.28 129.68 110.887 129.868C111.494 130.052 111.983 130.418 112.354 130.963ZM120.867 125.762L121.302 126.964L116.954 128.536L116.519 127.334L120.867 125.762ZM120.493 134.597L117.389 126.011C117.215 125.53 117.176 125.093 117.272 124.7C117.366 124.303 117.559 123.963 117.849 123.681C118.139 123.395 118.487 123.178 118.895 123.031C119.195 122.923 119.461 122.855 119.693 122.827C119.924 122.797 120.098 122.783 120.216 122.786L120.304 124.125C120.226 124.13 120.128 124.139 120.008 124.152C119.887 124.162 119.748 124.195 119.591 124.252C119.227 124.384 118.999 124.568 118.907 124.805C118.819 125.041 118.836 125.329 118.959 125.67L121.991 134.056L120.493 134.597ZM128.188 131.991C127.467 132.252 126.778 132.314 126.12 132.178C125.463 132.042 124.879 131.73 124.366 131.243C123.854 130.756 123.455 130.115 123.167 129.32C122.879 128.522 122.775 127.77 122.856 127.065C122.937 126.36 123.187 125.745 123.605 125.22C124.023 124.695 124.593 124.302 125.315 124.041C126.036 123.78 126.725 123.718 127.382 123.854C128.04 123.991 128.625 124.304 129.138 124.794C129.651 125.285 130.052 125.929 130.341 126.727C130.628 127.522 130.731 128.27 130.648 128.972C130.566 129.674 130.316 130.287 129.898 130.812C129.479 131.337 128.91 131.73 128.188 131.991ZM127.739 130.732C128.206 130.563 128.549 130.299 128.767 129.941C128.985 129.583 129.093 129.172 129.092 128.708C129.093 128.243 129.005 127.763 128.826 127.269C128.649 126.778 128.411 126.354 128.112 125.998C127.815 125.637 127.468 125.387 127.07 125.247C126.672 125.108 126.24 125.123 125.772 125.292C125.301 125.462 124.956 125.728 124.736 126.091C124.519 126.453 124.41 126.868 124.41 127.336C124.411 127.8 124.501 128.277 124.678 128.768C124.857 129.262 125.094 129.688 125.39 130.046C125.688 130.403 126.036 130.649 126.433 130.785C126.832 130.92 127.268 130.902 127.739 130.732ZM133.391 129.935L130.609 122.24L132.057 121.717L132.499 122.939L132.579 122.91C132.57 122.446 132.699 122.031 132.967 121.666C133.238 121.296 133.599 121.03 134.049 120.867C134.143 120.833 134.254 120.796 134.384 120.757C134.516 120.717 134.621 120.688 134.698 120.672L135.216 122.104C135.15 122.109 135.037 122.13 134.876 122.165C134.714 122.197 134.556 122.241 134.402 122.297C134.048 122.425 133.76 122.614 133.537 122.864C133.316 123.11 133.173 123.394 133.108 123.716C133.042 124.034 133.069 124.361 133.19 124.695L134.889 129.393L133.391 129.935ZM-181.968 263.238C-182.589 263.463 -183.201 263.504 -183.803 263.363C-184.403 263.218 -184.948 262.9 -185.439 262.409C-185.928 261.913 -186.323 261.25 -186.623 260.418C-186.924 259.587 -187.042 258.825 -186.979 258.134C-186.912 257.441 -186.692 256.85 -186.317 256.36C-185.943 255.87 -185.447 255.513 -184.83 255.29C-184.352 255.117 -183.939 255.058 -183.59 255.113C-183.24 255.164 -182.946 255.266 -182.71 255.418C-182.47 255.57 -182.276 255.709 -182.128 255.837L-182.038 255.804L-183.416 251.992L-181.918 251.45L-178.21 261.71L-179.673 262.239L-180.105 261.041L-180.231 261.087C-180.262 261.283 -180.324 261.517 -180.418 261.789C-180.509 262.06 -180.673 262.327 -180.911 262.59C-181.148 262.853 -181.5 263.069 -181.968 263.238ZM-182.099 261.841C-181.668 261.686 -181.345 261.44 -181.13 261.106C-180.913 260.767 -180.801 260.366 -180.794 259.903C-180.785 259.439 -180.878 258.936 -181.073 258.395C-181.266 257.861 -181.512 257.421 -181.811 257.076C-182.109 256.73 -182.447 256.5 -182.826 256.383C-183.204 256.267 -183.612 256.288 -184.049 256.446C-184.5 256.609 -184.833 256.862 -185.049 257.204C-185.265 257.547 -185.377 257.948 -185.385 258.407C-185.389 258.866 -185.299 259.349 -185.116 259.856C-184.93 260.371 -184.686 260.805 -184.384 261.161C-184.082 261.516 -183.737 261.759 -183.349 261.891C-182.96 262.018 -182.543 262.002 -182.099 261.841ZM-176.072 260.937L-178.853 253.243L-177.356 252.701L-174.574 260.396L-176.072 260.937ZM-178.526 251.782C-178.787 251.876 -179.042 251.87 -179.292 251.764C-179.539 251.653 -179.707 251.476 -179.795 251.232C-179.885 250.985 -179.869 250.742 -179.748 250.502C-179.625 250.257 -179.433 250.088 -179.173 249.993C-178.912 249.899 -178.658 249.908 -178.41 250.018C-178.16 250.124 -177.991 250.301 -177.902 250.548C-177.813 250.792 -177.831 251.036 -177.954 251.281C-178.075 251.521 -178.266 251.688 -178.526 251.782ZM-168.896 251.767L-170.166 252.498C-170.286 252.345 -170.436 252.212 -170.616 252.1C-170.793 251.987 -171.003 251.917 -171.246 251.892C-171.49 251.866 -171.766 251.91 -172.077 252.022C-172.501 252.176 -172.821 252.399 -173.036 252.692C-173.252 252.981 -173.307 253.275 -173.199 253.572C-173.106 253.829 -172.936 254.002 -172.689 254.09C-172.442 254.178 -172.088 254.196 -171.628 254.142L-170.304 253.981C-169.537 253.889 -168.918 253.95 -168.448 254.165C-167.977 254.38 -167.644 254.76 -167.447 255.305C-167.28 255.765 -167.265 256.224 -167.402 256.682C-167.537 257.134 -167.804 257.548 -168.205 257.924C-168.602 258.297 -169.112 258.597 -169.733 258.821C-170.594 259.133 -171.364 259.203 -172.041 259.033C-172.719 258.859 -173.243 258.453 -173.613 257.817L-172.245 257.073C-172.019 257.418 -171.73 257.636 -171.379 257.729C-171.03 257.818 -170.63 257.781 -170.179 257.618C-169.688 257.44 -169.333 257.196 -169.112 256.886C-168.893 256.573 -168.838 256.268 -168.945 255.971C-169.032 255.73 -169.195 255.561 -169.435 255.462C-169.671 255.363 -169.988 255.337 -170.385 255.387L-171.791 255.572C-172.568 255.668 -173.193 255.599 -173.666 255.366C-174.136 255.132 -174.47 254.741 -174.668 254.194C-174.832 253.739 -174.849 253.296 -174.718 252.864C-174.588 252.431 -174.333 252.039 -173.954 251.687C-173.577 251.331 -173.099 251.049 -172.521 250.84C-171.69 250.54 -170.97 250.484 -170.362 250.672C-169.755 250.856 -169.266 251.221 -168.896 251.767ZM-161.699 255.917C-162.444 256.186 -163.146 256.25 -163.805 256.107C-164.463 255.959 -165.043 255.638 -165.546 255.144C-166.05 254.65 -166.441 254.018 -166.72 253.246C-167.002 252.465 -167.105 251.722 -167.027 251.018C-166.95 250.311 -166.706 249.692 -166.293 249.161C-165.881 248.631 -165.312 248.235 -164.588 247.973C-164.003 247.761 -163.443 247.682 -162.907 247.733C-162.372 247.782 -161.894 247.949 -161.474 248.235C-161.05 248.52 -160.718 248.911 -160.477 249.409L-161.935 249.936C-162.145 249.605 -162.441 249.36 -162.823 249.204C-163.201 249.046 -163.629 249.053 -164.106 249.226C-164.524 249.377 -164.849 249.619 -165.084 249.953C-165.316 250.282 -165.446 250.681 -165.473 251.147C-165.502 251.611 -165.417 252.117 -165.22 252.664C-165.017 253.225 -164.756 253.679 -164.439 254.025C-164.121 254.371 -163.767 254.599 -163.375 254.711C-162.98 254.821 -162.571 254.799 -162.147 254.646C-161.863 254.544 -161.625 254.399 -161.432 254.212C-161.236 254.021 -161.096 253.798 -161.01 253.544C-160.921 253.289 -160.895 253.012 -160.932 252.712L-159.474 252.185C-159.348 252.702 -159.349 253.204 -159.478 253.693C-159.607 254.181 -159.859 254.62 -160.232 255.008C-160.602 255.394 -161.091 255.697 -161.699 255.917ZM-153.271 249.087L-154.899 244.584L-153.396 244.041L-150.615 251.735L-152.088 252.268L-152.57 250.935L-152.65 250.964C-152.678 251.439 -152.838 251.884 -153.13 252.299C-153.42 252.709 -153.853 253.019 -154.431 253.228C-154.925 253.406 -155.402 253.456 -155.861 253.377C-156.318 253.293 -156.733 253.074 -157.106 252.722C-157.476 252.369 -157.775 251.875 -158.004 251.24L-159.774 246.346L-158.276 245.804L-156.572 250.518C-156.382 251.043 -156.086 251.407 -155.683 251.613C-155.28 251.819 -154.847 251.837 -154.383 251.67C-154.102 251.568 -153.849 251.397 -153.622 251.157C-153.392 250.915 -153.237 250.619 -153.156 250.269C-153.071 249.918 -153.11 249.524 -153.271 249.087ZM-144.939 243.107L-146.21 243.839C-146.329 243.685 -146.479 243.553 -146.659 243.44C-146.836 243.327 -147.046 243.258 -147.29 243.232C-147.533 243.207 -147.81 243.25 -148.121 243.363C-148.545 243.516 -148.864 243.739 -149.079 244.032C-149.296 244.322 -149.35 244.615 -149.243 244.912C-149.15 245.169 -148.98 245.342 -148.732 245.43C-148.485 245.518 -148.132 245.536 -147.671 245.483L-146.348 245.321C-145.58 245.229 -144.962 245.291 -144.491 245.506C-144.021 245.721 -143.687 246.101 -143.49 246.645C-143.324 247.106 -143.309 247.565 -143.446 248.022C-143.58 248.475 -143.848 248.889 -144.249 249.264C-144.646 249.638 -145.155 249.937 -145.776 250.162C-146.638 250.473 -147.407 250.543 -148.084 250.373C-148.763 250.199 -149.287 249.794 -149.657 249.157L-148.289 248.413C-148.062 248.758 -147.773 248.977 -147.423 249.069C-147.074 249.158 -146.673 249.121 -146.223 248.958C-145.732 248.78 -145.376 248.537 -145.156 248.227C-144.937 247.914 -144.881 247.608 -144.988 247.311C-145.075 247.071 -145.239 246.901 -145.478 246.803C-145.714 246.703 -146.031 246.678 -146.429 246.727L-147.834 246.912C-148.611 247.008 -149.237 246.94 -149.71 246.707C-150.18 246.473 -150.513 246.082 -150.711 245.534C-150.876 245.08 -150.892 244.636 -150.762 244.204C-150.631 243.772 -150.376 243.379 -149.998 243.027C-149.62 242.672 -149.142 242.39 -148.565 242.181C-147.733 241.88 -147.013 241.824 -146.405 242.012C-145.799 242.197 -145.31 242.562 -144.939 243.107ZM-137.376 240.374L-138.647 241.105C-138.766 240.952 -138.916 240.819 -139.096 240.707C-139.273 240.593 -139.483 240.524 -139.727 240.498C-139.97 240.473 -140.247 240.516 -140.557 240.629C-140.982 240.782 -141.301 241.005 -141.516 241.298C-141.733 241.588 -141.787 241.881 -141.68 242.178C-141.587 242.436 -141.417 242.608 -141.169 242.696C-140.922 242.785 -140.569 242.802 -140.108 242.749L-138.785 242.588C-138.017 242.495 -137.399 242.557 -136.928 242.772C-136.458 242.987 -136.124 243.367 -135.927 243.911C-135.761 244.372 -135.746 244.831 -135.883 245.288C-136.017 245.741 -136.285 246.155 -136.685 246.53C-137.083 246.904 -137.592 247.203 -138.213 247.428C-139.075 247.739 -139.844 247.81 -140.521 247.639C-141.2 247.465 -141.724 247.06 -142.094 246.423L-140.726 245.679C-140.499 246.024 -140.21 246.243 -139.86 246.335C-139.51 246.424 -139.11 246.387 -138.66 246.224C-138.169 246.047 -137.813 245.803 -137.593 245.493C-137.374 245.18 -137.318 244.874 -137.425 244.577C-137.512 244.337 -137.675 244.167 -137.915 244.069C-138.151 243.969 -138.468 243.944 -138.866 243.993L-140.271 244.179C-141.048 244.274 -141.674 244.206 -142.147 243.973C-142.616 243.739 -142.95 243.348 -143.148 242.8C-143.313 242.346 -143.329 241.903 -143.199 241.47C-143.068 241.038 -142.813 240.646 -142.435 240.293C-142.057 239.938 -141.579 239.656 -141.002 239.447C-140.17 239.146 -139.45 239.09 -138.842 239.278C-138.236 239.463 -137.747 239.828 -137.376 240.374ZM-133.476 245.54L-136.258 237.845L-134.76 237.304L-131.979 244.999L-133.476 245.54ZM-135.931 236.385C-136.191 236.479 -136.446 236.473 -136.696 236.367C-136.944 236.256 -137.112 236.079 -137.2 235.835C-137.289 235.588 -137.273 235.345 -137.152 235.105C-137.029 234.86 -136.837 234.691 -136.577 234.596C-136.316 234.502 -136.062 234.51 -135.815 234.621C-135.565 234.727 -135.395 234.904 -135.306 235.151C-135.218 235.395 -135.235 235.639 -135.358 235.883C-135.479 236.123 -135.67 236.291 -135.931 236.385ZM-126.666 243.254C-127.388 243.515 -128.077 243.577 -128.734 243.441C-129.391 243.304 -129.976 242.993 -130.488 242.506C-131 242.019 -131.4 241.378 -131.687 240.583C-131.976 239.785 -132.079 239.033 -131.998 238.328C-131.917 237.623 -131.667 237.007 -131.249 236.482C-130.831 235.957 -130.261 235.565 -129.54 235.304C-128.819 235.043 -128.129 234.981 -127.472 235.117C-126.815 235.253 -126.23 235.567 -125.716 236.057C-125.203 236.547 -124.802 237.192 -124.514 237.99C-124.226 238.785 -124.124 239.533 -124.206 240.235C-124.289 240.937 -124.539 241.55 -124.957 242.075C-125.375 242.6 -125.945 242.993 -126.666 243.254ZM-127.116 241.995C-126.648 241.826 -126.305 241.562 -126.088 241.204C-125.87 240.846 -125.761 240.435 -125.763 239.971C-125.761 239.506 -125.85 239.026 -126.028 238.532C-126.206 238.041 -126.444 237.617 -126.743 237.261C-127.039 236.9 -127.386 236.649 -127.784 236.51C-128.182 236.371 -128.615 236.385 -129.082 236.554C-129.553 236.725 -129.899 236.991 -130.119 237.354C-130.335 237.715 -130.444 238.13 -130.445 238.599C-130.443 239.063 -130.354 239.54 -130.176 240.031C-129.997 240.525 -129.76 240.951 -129.465 241.309C-129.166 241.665 -128.819 241.912 -128.422 242.048C-128.022 242.183 -127.587 242.165 -127.116 241.995ZM-121.617 236.088L-119.966 240.656L-121.464 241.198L-124.245 233.503L-122.807 232.983L-122.355 234.236L-122.259 234.201C-122.23 233.73 -122.071 233.303 -121.783 232.919C-121.491 232.534 -121.057 232.237 -120.479 232.029C-119.955 231.839 -119.456 231.783 -118.982 231.861C-118.509 231.936 -118.087 232.149 -117.714 232.502C-117.341 232.854 -117.04 233.347 -116.811 233.982L-115.042 238.876L-116.539 239.418L-118.243 234.704C-118.445 234.146 -118.748 233.763 -119.152 233.554C-119.557 233.342 -120.013 233.327 -120.521 233.511C-120.868 233.636 -121.15 233.823 -121.366 234.071C-121.579 234.318 -121.712 234.615 -121.764 234.962C-121.813 235.305 -121.765 235.68 -121.617 236.088ZM-157.601 265.184L-157.137 266.466L-161.62 268.087L-162.084 266.804L-157.601 265.184ZM-161.593 264.403L-159.995 263.826L-157.188 271.59C-157.076 271.9 -156.946 272.116 -156.796 272.239C-156.648 272.359 -156.491 272.421 -156.324 272.425C-156.156 272.425 -155.984 272.393 -155.809 272.33C-155.681 272.283 -155.572 272.234 -155.482 272.181C-155.393 272.129 -155.323 272.087 -155.273 272.057L-154.508 273.273C-154.587 273.342 -154.706 273.425 -154.864 273.523C-155.021 273.624 -155.227 273.722 -155.482 273.819C-155.9 273.978 -156.319 274.045 -156.739 274.019C-157.159 273.994 -157.541 273.858 -157.884 273.611C-158.226 273.364 -158.487 272.994 -158.666 272.498L-161.593 264.403ZM-149.438 271.7C-150.207 271.978 -150.943 272.045 -151.644 271.899C-152.345 271.754 -152.968 271.421 -153.514 270.902C-154.061 270.383 -154.487 269.699 -154.794 268.851C-155.101 268 -155.212 267.198 -155.125 266.446C-155.039 265.693 -154.772 265.037 -154.326 264.477C-153.88 263.917 -153.273 263.498 -152.503 263.22C-151.734 262.942 -150.998 262.876 -150.297 263.021C-149.596 263.166 -148.972 263.5 -148.425 264.023C-147.877 264.547 -147.449 265.234 -147.142 266.085C-146.835 266.933 -146.726 267.731 -146.814 268.48C-146.902 269.229 -147.169 269.883 -147.615 270.443C-148.061 271.003 -148.668 271.422 -149.438 271.7ZM-149.917 270.357C-149.419 270.177 -149.053 269.896 -148.821 269.513C-148.588 269.131 -148.473 268.693 -148.474 268.198C-148.472 267.702 -148.567 267.19 -148.757 266.663C-148.947 266.139 -149.201 265.688 -149.519 265.307C-149.836 264.922 -150.206 264.655 -150.63 264.507C-151.055 264.358 -151.516 264.374 -152.015 264.554C-152.517 264.736 -152.886 265.02 -153.12 265.407C-153.352 265.792 -153.467 266.235 -153.468 266.735C-153.466 267.229 -153.371 267.739 -153.182 268.262C-152.991 268.79 -152.738 269.244 -152.423 269.625C-152.104 270.006 -151.734 270.268 -151.311 270.414C-150.884 270.557 -150.42 270.539 -149.917 270.357ZM-143.888 269.507L-146.855 261.299L-145.322 260.745L-144.839 262.081L-144.737 262.044C-144.73 261.53 -144.578 261.076 -144.281 260.683C-143.985 260.286 -143.567 259.99 -143.025 259.794C-142.477 259.596 -141.971 259.558 -141.508 259.68C-141.041 259.802 -140.637 260.055 -140.297 260.439L-140.211 260.408C-140.174 259.899 -139.988 259.437 -139.655 259.023C-139.323 258.605 -138.861 258.289 -138.27 258.075C-137.525 257.806 -136.833 257.82 -136.194 258.116C-135.552 258.412 -135.061 259.03 -134.721 259.97L-132.731 265.474L-134.329 266.051L-136.264 260.697C-136.465 260.142 -136.762 259.794 -137.155 259.654C-137.548 259.514 -137.955 259.52 -138.375 259.672C-138.895 259.86 -139.242 260.166 -139.414 260.591C-139.588 261.013 -139.585 261.473 -139.405 261.971L-137.514 267.203L-139.106 267.778L-141.078 262.322C-141.239 261.877 -141.507 261.569 -141.883 261.399C-142.259 261.229 -142.669 261.224 -143.115 261.385C-143.417 261.495 -143.668 261.676 -143.867 261.929C-144.063 262.177 -144.189 262.47 -144.244 262.808C-144.295 263.145 -144.254 263.499 -144.12 263.869L-142.291 268.929L-143.888 269.507ZM-127.073 263.616C-127.842 263.894 -128.578 263.96 -129.279 263.815C-129.98 263.67 -130.603 263.337 -131.149 262.818C-131.696 262.298 -132.122 261.615 -132.429 260.767C-132.736 259.915 -132.847 259.114 -132.76 258.361C-132.674 257.609 -132.407 256.953 -131.961 256.393C-131.515 255.833 -130.908 255.414 -130.138 255.136C-129.369 254.858 -128.633 254.791 -127.932 254.937C-127.231 255.082 -126.607 255.416 -126.06 255.939C-125.512 256.462 -125.084 257.149 -124.777 258.001C-124.47 258.849 -124.361 259.647 -124.449 260.396C-124.537 261.144 -124.804 261.799 -125.25 262.359C-125.696 262.919 -126.303 263.338 -127.073 263.616ZM-127.552 262.273C-127.054 262.092 -126.688 261.811 -126.456 261.429C-126.223 261.047 -126.108 260.609 -126.109 260.114C-126.107 259.618 -126.202 259.106 -126.392 258.579C-126.582 258.055 -126.836 257.603 -127.154 257.223C-127.471 256.838 -127.841 256.571 -128.265 256.422C-128.69 256.274 -129.151 256.289 -129.65 256.47C-130.152 256.651 -130.521 256.935 -130.755 257.322C-130.987 257.708 -131.103 258.151 -131.103 258.65C-131.102 259.145 -131.006 259.654 -130.817 260.178C-130.626 260.705 -130.373 261.16 -130.058 261.541C-129.74 261.921 -129.369 262.184 -128.946 262.329C-128.519 262.473 -128.055 262.454 -127.552 262.273ZM-121.523 261.423L-124.49 253.215L-122.946 252.657L-122.475 253.961L-122.389 253.93C-122.399 253.434 -122.261 252.991 -121.975 252.602C-121.687 252.208 -121.302 251.924 -120.821 251.75C-120.721 251.714 -120.602 251.675 -120.464 251.633C-120.323 251.59 -120.211 251.559 -120.129 251.542L-119.576 253.07C-119.647 253.075 -119.768 253.097 -119.94 253.135C-120.113 253.169 -120.281 253.216 -120.445 253.275C-120.822 253.412 -121.13 253.613 -121.368 253.881C-121.603 254.143 -121.756 254.446 -121.825 254.789C-121.895 255.129 -121.866 255.477 -121.738 255.833L-119.926 260.845L-121.523 261.423ZM-115.749 259.335L-118.715 251.128L-117.171 250.569L-116.7 251.873L-116.614 251.842C-116.624 251.346 -116.486 250.904 -116.2 250.514C-115.912 250.12 -115.527 249.836 -115.046 249.662C-114.946 249.626 -114.828 249.587 -114.69 249.545C-114.548 249.502 -114.436 249.472 -114.354 249.454L-113.802 250.983C-113.872 250.988 -113.993 251.01 -114.165 251.047C-114.338 251.082 -114.506 251.128 -114.67 251.188C-115.047 251.324 -115.355 251.526 -115.593 251.793C-115.828 252.056 -115.981 252.358 -116.05 252.702C-116.121 253.041 -116.091 253.389 -115.963 253.745L-114.151 258.758L-115.749 259.335ZM-106.75 256.27C-107.52 256.548 -108.255 256.614 -108.956 256.469C-109.657 256.324 -110.281 255.991 -110.827 255.472C-111.373 254.952 -111.8 254.269 -112.106 253.421C-112.414 252.569 -112.524 251.768 -112.438 251.015C-112.351 250.263 -112.085 249.607 -111.639 249.047C-111.193 248.487 -110.585 248.068 -109.816 247.79C-109.046 247.512 -108.311 247.445 -107.61 247.591C-106.909 247.736 -106.285 248.07 -105.737 248.593C-105.19 249.116 -104.762 249.803 -104.454 250.655C-104.148 251.503 -104.039 252.301 -104.126 253.05C-104.214 253.798 -104.481 254.453 -104.927 255.013C-105.373 255.573 -105.981 255.992 -106.75 256.27ZM-107.23 254.927C-106.731 254.746 -106.366 254.465 -106.133 254.083C-105.901 253.701 -105.785 253.263 -105.787 252.768C-105.785 252.272 -105.879 251.76 -106.07 251.233C-106.259 250.709 -106.513 250.257 -106.832 249.877C-107.148 249.492 -107.519 249.225 -107.943 249.076C-108.367 248.928 -108.829 248.943 -109.328 249.124C-109.83 249.305 -110.198 249.589 -110.433 249.976C-110.664 250.362 -110.78 250.805 -110.781 251.304C-110.779 251.799 -110.684 252.308 -110.494 252.832C-110.304 253.359 -110.051 253.814 -109.736 254.195C-109.417 254.575 -109.046 254.838 -108.623 254.983C-108.197 255.127 -107.732 255.108 -107.23 254.927ZM-99.6715 253.524L-105.054 246.189L-103.402 245.592L-99.6153 251.038L-99.5351 251.009L-100.1 244.399L-98.449 243.802L-94.6769 249.223L-94.5968 249.194L-95.1682 242.616L-93.517 242.019L-92.9601 251.098L-94.5899 251.687L-98.3991 246.364L-98.522 246.408L-98.0471 252.936L-99.6715 253.524Z" fill="black"/>
</g>
<path d="M156.409 37.882L156.409 37.8821L156.414 37.8842C157.189 38.1776 157.811 38.7167 158.193 39.4205L143.681 44.6661C143.529 43.8822 143.671 43.0641 144.067 42.3432C145.212 40.2632 145.552 37.8166 144.723 35.5244C143.99 33.4971 144.968 31.3192 146.818 30.6506C148.685 29.9756 150.811 31.0298 151.545 33.0587C152.373 35.3509 154.199 37.0148 156.409 37.882ZM152.422 46.1547C151.784 46.3855 151.042 46.1348 150.615 45.5472L153.423 44.532C153.471 45.2569 153.061 45.9238 152.422 46.1547Z" stroke="black"/>
<defs>
<filter id="filter0_d_72_2" x="-247.199" y="2.80117" width="458.118" height="291.639" filterUnits="userSpaceOnUse" color-interpolation-filters="sRGB">
<feFlood flood-opacity="0" result="BackgroundImageFix"/>
<feColorMatrix in="SourceAlpha" type="matrix" values="0 0 0 0 0 0 0 0 0 0 0 0 0 0 0 0 0 0 127 0" result="hardAlpha"/>
<feOffset dy="4"/>
<feGaussianBlur stdDeviation="2"/>
<feComposite in2="hardAlpha" operator="out"/>
<feColorMatrix type="matrix" values="0 0 0 0 0 0 0 0 0 0 0 0 0 0 0 0 0 0 0.25 0"/>
<feBlend mode="normal" in2="BackgroundImageFix" result="effect1_dropShadow_72_2"/>
<feBlend mode="normal" in="SourceGraphic" in2="effect1_dropShadow_72_2" result="shape"/>
</filter>
</defs>
</svg>
