<svg width="334" height="149" viewBox="0 0 334 149" fill="none" xmlns="http://www.w3.org/2000/svg">
<path d="M125.125 44.6455C123.129 47.1199 120.729 49.2393 118.026 50.9142V50.9142C116.435 51.9004 114.75 52.7259 112.995 53.3784L110.437 54.3297C106.717 55.713 102.86 56.6939 98.9319 57.2558L98.484 57.3199C93.3906 58.0484 88.4124 59.4313 83.6729 61.4341L78.9406 63.434L71.183 67.4408C69.8813 68.1131 68.6316 68.8817 67.4445 69.7402L63.69 72.455C60.9796 74.415 58.9762 77.1995 57.9793 80.3924V80.3924C56.2684 85.8727 51.6671 89.9575 46.0226 91.007L44.4059 91.3076L36.1031 92.7111C33.7283 93.1125 31.3915 93.7129 29.1173 94.5057V94.5057C25.654 95.7132 22.3595 97.359 19.3141 99.403L15.3455 102.067C13.8577 103.065 12.4654 104.199 11.1865 105.455L4.37996 112.136C0.487192 115.957 -0.84252 121.685 0.969072 126.83V126.83C1.84959 129.331 3.41964 131.532 5.49782 133.178L11.6346 138.039C16.1641 141.627 21.3983 144.221 26.9966 145.653L32.0729 146.95C37.3961 148.311 42.8688 149 48.3632 149L312.005 149C329.13 149 337.693 149 346.221 148.333C354.749 147.665 363.208 146.334 380.125 143.67L394.069 141.475L411.042 138.492C414.097 137.955 417.049 136.94 419.788 135.485V135.485C422.058 134.279 424.161 132.782 426.044 131.032L426.446 130.658L427.157 129.996C427.392 129.778 427.525 129.473 427.525 129.153V129.153C427.525 128.833 427.658 128.528 427.892 128.31L428.407 127.831C428.538 127.709 428.681 127.6 428.833 127.506L430.16 126.683C431.262 126.001 432.165 125.041 432.778 123.899V123.899C433.569 122.428 433.84 120.733 433.545 119.089L433.222 117.289C433.022 116.173 432.673 115.089 432.184 114.067L431.632 112.913C429.662 108.791 426.463 105.38 422.476 103.15L418.26 100.792C416.526 99.8223 414.708 99.011 412.828 98.3683L410.827 97.6844C404.877 95.6501 399.82 91.6102 396.521 86.2567V86.2567C394.899 83.6234 392.837 81.2872 390.426 79.3494L388.372 77.6982C385.705 75.5545 382.788 73.7416 379.685 72.2991L378.581 71.786C375.246 70.2357 371.757 69.0407 368.172 68.221L354.908 65.1882C349.165 63.8752 343.309 63.1232 337.421 62.9429L294.317 61.6228C286.015 61.3685 278.581 56.4115 275.154 48.8449V48.8449C273.185 44.4982 269.843 40.9188 265.641 38.6572L257.96 34.523C253.753 32.2586 249.911 29.3735 246.564 25.9648L241.411 20.7181C233.237 12.3952 223.089 6.27834 211.911 2.93827L211.434 2.7957C203.049 0.289842 194.252 -0.537725 185.546 0.360369V0.360369C179.97 0.935592 174.489 2.21287 169.233 4.16187L165.589 5.5132C161.079 7.18568 156.774 9.36693 152.758 12.0147V12.0147C147.464 15.5052 142.725 19.7716 138.699 24.6709L138.505 24.907C136.212 27.6977 134.154 30.6739 132.353 33.8049L130.208 37.5335C129.127 39.413 127.9 41.2048 126.539 42.8923L125.125 44.6455Z" fill="#0094FF" fill-opacity="0.15"/>
</svg>
