<svg width="290" height="149" viewBox="0 0 290 149" fill="none" xmlns="http://www.w3.org/2000/svg">
<path d="M164.875 44.6455C166.871 47.1199 169.271 49.2393 171.974 50.9142C173.565 51.9004 175.25 52.7259 177.005 53.3784L179.563 54.3297C183.283 55.713 187.14 56.6939 191.068 57.2558L191.516 57.3199C196.609 58.0484 201.588 59.4313 206.327 61.4341L211.059 63.434L218.817 67.4408C220.119 68.1131 221.368 68.8817 222.556 69.7402L226.31 72.455C229.02 74.415 231.024 77.1995 232.021 80.3924C233.732 85.8727 238.333 89.9575 243.977 91.007L245.594 91.3076L253.897 92.7111C256.272 93.1125 258.608 93.7129 260.883 94.5057C264.346 95.7132 267.641 97.359 270.686 99.403L274.654 102.067C276.142 103.065 277.535 104.199 278.813 105.455L285.62 112.136C289.513 115.957 290.843 121.685 289.031 126.83C288.15 129.331 286.58 131.532 284.502 133.178L278.365 138.039C273.836 141.627 268.602 144.221 263.003 145.653L257.927 146.95C252.604 148.311 247.131 149 241.637 149L-22.0048 149C-39.1305 149 -47.6933 149 -56.2213 148.333C-64.7494 147.665 -73.208 146.334 -90.1253 143.67L-104.069 141.475L-121.042 138.492C-124.097 137.955 -127.049 136.94 -129.788 135.485C-132.058 134.279 -134.161 132.782 -136.044 131.032L-136.446 130.658L-137.157 129.996C-137.392 129.778 -137.525 129.473 -137.525 129.153C-137.525 128.833 -137.658 128.528 -137.892 128.31L-138.407 127.831C-138.538 127.709 -138.681 127.6 -138.833 127.506L-140.16 126.683C-141.262 126.001 -142.165 125.041 -142.778 123.899C-143.569 122.428 -143.84 120.733 -143.545 119.089L-143.222 117.289C-143.022 116.173 -142.673 115.089 -142.184 114.067L-141.632 112.913C-139.662 108.791 -136.463 105.38 -132.476 103.15L-128.26 100.792C-126.526 99.8223 -124.708 99.011 -122.828 98.3683L-120.827 97.6844C-114.877 95.6501 -109.82 91.6102 -106.521 86.2567C-104.899 83.6234 -102.837 81.2872 -100.426 79.3494L-98.3719 77.6982C-95.7047 75.5545 -92.7878 73.7416 -89.6848 72.2991L-88.5809 71.786C-85.2458 70.2357 -81.7568 69.0407 -78.1715 68.221L-64.9075 65.1882C-59.1651 63.8752 -53.3087 63.1232 -47.4208 62.9429L-4.31721 61.6228C3.98531 61.3685 11.4195 56.4115 14.8463 48.8449C16.8149 44.4982 20.1571 40.9188 24.3588 38.6572L32.0397 34.523C36.2467 32.2586 40.0886 29.3735 43.4362 25.9648L48.5889 20.7181C56.7626 12.3952 66.9115 6.27834 78.0885 2.93827L78.5656 2.7957C86.9511 0.289842 95.7484 -0.537725 104.454 0.360369C110.03 0.935591 115.511 2.21287 120.767 4.16187L124.411 5.5132C128.921 7.18568 133.226 9.36693 137.242 12.0147C142.536 15.5052 147.275 19.7716 151.301 24.6709L151.495 24.907C153.788 27.6977 155.846 30.6739 157.647 33.8049L159.792 37.5335C160.873 39.413 162.1 41.2048 163.461 42.8923L164.875 44.6455Z" fill="#0094FF" fill-opacity="0.15"/>
</svg>
