<svg width="26" height="25" viewBox="0 0 26 25" fill="none" xmlns="http://www.w3.org/2000/svg">
<path d="M25.245 14.7116C24.7794 16.9999 23.6461 19.1114 21.9793 20.7964C20.3124 22.4815 18.1817 23.6696 15.8389 24.2203C16.4819 23.4861 17.0392 22.5347 17.502 21.4553C17.9622 20.382 18.3468 19.1366 18.6317 17.7718C20.7462 17.2449 22.6615 16.435 24.2678 15.3995C24.6057 15.1812 24.9323 14.9519 25.245 14.7116ZM0.494117 14.7116C0.806813 14.9519 1.13338 15.1812 1.47129 15.3995C3.07638 16.435 4.99164 17.2449 7.10738 17.7718C7.39107 19.1366 7.77564 20.382 8.23712 21.4553C8.6986 22.5335 9.2559 23.4861 9.89894 24.2203C7.55641 23.6694 5.42591 22.4812 3.7593 20.7962C2.09269 19.1111 0.959651 16.9997 0.494117 14.7116ZM15.9297 18.2731C15.7128 19.1025 15.4569 19.8575 15.1719 20.5222C14.7344 21.5443 14.2527 22.2969 13.7963 22.7738C13.3298 23.2617 13.0095 23.3409 12.8696 23.3409C12.7296 23.3409 12.4106 23.2617 11.9428 22.7738C11.4864 22.2981 11.0047 21.5443 10.5672 20.5222C10.259 19.7911 10.0057 19.0395 9.80942 18.2731C10.803 18.3975 11.8268 18.4621 12.8696 18.4621C13.9136 18.4621 14.9374 18.3975 15.9297 18.2731ZM16.6055 10.8134C16.7042 12.4557 16.6442 14.1034 16.4265 15.7349C15.2955 15.9227 14.1027 16.0228 12.8696 16.0228C11.6772 16.0241 10.4869 15.9278 9.31138 15.7349C9.09049 14.1036 9.03096 12.4557 9.13359 10.8134C10.3264 11.0293 11.5797 11.144 12.8696 11.144C14.1582 11.144 15.4127 11.0293 16.6055 10.8134ZM24.3006 7.21044C24.8806 8.41306 25.2652 9.72302 25.4102 11.1001C24.7785 11.9209 23.9261 12.6881 22.8682 13.3687C21.7713 14.0761 20.4776 14.6738 19.0365 15.1214C19.2009 13.4814 19.2186 11.8307 19.0894 10.1877C20.3314 9.78156 21.4725 9.25344 22.4723 8.62529C23.1298 8.2149 23.7424 7.74084 24.3006 7.21044ZM1.43851 7.21044C1.98068 7.73125 2.59851 8.2045 3.26677 8.62529C4.26664 9.25344 5.40646 9.78156 6.64968 10.1877C6.52086 11.8307 6.53815 13.4813 6.70138 15.1214C5.2602 14.6738 3.96655 14.0773 2.8696 13.3699C1.81299 12.6881 0.960639 11.9209 0.327682 11.1001C0.473943 9.7218 0.857248 8.41306 1.43725 7.20922L1.43851 7.21044ZM12.8696 1.38639C13.0082 1.38639 13.3285 1.46689 13.7963 1.95477C14.2527 2.43045 14.7344 3.18422 15.1719 4.20633C15.6636 5.3565 16.0722 6.77745 16.3344 8.37891C15.2476 8.58992 14.0838 8.70457 12.8696 8.70457C11.6553 8.70457 10.4916 8.58992 9.40342 8.37891C9.66568 6.77745 10.0742 5.3565 10.5672 4.20755C11.0047 3.18422 11.4864 2.43167 11.9416 1.95477C12.4106 1.46689 12.7296 1.38639 12.8696 1.38639ZM15.8389 0.506989C18.6805 1.1746 21.1942 2.77626 22.9502 5.03816C22.413 5.63593 21.7892 6.15523 21.098 6.57986C20.3672 7.03369 19.5887 7.41107 18.7755 7.70564C18.4842 6.04563 18.0442 4.54053 17.502 3.27326C17.0392 2.19383 16.4832 1.24125 15.8389 0.506989ZM9.9002 0.506989C9.25716 1.24125 8.69986 2.19383 8.23712 3.27326C7.69494 4.54175 7.25364 6.04563 6.96364 7.70564C6.1504 7.41108 5.37185 7.03369 4.64112 6.57986C3.94954 6.15528 3.32522 5.63599 2.78764 5.03816C4.54398 2.77603 7.05813 1.17434 9.9002 0.506989Z" fill="black"/>
</svg>
