<svg width="22" height="20" viewBox="0 0 22 20" fill="none" xmlns="http://www.w3.org/2000/svg">
<path d="M19.6666 16.4167C20.084 16.4169 20.4852 16.59 20.7872 16.9002C21.0893 17.2103 21.2689 17.6337 21.289 18.0826C21.309 18.5315 21.1679 18.9715 20.895 19.3114C20.622 19.6513 20.238 19.8651 19.8226 19.9085L19.6666 19.9167H2.33331C1.91599 19.9165 1.51475 19.7433 1.21273 19.4332C0.910703 19.1231 0.73105 18.6997 0.710995 18.2508C0.69094 17.8019 0.832021 17.3619 1.105 17.0219C1.37799 16.682 1.76194 16.4682 2.17731 16.4248L2.33331 16.4167H19.6666ZM19.6666 8.25001C20.0976 8.25001 20.5109 8.43438 20.8157 8.76257C21.1204 9.09076 21.2916 9.53588 21.2916 10C21.2916 10.4641 21.1204 10.9093 20.8157 11.2374C20.5109 11.5656 20.0976 11.75 19.6666 11.75H2.33331C1.90234 11.75 1.48901 11.5656 1.18426 11.2374C0.879518 10.9093 0.708313 10.4641 0.708313 10C0.708313 9.53588 0.879518 9.09076 1.18426 8.76257C1.48901 8.43438 1.90234 8.25001 2.33331 8.25001H19.6666ZM19.6666 0.0833435C20.0976 0.0833435 20.5109 0.267718 20.8157 0.595907C21.1204 0.924095 21.2916 1.36921 21.2916 1.83334C21.2916 2.29747 21.1204 2.74259 20.8157 3.07078C20.5109 3.39897 20.0976 3.58334 19.6666 3.58334H2.33331C1.90234 3.58334 1.48901 3.39897 1.18426 3.07078C0.879518 2.74259 0.708313 2.29747 0.708313 1.83334C0.708313 1.36921 0.879518 0.924095 1.18426 0.595907C1.48901 0.267718 1.90234 0.0833435 2.33331 0.0833435H19.6666Z" fill="#FF0000"/>
</svg>
