<?xml version="1.0" standalone="no"?>
<!DOCTYPE svg PUBLIC "-//W3C//DTD SVG 20010904//EN"
 "http://www.w3.org/TR/2001/REC-SVG-20010904/DTD/svg10.dtd">
<svg version="1.0" xmlns="http://www.w3.org/2000/svg"
 width="700.000000pt" height="700.000000pt" viewBox="0 0 700.000000 700.000000"
 preserveAspectRatio="xMidYMid meet">
<metadata>
Created by potrace 1.14, written by Peter Selinger 2001-2017
</metadata>
<g transform="translate(0.000000,700.000000) scale(0.100000,-0.100000)"
fill="#000000" stroke="none">
<path d="M2102 6546 c-45 -15 -102 -54 -139 -96 -42 -47 -63 -122 -63 -225 l0
-95 -297 0 c-164 0 -329 -5 -367 -10 -135 -20 -279 -97 -366 -197 -49 -58
-114 -188 -129 -261 -7 -34 -11 -224 -11 -527 l0 -475 2770 0 2770 0 0 475 c0
303 -4 493 -11 527 -16 76 -80 205 -133 264 -62 70 -165 138 -261 171 l-80 27
-342 4 -343 4 0 94 c0 153 -53 249 -169 306 -64 32 -177 31 -238 0 -117 -61
-161 -138 -170 -296 l-6 -106 -1017 0 -1017 0 -6 106 c-7 123 -33 191 -93 243
-79 70 -192 96 -282 67z"/>
<path d="M1890 3790 l0 -290 295 0 295 0 0 290 0 290 -295 0 -295 0 0 -290z"/>
<path d="M2770 3790 l0 -290 295 0 295 0 0 290 0 290 -295 0 -295 0 0 -290z"/>
<path d="M3640 3790 l0 -290 295 0 295 0 0 290 0 290 -295 0 -295 0 0 -290z"/>
<path d="M4520 3790 l0 -290 295 0 295 0 0 290 0 290 -295 0 -295 0 0 -290z"/>
<path d="M1892 2918 l3 -293 293 -3 292 -2 0 295 0 295 -295 0 -295 0 2 -292z"/>
<path d="M2770 2915 l0 -295 293 2 292 3 3 293 2 292 -295 0 -295 0 0 -295z"/>
<path d="M3642 2918 l3 -293 293 -3 292 -2 0 295 0 295 -295 0 -295 0 2 -292z"/>
<path d="M4520 2915 l0 -295 293 2 292 3 3 293 2 292 -295 0 -295 0 0 -295z"/>
<path d="M1890 2040 l0 -290 295 0 295 0 0 290 0 290 -295 0 -295 0 0 -290z"/>
<path d="M2770 2040 l0 -290 295 0 295 0 0 290 0 290 -295 0 -295 0 0 -290z"/>
<path d="M3640 2040 l0 -290 295 0 295 0 0 290 0 290 -295 0 -295 0 0 -290z"/>
<path d="M4520 2040 l0 -290 295 0 295 0 0 290 0 290 -295 0 -295 0 0 -290z"/>
</g>
</svg>
